<svg width="103" height="164" viewBox="0 0 103 164" fill="none" xmlns="http://www.w3.org/2000/svg">
<path d="M62.8094 125.651C60.8686 128.576 59.9464 128.651 56.6154 128.08C53.9244 127.619 48.3567 126.408 44.9156 124.006C34.1104 116.587 33.4153 112.23 35.1634 108.652C36.4917 105.899 38.3086 105.72 40.6142 105.582C43.9245 105.383 49.4785 106.959 54.475 110.62C63.4081 117.151 65.6036 121.439 62.8094 125.651Z" fill="#1B1D1C"/>
<path d="M47.3037 119.904C44.4678 118.184 41.9508 115.986 39.864 113.408C38.1503 111.143 37.6342 109.223 38.4119 107.991C39.1895 106.759 41.1647 106.408 43.9176 106.979C47.1412 107.755 50.2072 109.08 52.9815 110.895C55.8155 112.616 58.3302 114.814 60.4144 117.392C62.128 119.657 62.6442 121.577 61.8734 122.809C61.1026 124.041 59.1205 124.392 56.3676 123.82C53.1422 123.05 50.0753 121.725 47.3037 119.904ZM52.8095 111.164C46.4847 107.172 40.1462 105.823 38.6665 108.163C37.1868 110.503 41.1372 115.644 47.462 119.636C53.7868 123.628 60.1322 124.977 61.605 122.637C63.0778 120.297 59.1411 115.156 52.8164 111.164H52.8095Z" fill="white" stroke="white" strokeWidth="0.178938" strokeMiterlimit="10"/>
<path d="M34.5647 109.994L34.4339 109.911L34.5922 109.65L36.4091 106.78L36.6707 106.945L34.778 109.946L34.6473 109.863L34.5647 109.994Z" fill="white" stroke="white" strokeWidth="0.178938" strokeMiterlimit="10"/>
<path d="M61.8596 127.227L61.7289 127.145L61.8114 127.007L61.6807 126.924L63.5733 123.924L63.8417 124.089L61.8596 127.227Z" fill="white" stroke="white" strokeWidth="0.178938" strokeMiterlimit="10"/>
<path d="M46.237 121.598C42.9006 119.587 39.9841 116.951 37.6479 113.834C35.7278 111.082 35.2185 108.686 36.2233 107.097C37.2281 105.507 39.6025 104.887 42.9472 105.452C46.7717 106.216 50.4126 107.711 53.6698 109.856C56.9934 111.877 59.8957 114.52 62.2175 117.64C64.1377 120.393 64.6469 122.795 63.6421 124.385C62.6373 125.975 60.263 126.546 56.9457 126.002C53.1267 125.234 49.491 123.739 46.237 121.598ZM53.4771 110.125C46.058 105.438 38.4394 104.144 36.4848 107.234C34.5303 110.324 38.9831 116.649 46.3884 121.329C53.7937 126.009 61.4261 127.31 63.3737 124.213C65.3214 121.116 60.8961 114.805 53.4771 110.125Z" fill="white" stroke="white" strokeWidth="0.178938" strokeMiterlimit="10"/>
<path d="M44.7917 123.882C37.2763 119.141 32.7615 112.946 34.5096 109.788L34.5922 109.65L34.8606 109.815L34.7849 109.939C33.1469 112.905 37.7099 119.037 44.9568 123.614C52.2038 128.191 59.7124 129.67 61.6807 126.917L61.7633 126.794L62.0248 126.966C61.9973 127.011 61.9675 127.054 61.9353 127.096C59.8362 130.035 52.3071 128.624 44.7917 123.882Z" fill="white" stroke="white" strokeWidth="0.178938" strokeMiterlimit="10"/>
<path d="M46.5443 120.716L45.1108 123.015L45.3799 123.182L46.8134 120.883L46.5443 120.716Z" fill="white" stroke="white" strokeWidth="0.179242" strokeMiterlimit="10"/>
<path d="M43.9005 119.814L42.4532 122.107L42.7209 122.276L44.1682 119.983L43.9005 119.814Z" fill="white" stroke="white" strokeWidth="0.178938" strokeMiterlimit="10"/>
<path d="M41.9654 118.288L40.5107 120.593L40.7784 120.762L42.2331 118.457L41.9654 118.288Z" fill="white" stroke="white" strokeWidth="0.178938" strokeMiterlimit="10"/>
<path d="M40.3427 116.793L38.8769 119.115L39.1447 119.284L40.6104 116.962L40.3427 116.793Z" fill="white" stroke="white" strokeWidth="0.178938" strokeMiterlimit="10"/>
<path d="M38.9771 115.347L37.5003 117.687L37.768 117.856L39.2448 115.516L38.9771 115.347Z" fill="white" stroke="white" strokeWidth="0.178938" strokeMiterlimit="10"/>
<path d="M37.8243 113.904L36.3292 116.273L36.5969 116.442L38.092 114.073L37.8243 113.904Z" fill="white" stroke="white" strokeWidth="0.178938" strokeMiterlimit="10"/>
<path d="M36.8255 112.34L35.3084 114.743L35.5761 114.912L37.0932 112.509L36.8255 112.34Z" fill="white" stroke="white" strokeWidth="0.178938" strokeMiterlimit="10"/>
<path d="M36.1585 110.897L34.6194 113.335L34.8871 113.504L36.4263 111.066L36.1585 110.897Z" fill="white" stroke="white" strokeWidth="0.178938" strokeMiterlimit="10"/>
<path d="M35.7657 109.283L34.1972 111.769L34.4649 111.938L36.0334 109.452L35.7657 109.283Z" fill="white" stroke="white" strokeWidth="0.178938" strokeMiterlimit="10"/>
<path d="M48.5391 122.755L47.0955 125.042L47.3632 125.211L48.8068 122.924L48.5391 122.755Z" fill="white" stroke="white" strokeWidth="0.178938" strokeMiterlimit="10"/>
<path d="M50.7574 123.84L49.3064 126.139L49.5741 126.308L51.0252 124.009L50.7574 123.84Z" fill="white" stroke="white" strokeWidth="0.178938" strokeMiterlimit="10"/>
<path d="M52.7936 124.669L51.3352 126.979L51.6029 127.148L53.0613 124.838L52.7936 124.669Z" fill="white" stroke="white" strokeWidth="0.178938" strokeMiterlimit="10"/>
<path d="M54.6891 125.279L53.2197 127.607L53.4874 127.776L54.9568 125.448L54.6891 125.279Z" fill="white" stroke="white" strokeWidth="0.178938" strokeMiterlimit="10"/>
<path d="M56.4862 125.699L55.0021 128.05L55.2698 128.219L56.7539 125.868L56.4862 125.699Z" fill="white" stroke="white" strokeWidth="0.178938" strokeMiterlimit="10"/>
<path d="M58.3261 125.941L56.8236 128.321L57.0913 128.49L58.5938 126.11L58.3261 125.941Z" fill="white" stroke="white" strokeWidth="0.178938" strokeMiterlimit="10"/>
<path d="M59.9042 125.931L58.3833 128.341L58.6511 128.51L60.1719 126.1L59.9042 125.931Z" fill="white" stroke="white" strokeWidth="0.178938" strokeMiterlimit="10"/>
<path d="M61.5267 125.608L59.9875 128.046L60.2552 128.215L61.7944 125.777L61.5267 125.608Z" fill="white" stroke="white" strokeWidth="0.178938" strokeMiterlimit="10"/>
<path d="M51.7634 116.002C51.4674 115.644 51.1233 115.314 50.793 114.963C50.6042 114.778 50.4337 114.575 50.2837 114.357C50.0153 113.945 50.2837 113.711 50.7792 113.876C50.9262 113.929 51.067 113.998 51.199 114.082C51.7108 114.372 52.175 114.739 52.5755 115.17C52.7682 115.383 52.8577 115.41 53.0228 115.321L53.5252 115.025C53.6422 114.956 53.6216 114.853 53.4839 114.708C53.2284 114.44 52.9523 114.191 52.6581 113.965C52.2589 113.662 52.2589 113.662 52.4103 113.415C52.5617 113.167 52.6237 113.077 52.0249 112.726L51.7703 112.561C51.4881 112.389 51.4193 112.389 51.316 112.561C51.2128 112.733 51.2197 112.706 51.1715 112.775C51.0339 112.988 51.0339 112.981 50.6347 112.83C49.6574 112.465 48.9073 112.465 48.5081 112.974C48.1089 113.483 48.3911 114.013 48.9279 114.681C49.2582 115.094 49.6712 115.472 50.0497 115.872C50.1898 116.016 50.3165 116.172 50.4282 116.34C50.731 116.814 50.4282 117.103 49.8501 116.911C49.5264 116.801 49.2222 116.641 48.9485 116.436C48.5139 116.117 48.1168 115.75 47.7648 115.342C47.5652 115.121 47.4826 115.094 47.3106 115.19L46.8632 115.459C46.6705 115.582 46.6774 115.644 46.9183 115.906C47.2381 116.253 47.5907 116.569 47.9713 116.849C48.2672 117.076 48.2741 117.09 48.1571 117.282L47.9988 117.544C47.9369 117.654 47.9988 117.771 48.1777 117.895L48.866 118.315C49.0518 118.425 49.1757 118.425 49.2445 118.315C49.3243 118.202 49.3979 118.085 49.4647 117.964C49.5335 117.84 49.6643 117.833 49.8845 117.964C50.3299 118.173 50.8173 118.276 51.3092 118.267C52.4929 118.184 52.7131 117.124 51.7634 116.002Z" fill="white" stroke="white" strokeWidth="0.178938" strokeMiterlimit="10"/>
<path d="M25.4457 139.877C26.277 138.362 27.4717 137.078 28.9224 136.141C30.3731 135.203 32.0342 134.64 33.7563 134.504C35.4783 134.367 37.2073 134.661 38.7877 135.359C40.368 136.056 41.7501 137.136 42.8096 138.5H59.5403C60.0964 138.5 60.647 138.61 61.1606 138.823C61.6742 139.036 62.1406 139.349 62.5332 139.743C62.9258 140.137 63.2367 140.604 63.4483 141.118C63.6598 141.633 63.7678 142.184 63.766 142.74V144.116C63.766 145.237 63.3208 146.312 62.5283 147.104C61.7359 147.897 60.661 148.342 59.5403 148.342H55.2802L56.6154 148.548L61.4329 149.285L78.8932 135.431C79.4354 135.003 80.0567 134.686 80.7214 134.498C81.3862 134.31 82.0815 134.255 82.7675 134.336C83.4536 134.417 84.117 134.632 84.7198 134.969C85.3227 135.306 85.8533 135.759 86.2812 136.301C86.7092 136.844 87.0261 137.465 87.214 138.13C87.4018 138.794 87.4569 139.49 87.3761 140.176C87.2952 140.862 87.08 141.525 86.7428 142.128C86.4056 142.731 85.9529 143.262 85.4106 143.689L64.4886 160.289C63.9948 160.688 63.4296 160.99 62.8231 161.177C60.8355 162.383 58.4852 162.846 56.1887 162.485L25.4663 157.764" stroke="white" strokeWidth="1.45215" strokeLinecap="round" strokeLinejoin="round"/>
<path d="M55.2802 148.362H43.3189" stroke="white" strokeWidth="1.45215" strokeLinecap="round" strokeLinejoin="round"/>
<path d="M14.1038 133.153H21.8188C22.7807 133.153 23.7032 133.535 24.3834 134.215C25.0636 134.895 25.4457 135.818 25.4457 136.78V158.06C25.4457 159.022 25.0636 159.944 24.3834 160.624C23.7032 161.304 22.7807 161.687 21.8188 161.687H14.1038C13.527 161.687 12.9738 161.457 12.566 161.05C12.1581 160.642 11.929 160.089 11.929 159.512V135.334C11.9281 135.048 11.9837 134.765 12.0926 134.5C12.2014 134.235 12.3615 133.995 12.5635 133.792C12.7656 133.59 13.0056 133.429 13.2699 133.319C13.5342 133.209 13.8176 133.153 14.1038 133.153V133.153Z" stroke="white" strokeWidth="1.45215" strokeMiterlimit="10"/>
<path d="M1.00001 30.2632V122.685" stroke="#1DE9B6" strokeWidth="1.45215" strokeLinecap="round" strokeLinejoin="round"/>
<path d="M101.735 12.1904V62.0454" stroke="#1DE9B6" strokeWidth="1.45215" strokeLinecap="round" strokeLinejoin="round"/>
<path d="M56.0166 11.1309V39.8091" stroke="#1DE9B6" strokeWidth="1.45215" strokeLinecap="round" strokeLinejoin="round"/>
<path d="M87.9295 77.6338V126.043" stroke="#1DE9B6" strokeWidth="1.45215" strokeLinecap="round" strokeLinejoin="round"/>
<path d="M27.5998 1V20.3322" stroke="#1DE9B6" strokeWidth="1.45215" strokeLinecap="round" strokeLinejoin="round"/>
<path d="M26.2853 47.5239V73.9792" stroke="#1DE9B6" strokeWidth="1.45215" strokeLinecap="round" strokeLinejoin="round"/>
<path d="M34.2825 89.416V101.081" stroke="#1DE9B6" strokeWidth="1.45215" strokeLinecap="round" strokeLinejoin="round"/>
<path d="M77.6268 64.9705C74.8739 69.0241 72.8093 69.788 68.1913 68.5974C62.6583 66.8806 57.4853 64.1681 52.9265 60.5934C38.9211 48.9761 38.4738 42.8441 41.3368 38.0884C43.5185 34.4615 46.1062 33.6425 49.3202 33.732C53.9588 33.8627 60.2492 36.7533 66.7391 42.438C78.3563 52.5824 81.4878 59.2582 77.6268 64.9705Z" fill="#1B1D1C"/>
<path d="M56.4915 55.2388C52.8356 52.3424 49.7105 48.833 47.2555 44.8672C45.2597 41.4261 44.8812 38.6319 46.175 37.0559C47.4689 35.4799 50.3044 35.3216 54.0483 36.6085C58.4145 38.2544 62.4617 40.6459 66.0096 43.6766C70.0082 46.9663 73.291 50.6483 75.2456 54.0481C77.2001 57.448 77.6199 60.2834 76.3192 61.8595C75.0185 63.4355 72.2312 63.5938 68.4459 62.3068C64.0819 60.6608 60.037 58.2692 56.4915 55.2388ZM65.7274 44.0138C57.6064 37.3312 48.9898 34.3305 46.5191 37.3312C44.0484 40.3318 48.6457 48.212 56.7668 54.9015C64.8878 61.5911 73.5113 64.5848 75.982 61.5842C78.4527 58.5835 73.8485 50.7034 65.7274 44.0138Z" fill="white" stroke="white" strokeWidth="0.178938" strokeMiterlimit="10"/>
<path d="M40.4559 39.1687L40.2838 39.031L40.5591 38.6869L43.5942 34.998L43.9314 35.2802L40.7656 39.1343L40.5935 38.9966L40.4559 39.1687Z" fill="white" stroke="white" strokeWidth="0.178938" strokeMiterlimit="10"/>
<path d="M75.5209 68.026L75.3488 67.8884L75.4864 67.7094L75.3213 67.5718L78.494 63.7246L78.8312 63.9999L75.5209 68.026Z" fill="white" stroke="white" strokeWidth="0.178938" strokeMiterlimit="10"/>
<path d="M54.7021 57.3998C50.0153 53.5457 46.2438 49.1411 44.0828 45.0117C41.9218 40.8824 41.6052 37.4413 43.2845 35.3766C44.9637 33.3119 48.3842 32.9541 52.9196 34.303C57.455 35.6519 62.424 38.4805 67.1108 42.3345C71.7976 46.1886 75.5622 50.5932 77.7232 54.7226C79.8842 58.8519 80.2008 62.3412 78.5215 64.3577C76.8423 66.3742 73.4218 66.7803 68.8864 65.4313C64.351 64.0824 59.382 61.2676 54.7021 57.3998ZM66.8286 42.6787C57.3036 34.8398 46.8701 31.6671 43.6286 35.6588C40.387 39.6505 45.4524 49.2374 54.9774 57.0763C64.5024 64.9152 74.9359 68.0879 78.1843 64.0962C81.4327 60.1045 76.3536 50.5175 66.8286 42.6787Z" fill="white" stroke="white" strokeWidth="0.178938" strokeMiterlimit="10"/>
<path d="M52.2795 60.3523C42.6306 52.4102 37.4414 42.9471 40.4215 38.8728L40.5591 38.687L40.8963 38.9692C40.855 39.0242 40.8137 39.0724 40.7793 39.1275C37.9576 42.9815 43.2501 52.3483 52.5617 60.0082C61.8734 67.6681 72.0866 71.0611 75.3213 67.5786L75.4589 67.4341L75.7962 67.7094C75.7494 67.7699 75.6988 67.8274 75.6447 67.8815C72.1967 71.5979 61.9353 68.2944 52.2795 60.3523Z" fill="white" stroke="white" strokeWidth="0.178938" strokeMiterlimit="10"/>
<path d="M54.6713 57.1046L52.2531 60.0435L52.5932 60.3233L55.0114 57.3845L54.6713 57.1046Z" fill="white" stroke="white" strokeWidth="0.178938" strokeMiterlimit="10"/>
<path d="M51.7534 54.5178L49.3307 57.4619L49.6709 57.7418L52.0935 54.7977L51.7534 54.5178Z" fill="white" stroke="white" strokeWidth="0.178938" strokeMiterlimit="10"/>
<path d="M49.3248 52.0448L46.8934 54.9995L47.2336 55.2794L49.6649 52.3246L49.3248 52.0448Z" fill="white" stroke="white" strokeWidth="0.178938" strokeMiterlimit="10"/>
<path d="M47.3212 49.67L44.868 52.6514L45.2081 52.9312L47.6614 49.9499L47.3212 49.67Z" fill="white" stroke="white" strokeWidth="0.178938" strokeMiterlimit="10"/>
<path d="M45.6739 47.4042L43.1988 50.4121L43.5389 50.692L46.014 47.6841L45.6739 47.4042Z" fill="white" stroke="white" strokeWidth="0.178938" strokeMiterlimit="10"/>
<path d="M44.3181 45.1834L41.8167 48.2231L42.1568 48.503L44.6582 45.4632L44.3181 45.1834Z" fill="white" stroke="white" strokeWidth="0.178938" strokeMiterlimit="10"/>
<path d="M43.1983 42.8274L40.6576 45.915L40.9977 46.1949L43.5384 43.1073L43.1983 42.8274Z" fill="white" stroke="white" strokeWidth="0.178938" strokeMiterlimit="10"/>
<path d="M42.5228 40.7082L39.9471 43.8384L40.2872 44.1183L42.8629 40.9881L42.5228 40.7082Z" fill="white" stroke="white" strokeWidth="0.178938" strokeMiterlimit="10"/>
<path d="M42.2559 38.3793L39.6277 41.5732L39.9679 41.8531L42.596 38.6592L42.2559 38.3793Z" fill="white" stroke="white" strokeWidth="0.178938" strokeMiterlimit="10"/>
<path d="M57.7166 59.4284L55.2983 62.3672L55.6384 62.6471L58.0567 59.7082L57.7166 59.4284Z" fill="white" stroke="white" strokeWidth="0.178938" strokeMiterlimit="10"/>
<path d="M60.6108 61.3372L58.1838 64.2866L58.5239 64.5665L60.9509 61.617L60.6108 61.3372Z" fill="white" stroke="white" strokeWidth="0.178938" strokeMiterlimit="10"/>
<path d="M63.3183 62.8516L60.8738 65.8223L61.2139 66.1021L63.6585 63.1314L63.3183 62.8516Z" fill="white" stroke="white" strokeWidth="0.178938" strokeMiterlimit="10"/>
<path d="M65.8567 64.0393L63.3947 67.0312L63.7348 67.3111L66.1968 64.3192L65.8567 64.0393Z" fill="white" stroke="white" strokeWidth="0.178938" strokeMiterlimit="10"/>
<path d="M68.2836 64.9424L65.7997 67.9609L66.1398 68.2408L68.6237 65.2223L68.2836 64.9424Z" fill="white" stroke="white" strokeWidth="0.178938" strokeMiterlimit="10"/>
<path d="M70.8103 65.5986L68.2915 68.6597L68.6316 68.9395L71.1504 65.8785L70.8103 65.5986Z" fill="white" stroke="white" strokeWidth="0.178938" strokeMiterlimit="10"/>
<path d="M73.0197 65.8602L70.4703 68.9585L70.8104 69.2384L73.3599 66.1401L73.0197 65.8602Z" fill="white" stroke="white" strokeWidth="0.178938" strokeMiterlimit="10"/>
<path d="M75.3332 65.6937L72.7531 68.8291L73.0932 69.109L75.6733 65.9735L75.3332 65.6937Z" fill="white" stroke="white" strokeWidth="0.178938" strokeMiterlimit="10"/>
<path d="M63.3393 50.6069C62.9608 50.0219 62.5203 49.4506 62.0867 48.8863C61.843 48.5742 61.6287 48.2401 61.4467 47.8884C61.1232 47.2002 61.5361 46.918 62.2725 47.269C62.4808 47.3706 62.677 47.4953 62.8575 47.6406C63.5564 48.1722 64.1692 48.8083 64.6744 49.5264C64.9222 49.8705 65.0461 49.9324 65.3145 49.8292C65.5829 49.7259 65.8513 49.5952 66.1197 49.4782C66.3881 49.3612 66.2918 49.2442 66.1197 49.0033C65.7887 48.5618 65.4227 48.1475 65.0254 47.7645C64.4955 47.2414 64.4955 47.2414 64.7639 46.9042C65.1424 46.4362 65.1424 46.4362 64.3303 45.7686L63.9725 45.4727C63.5871 45.1699 63.4907 45.1493 63.2842 45.3626C63.2016 45.459 63.1259 45.5622 63.0365 45.6585C62.7956 45.9476 62.7956 45.9407 62.2244 45.6585C60.8479 44.9703 59.733 44.7983 59.0448 45.4727C58.3566 46.1472 58.6731 47.0006 59.3407 48.0948C59.7536 48.7831 60.2973 49.4094 60.786 50.07C60.9704 50.31 61.1295 50.5683 61.2609 50.8409C61.6256 51.6048 61.137 51.9764 60.2905 51.5773C59.8334 51.3506 59.4134 51.0559 59.0448 50.7032C58.4721 50.1645 57.9577 49.567 57.51 48.9207C57.2623 48.5491 57.1453 48.5009 56.8631 48.611C56.5809 48.7211 56.3882 48.8175 56.1749 48.9207C55.9615 49.0239 55.8583 49.1616 56.1749 49.6089C56.5842 50.1798 57.0449 50.712 57.5513 51.1987C57.9505 51.5979 57.9574 51.6186 57.7509 51.887L57.4687 52.2448C57.3449 52.3962 57.3999 52.5821 57.6614 52.8023C57.923 53.0225 58.2671 53.3047 58.5699 53.5456C58.8727 53.7865 59.0104 53.7727 59.1274 53.635C59.2444 53.4974 59.4026 53.3185 59.5265 53.1533C59.6504 52.9881 59.8362 52.995 60.1459 53.1533C60.7733 53.5359 61.4792 53.7712 62.2106 53.8415C64.0137 53.9585 64.5368 52.4582 63.3393 50.6069Z" fill="white" stroke="white" strokeWidth="0.178938" strokeMiterlimit="10"/>
<path d="M50.0497 10.5114C52.1144 13.6153 52.2245 14.861 50.0497 17.7653C47.1747 21.2531 43.6996 24.1991 39.7883 26.4644C27.5517 33.0094 23.1952 31.5573 21.0204 27.9235C17.8064 22.576 21.7087 17.0289 31.4264 11.5024C42.0663 5.42542 47.1454 6.15494 50.0497 10.5114Z" fill="#1B1D1C"/>
<path d="M70.373 86.7113C72.2036 88.0878 72.4376 88.2254 71.8939 90.3796C71.4466 92.107 70.3592 95.6583 68.6111 97.7918C63.2154 104.371 60.3524 104.585 58.1157 103.263C56.4158 102.251 56.3814 101.061 56.4158 99.5536C56.464 97.3926 57.7922 93.8689 60.435 90.8132C62.1736 88.7811 64.3219 87.1394 66.7391 85.9956C68.3427 85.2798 68.8657 85.6171 70.373 86.7113Z" fill="#1B1D1C"/>
<path d="M66.0303 96.1054C64.7954 97.8398 63.2731 99.3504 61.5293 100.572C59.9945 101.563 58.7282 101.797 57.978 101.26C57.2279 100.723 57.0902 99.4295 57.5926 97.6745C58.2483 95.6397 59.2493 93.733 60.552 92.0379C61.7916 90.2958 63.3265 88.7842 65.0874 87.5714C66.6221 86.5803 67.8816 86.3395 68.6318 86.8831C69.3819 87.4268 69.5196 88.7207 69.0172 90.4757C68.3558 92.5114 67.3451 94.4164 66.0303 96.1054ZM60.6828 92.1343C57.806 96.009 56.636 100.021 58.0675 101.081C59.499 102.141 62.9952 99.8562 65.8651 95.9815C68.735 92.1068 69.9118 88.1013 68.4803 87.0346C67.0488 85.9678 63.5527 88.2665 60.6828 92.1343Z" fill="white" stroke="white" strokeWidth="0.178938" strokeMiterlimit="10"/>
<path d="M59.0448 103.807L58.9897 103.89L58.8246 103.773L57.0696 102.472L57.1866 102.307L59.0241 103.669L58.9622 103.752L59.0448 103.807Z" fill="white" stroke="white" strokeWidth="0.178938" strokeMiterlimit="10"/>
<path d="M71.4397 87.1038L71.3778 87.1864L71.2952 87.1245L71.2401 87.2071L69.4026 85.8444L69.5196 85.6792L71.4397 87.1038Z" fill="white" stroke="white" strokeWidth="0.178938" strokeMiterlimit="10"/>
<path d="M67.0351 96.8765C65.5771 98.9226 63.738 100.668 61.6187 102.018C59.7536 103.119 58.1776 103.325 57.221 102.603C56.2644 101.88 55.9891 100.325 56.5328 98.2254C57.9796 93.3785 61.0828 89.1937 65.3007 86.4017C67.1658 85.3006 68.7419 85.0941 69.6985 85.8099C70.6551 86.5256 70.9235 88.0879 70.3867 90.1938C69.7122 92.6172 68.5739 94.8866 67.0351 96.8765ZM60.0152 91.6666C56.7117 96.202 55.4729 101.04 57.3999 102.444C59.327 103.848 63.5939 101.295 66.9387 96.7526C70.2835 92.2103 71.5085 87.379 69.6159 85.975C67.7233 84.5711 63.4081 87.1244 60.0427 91.6666H60.0152Z" fill="white" stroke="white" strokeWidth="0.178938" strokeMiterlimit="10"/>
<path d="M68.4666 97.9089C65.0255 102.513 60.8548 105.115 58.9071 103.835L58.8246 103.773L58.9484 103.614L59.0173 103.662C60.8479 104.867 65.0117 102.231 68.3014 97.7919C71.5911 93.3529 72.9056 88.6041 71.2332 87.207L71.1575 87.1451L71.2814 86.9868L71.364 87.0488C73.1465 88.5422 71.8526 93.3116 68.4666 97.9089Z" fill="white" stroke="white" strokeWidth="0.178938" strokeMiterlimit="10"/>
<path d="M67.0418 96.7421L66.9229 96.9023L68.3213 97.9398L68.4402 97.7795L67.0418 96.7421Z" fill="white" stroke="white" strokeWidth="0.178938" strokeMiterlimit="10"/>
<path d="M65.9036 98.7495L65.7839 98.9092L67.1823 99.958L67.3021 99.7984L65.9036 98.7495Z" fill="white" stroke="white" strokeWidth="0.178938" strokeMiterlimit="10"/>
<path d="M64.8484 99.3026L64.7295 99.4629L66.139 100.509L66.2579 100.348L64.8484 99.3026Z" fill="white" stroke="white" strokeWidth="0.178938" strokeMiterlimit="10"/>
<path d="M63.8152 100.276L63.6963 100.437L65.1168 101.49L65.2357 101.33L63.8152 100.276Z" fill="white" stroke="white" strokeWidth="0.178938" strokeMiterlimit="10"/>
<path d="M62.7695 101.704L62.6497 101.863L64.0757 102.933L64.1955 102.773L62.7695 101.704Z" fill="white" stroke="white" strokeWidth="0.178938" strokeMiterlimit="10"/>
<path d="M61.8295 101.75L61.7106 101.911L63.1587 102.985L63.2776 102.825L61.8295 101.75Z" fill="white" stroke="white" strokeWidth="0.178938" strokeMiterlimit="10"/>
<path d="M60.773 102.324L60.6541 102.484L62.1243 103.575L62.2433 103.414L60.773 102.324Z" fill="white" stroke="white" strokeWidth="0.178938" strokeMiterlimit="10"/>
<path d="M59.8242 102.682L59.7053 102.842L61.1977 103.949L61.3166 103.789L59.8242 102.682Z" fill="white" stroke="white" strokeWidth="0.178938" strokeMiterlimit="10"/>
<path d="M58.7624 102.856L58.6434 103.017L60.1635 104.144L60.2824 103.984L58.7624 102.856Z" fill="white" stroke="white" strokeWidth="0.178938" strokeMiterlimit="10"/>
<path d="M68.0338 95.2982L67.9149 95.4585L69.3133 96.4959L69.4322 96.3356L68.0338 95.2982Z" fill="white" stroke="white" strokeWidth="0.178938" strokeMiterlimit="10"/>
<path d="M68.841 94.5352L68.7212 94.6948L70.1197 95.7437L70.2394 95.584L68.841 94.5352Z" fill="white" stroke="white" strokeWidth="0.178938" strokeMiterlimit="10"/>
<path d="M69.4771 92.6527L69.3582 92.813L70.7732 93.8627L70.8921 93.7024L69.4771 92.6527Z" fill="white" stroke="white" strokeWidth="0.178938" strokeMiterlimit="10"/>
<path d="M69.9614 91.4681L69.8425 91.6284L71.2685 92.6863L71.3874 92.5261L69.9614 91.4681Z" fill="white" stroke="white" strokeWidth="0.178938" strokeMiterlimit="10"/>
<path d="M70.3358 90.9316L70.216 91.0913L71.6475 92.1649L71.7673 92.0053L70.3358 90.9316Z" fill="white" stroke="white" strokeWidth="0.178938" strokeMiterlimit="10"/>
<path d="M70.5753 89.7588L70.4555 89.9185L71.9091 91.0086L72.0288 90.8489L70.5753 89.7588Z" fill="white" stroke="white" strokeWidth="0.178938" strokeMiterlimit="10"/>
<path d="M70.6321 88.1473L70.5132 88.3076L71.989 89.4024L72.1079 89.2422L70.6321 88.1473Z" fill="white" stroke="white" strokeWidth="0.178938" strokeMiterlimit="10"/>
<path d="M70.5027 87.0868L70.3838 87.2471L71.8761 88.3542L71.995 88.1939L70.5027 87.0868Z" fill="white" stroke="white" strokeWidth="0.178938" strokeMiterlimit="10"/>
<path d="M63.7522 93.0774C63.4907 93.2632 63.243 93.4766 62.9952 93.6899C62.8561 93.809 62.7064 93.915 62.5478 94.0065C62.2519 94.1717 62.1074 94.0065 62.245 93.6418C62.2911 93.5463 62.344 93.4543 62.4033 93.3665C62.6329 93.0393 62.9088 92.7472 63.2223 92.4993C63.3806 92.3754 63.4012 92.3204 63.3531 92.2034C63.3049 92.0864 63.2292 91.9625 63.1741 91.8386C63.1191 91.7147 63.0571 91.7629 62.9539 91.8386C62.7554 91.999 62.5712 92.1763 62.4033 92.3685C62.1762 92.6232 62.1762 92.6232 62.0179 92.5062C61.8596 92.3892 61.7908 92.341 61.5017 92.7333L61.3779 92.8985C61.2471 93.0843 61.2402 93.1256 61.3779 93.2082C61.5155 93.2908 61.4742 93.277 61.5155 93.3183C61.5568 93.3596 61.6532 93.4215 61.5155 93.6899C61.2127 94.3369 61.1783 94.853 61.5155 95.149C61.8527 95.4449 62.2037 95.2866 62.7061 94.9494C63.009 94.7498 63.2911 94.4814 63.5802 94.2612C63.6859 94.1719 63.7987 94.0913 63.9174 94.0203C64.2615 93.8413 64.4405 94.0547 64.2822 94.4539C64.1872 94.6658 64.062 94.8628 63.9105 95.0388C63.6775 95.3126 63.4169 95.5617 63.1328 95.7821C62.9677 95.906 62.947 95.9611 63.0021 96.0918C63.0571 96.2226 63.1053 96.2983 63.1604 96.4084C63.2154 96.5185 63.2774 96.546 63.4701 96.4084C63.7199 96.2004 63.9503 95.9701 64.1583 95.7202C64.3372 95.5275 64.3441 95.5275 64.468 95.6101L64.64 95.7339C64.7089 95.789 64.7915 95.7546 64.8878 95.6307C64.9979 95.4931 65.108 95.3485 65.2113 95.1971C65.3145 95.0457 65.3007 94.9976 65.2113 94.9425C65.1218 94.8874 65.0667 94.8255 64.9842 94.7704C64.9016 94.7154 64.9085 94.6328 64.9842 94.4883C65.1477 94.1941 65.2441 93.8674 65.2663 93.5316C65.2801 92.692 64.5712 92.4993 63.7522 93.0774Z" fill="white" stroke="white" strokeWidth="0.178938" strokeMiterlimit="10"/>
<path d="M27.7513 26.141C31.1941 25.4559 34.4916 24.1774 37.4965 22.3626C40.5688 20.6601 43.3214 18.4361 45.6313 15.7901C47.5377 13.4639 48.164 11.4543 47.3932 10.126C46.6224 8.79772 44.5646 8.32973 41.5708 8.82525C38.1279 9.51033 34.8304 10.7888 31.8255 12.6036C28.7541 14.3074 26.0017 16.5312 23.6907 19.1761C21.7844 21.5023 21.165 23.5119 21.9289 24.8402C22.6928 26.1685 24.785 26.6365 27.7513 26.141ZM32.0182 12.8926C38.9005 8.9216 45.6382 7.7585 47.1041 10.2912C48.57 12.8238 44.186 18.1094 37.3313 22.0736C30.4766 26.0377 23.7114 27.2077 22.2455 24.675C20.7796 22.1424 25.1635 16.8568 32.0182 12.8926Z" fill="white" stroke="white" strokeWidth="0.178938" strokeMiterlimit="10"/>
<path d="M49.3959 9.01787C48.2947 7.51754 45.8928 6.9532 42.5756 7.3386C38.4997 7.99483 34.5883 9.42949 31.0547 11.5643C27.4383 13.5604 24.2434 16.2388 21.6467 19.4513C19.6371 22.1216 18.9558 24.496 19.7059 26.2028L21.5091 29.3205L21.6743 29.5958C23.8972 32.6239 31.8187 31.4127 39.8502 26.7672C47.8818 22.1216 52.8852 15.8588 51.3642 12.4108L49.4165 9.00411L49.3959 9.01787ZM31.2474 11.8534C39.2859 7.20096 47.4001 6.14109 49.3408 9.48586C51.2816 12.8306 46.3127 19.3481 38.2742 24.0005C30.2358 28.6529 22.0941 29.7128 20.1533 26.3611C18.2125 23.0095 23.1815 16.5057 31.2474 11.8534ZM25.1498 28.6391L26.4643 30.9103C26.0417 30.9247 25.6187 30.9109 25.198 30.869L23.8835 28.591C24.3042 28.632 24.7271 28.6481 25.1498 28.6391ZM25.5283 28.6391C25.9619 28.6391 26.4161 28.5841 26.9048 28.5221L27.1181 28.4946L28.4188 30.7451C27.8683 30.8277 27.3452 30.8827 26.8428 30.9103L25.5283 28.6391ZM27.4691 28.4395C27.9853 28.3638 28.5083 28.2606 29.0451 28.1367L30.339 30.3666C29.8022 30.4973 29.2791 30.6074 28.7698 30.69L27.4691 28.4395ZM29.3824 28.0541C29.9398 27.9165 30.5042 27.7582 31.0823 27.5793L32.3624 29.7953C31.7843 29.9812 31.2199 30.1463 30.6693 30.284L29.3824 28.0541ZM31.4057 27.476C32.0251 27.2696 32.6514 27.0493 33.2846 26.7878L34.5578 28.9901C33.9246 29.2448 33.2984 29.4788 32.6858 29.6783L31.4057 27.476ZM33.5943 26.6708C34.2825 26.3886 34.9707 26.0789 35.659 25.7486L36.9322 27.944C36.2439 28.2812 35.5557 28.591 34.8675 28.8731L33.5943 26.6708ZM35.9755 25.6041C36.7532 25.2118 37.5103 24.8057 38.2742 24.3653L39.5405 26.5607C38.7766 27.0012 38.0058 27.4072 37.2419 27.7857L35.9755 25.6041ZM38.5564 24.2276C39.3065 23.794 40.0292 23.3398 40.7243 22.8512L41.9906 25.0535C41.3024 25.5146 40.5729 25.9688 39.8296 26.4299L38.5564 24.2276ZM40.9996 22.686C41.6327 22.2501 42.2453 21.7913 42.8371 21.3095L44.1103 23.5119C43.5254 23.9661 42.906 24.4066 42.2659 24.847L40.9996 22.686ZM43.0642 21.1375C43.5942 20.7177 44.1035 20.2841 44.5921 19.8505L45.8722 22.0597C45.3904 22.4864 44.8743 22.92 44.3375 23.3398L43.0642 21.1375ZM44.8467 19.6165C45.2872 19.2105 45.707 18.8044 46.1062 18.3846L47.3932 20.6144C46.994 21.0205 46.5742 21.4265 46.1268 21.8326L44.8467 19.6165ZM46.3884 18.1093C46.76 17.7033 47.1179 17.3041 47.4413 16.898L48.7421 19.1485C48.4186 19.5408 48.0539 19.94 47.6822 20.3391L46.3884 18.1093ZM47.6616 16.6159L47.8336 16.3956C48.1089 16.0309 48.3567 15.673 48.5838 15.322L49.8983 17.5863C49.6032 18.0262 49.2862 18.4512 48.9486 18.8595L47.6616 16.6159ZM48.7834 14.9985C49.0105 14.62 49.2101 14.2415 49.5267 13.7941L50.8343 16.1066C50.5177 16.5539 50.3181 16.9256 50.0841 17.3041L48.7834 14.9985ZM21.7706 29.1828L20.8828 27.655C21.1548 27.8407 21.4454 27.9975 21.75 28.123L23.0232 30.3253C22.5518 30.0955 22.1486 29.7468 21.8532 29.3136L21.7706 29.1828ZM23.5325 30.5593L22.2317 28.2744C22.6367 28.3971 23.051 28.4869 23.4705 28.5428L24.7919 30.8277C24.3648 30.7769 23.9432 30.687 23.5325 30.5593ZM50.8481 15.7831L49.5335 13.5051C49.6922 13.1163 49.821 12.7159 49.919 12.3076L51.2059 14.5581C51.1325 14.9784 51.0125 15.3893 50.8481 15.7831ZM50.9995 12.4177C51.2443 12.922 51.3466 13.4836 51.2954 14.0419L50.0084 11.8258C50.0491 11.476 50.0491 11.1227 50.0084 10.7728L50.8962 12.3076C50.9341 12.3409 50.9687 12.3778 50.9995 12.4177Z" fill="white" stroke="white" strokeWidth="0.178938" strokeMiterlimit="10"/>
<path d="M37.0767 15.7211C37.5653 15.2187 37.7649 14.7232 37.4139 14.2965C36.9253 13.7046 35.776 14.0763 34.4477 14.7576L33.9315 13.8423L32.9267 14.4204L33.4291 15.3082L32.6239 15.7762L32.1215 14.8815L31.1167 15.4596L31.626 16.3681L30.9928 16.7397L29.6164 17.538L29.9467 18.1299C29.9467 18.1299 30.6831 17.6963 30.6762 17.7101C31.0823 17.4761 31.2887 17.5312 31.3644 17.6206L31.9426 18.6599L32.0527 18.5979L31.9494 18.6599L32.7684 20.112C32.7684 20.1946 32.7684 20.346 32.4931 20.5112L31.7636 20.931L31.9357 21.7018L33.2708 20.9241L33.959 20.5112L34.4752 21.4334L35.48 20.8553L34.9707 19.9468L35.8035 19.5477L36.3128 20.4561L37.3107 19.878L36.7945 18.9558C38.4531 17.9372 39.5061 17.0219 39.162 16.0652C38.8798 15.2669 38.1297 15.2944 37.0767 15.7211ZM33.0162 16.4094C33.5874 16.0859 35.308 14.9641 35.6796 15.6179C36.0306 16.2442 34.2068 17.1871 33.6149 17.5174L33.0162 16.4094ZM34.6404 19.293L33.9522 18.0749C34.6404 17.6826 36.7051 16.3474 37.1042 17.0701C37.5034 17.7927 35.3217 18.9007 34.6404 19.293Z" fill="white" stroke="white" strokeWidth="0.178938" strokeMiterlimit="10"/>
<path d="M81.2538 20.6696C81.4052 22.9545 81.0748 24.035 79.079 25.0261C77.4823 25.8106 73.8141 26.5402 71.0612 26.5264C62.3895 26.4782 60.5176 24.6888 60.0496 22.1355C59.7055 20.1879 59.7536 19.4446 60.9236 18.4948C62.596 17.1184 66.3193 16.2994 70.3592 16.3132C73.8347 16.3132 77.6062 17.0358 79.0652 17.7653C80.5242 18.4948 81.1299 18.7908 81.2538 20.6696Z" fill="#1B1D1C"/>
<path d="M64.2271 22.6448C68.4354 23.9572 72.9436 23.9572 77.152 22.6448C78.9138 21.9978 79.9049 21.1307 79.9049 20.1947C79.9049 19.2587 78.9345 18.3847 77.152 17.7377C72.9436 16.4253 68.4354 16.4253 64.2271 17.7377C62.4653 18.3847 61.4742 19.2587 61.4742 20.1947C61.4742 21.1307 62.4653 21.9978 64.2271 22.6448ZM70.6895 16.96C75.6447 16.96 79.6777 18.4053 79.6777 20.1947C79.6777 21.9841 75.6447 23.4293 70.6895 23.4293C65.7343 23.4293 61.7426 21.9772 61.7426 20.1947C61.7426 18.4122 65.7343 16.96 70.6895 16.96Z" fill="white" stroke="white" strokeWidth="0.178938" strokeMiterlimit="10"/>
<path d="M81.3157 20.2358C81.1849 19.1071 80.0769 18.061 78.1499 17.2627C75.7299 16.3611 73.1614 15.9244 70.5794 15.9757C67.9974 15.9248 65.429 16.3614 63.009 17.2627C61.0819 18.061 59.9739 19.1071 59.8431 20.2358V22.624C60.0978 24.9089 64.7708 26.6845 70.5725 26.6845C76.3743 26.6845 81.0542 24.9089 81.3088 22.624V20.2358H81.3157ZM70.5863 16.1753C76.3949 16.1753 81.123 18.0955 81.123 20.4561C81.123 22.8167 76.3949 24.7368 70.5863 24.7368C64.7777 24.7368 60.0427 22.8029 60.0427 20.4423C60.0427 18.0817 64.7708 16.1616 70.5863 16.1616V16.1753ZM62.0386 23.1677V24.7712C61.8013 24.6497 61.5715 24.5141 61.3503 24.3652V22.7616C61.5724 22.909 61.8022 23.0445 62.0386 23.1677ZM62.245 23.2778C62.4859 23.4017 62.7406 23.5187 63.0158 23.6357L63.1535 23.6838V25.2736C62.8323 25.1498 62.5295 25.019 62.245 24.8813V23.2778ZM63.36 23.7664C63.6628 23.8834 63.9794 23.9867 64.3028 24.0899V25.659C63.9725 25.5627 63.6559 25.4595 63.36 25.3562V23.7664ZM64.5162 24.1449C64.8603 24.2482 65.2044 24.3376 65.5829 24.4134V25.9756C65.2113 25.8999 64.8534 25.8104 64.5162 25.721V24.1449ZM65.7894 24.4615C66.1886 24.5441 66.6015 24.6129 67.0213 24.6749V26.2303C66.6015 26.1683 66.1886 26.0995 65.7894 26.0169V24.4615ZM67.2278 24.7024C67.6889 24.7643 68.1638 24.8194 68.6455 24.8538V26.4298C68.1638 26.3954 67.6889 26.3473 67.2278 26.2922V24.7024ZM68.852 24.8676C69.3888 24.902 69.9325 24.9226 70.4762 24.9226V26.4711C69.9256 26.4711 69.3819 26.4711 68.852 26.4161V24.8676ZM70.6895 24.9226C71.2263 24.9226 71.7632 24.9226 72.2862 24.8676V26.4298C71.7632 26.4643 71.2263 26.478 70.6895 26.4849V24.9226ZM72.4927 24.8538C72.9744 24.8194 73.4424 24.7712 73.8691 24.7093V26.2578C73.4149 26.3197 72.94 26.3679 72.4927 26.4023V24.8538ZM74.1169 24.6818C74.5367 24.6198 74.9496 24.5441 75.3488 24.4684V26.0238C74.9496 26.1064 74.5367 26.1752 74.1169 26.2303V24.6818ZM75.5553 24.4202C75.92 24.3445 76.2779 24.2551 76.622 24.1587V25.7416C76.2779 25.8311 75.9338 25.9206 75.5553 25.9963V24.4202ZM76.8285 24.0968C77.1588 24.0004 77.4754 23.8903 77.7782 23.7802V25.3631C77.4754 25.4732 77.1588 25.5764 76.8285 25.6659V24.0968ZM77.9847 23.6976L78.1499 23.6357C78.4114 23.5255 78.6592 23.4154 78.8932 23.2915V24.8951C78.6087 25.0328 78.3059 25.1635 77.9847 25.2874V23.6976ZM79.0996 23.1883C79.3474 23.0576 79.5676 22.9199 79.8842 22.7754V24.3652C79.5676 24.5028 79.3474 24.6405 79.0996 24.7643V23.1883ZM60.0427 22.4106V21.3301C60.1314 21.5135 60.2398 21.6866 60.3662 21.8463V23.3948C60.1801 23.1341 60.0704 22.8266 60.0496 22.507C60.0439 22.4752 60.0416 22.4429 60.0427 22.4106ZM60.5726 23.677V22.094C60.7518 22.2854 60.9475 22.4604 61.1576 22.6171V24.2206C60.9438 24.0608 60.7477 23.8786 60.5726 23.677ZM79.9806 24.2413V22.6309C80.1906 22.4767 80.3864 22.3039 80.5655 22.1147V23.677C80.3898 23.882 80.1938 24.0688 79.9806 24.2344V24.2413ZM81.1161 22.5139C81.0921 22.8521 80.9728 23.1766 80.772 23.4498V21.8807C80.9098 21.7113 81.0275 21.5265 81.123 21.3301V22.4106C81.1241 22.4429 81.1218 22.4752 81.1161 22.507V22.5139Z" fill="white" stroke="white" strokeWidth="0.178938" strokeMiterlimit="10"/>
<path d="M72.5409 19.9948C72.9607 19.8778 73.2291 19.6782 73.174 19.341C73.0914 18.8867 72.355 18.7284 71.4191 18.6527V18.0196H70.7308V18.639H70.1527V18.0127H69.4645V18.6459H67.9366V19.0588H68.4597C68.7556 19.0588 68.852 19.1483 68.8795 19.2309V19.9535V20.9652C68.8795 21.0133 68.8107 21.0959 68.6111 21.0959H68.0812L67.9298 21.5639H69.3957V22.204H70.0839V21.6121H70.662V22.2453H71.3502V21.6121C72.5684 21.6121 73.4149 21.4194 73.5388 20.8069C73.6627 20.3045 73.2291 20.0842 72.5409 19.9948ZM70.1321 19.1207C70.5381 19.1207 71.8251 19.0588 71.8182 19.513C71.8182 19.9535 70.5312 19.8915 70.1183 19.8915L70.1321 19.1207ZM70.1321 21.1372V20.2838C70.6207 20.2838 72.1968 20.215 72.1555 20.7174C72.1142 21.2198 70.5932 21.1372 70.1045 21.1372H70.1321Z" fill="white" stroke="white" strokeWidth="0.178938" strokeMiterlimit="10"/>
<path d="M50.0497 79.4574C49.038 82.988 48.0332 84.1235 44.4957 84.619C40.176 85.0371 35.8162 84.6592 31.6328 83.5041C18.5566 79.5055 16.4919 75.39 17.1113 71.2744C17.5724 68.1361 19.1278 66.8216 21.3852 65.9544C24.6198 64.7087 30.8483 65.0597 36.9872 67.1175C47.9575 70.7995 51.5019 74.3714 50.0497 79.4574Z" fill="#1B1D1C"/>
<path d="M23.4017 74.3783C26.3069 76.3499 29.532 77.8029 32.9336 78.6728C36.3032 79.6649 39.8197 80.0631 43.3258 79.8497C46.3127 79.5744 48.1915 78.604 48.5976 77.0968C49.0036 75.5896 47.9093 73.8277 45.4524 72.059C42.5467 70.0898 39.3216 68.6391 35.9205 67.7713C32.5504 66.7812 29.0347 66.3807 25.5283 66.5876C22.5345 66.8698 20.6626 67.8333 20.2565 69.3405C19.8505 70.8477 20.9654 72.6096 23.4017 74.3783ZM35.831 68.1155C43.4703 70.2145 49.0518 74.2131 48.2741 77.0624C47.4964 79.9116 40.6555 80.5035 33.0231 78.3769C25.3907 76.2503 19.8023 72.2792 20.58 69.43C21.3577 66.5807 28.1917 66.0233 35.831 68.1155Z" fill="white" stroke="white" strokeWidth="0.178938" strokeMiterlimit="10"/>
<path d="M50.793 77.7781C51.082 75.9336 49.8226 73.807 47.2005 71.7424C43.8714 69.2973 40.1023 67.5168 36.0994 66.4981C32.1383 65.3255 27.9877 64.9305 23.8766 65.335C20.5662 65.7755 18.3708 66.9592 17.6825 68.6935L16.7328 72.1346L16.6502 72.4512C16.0583 76.1745 22.4864 80.9577 31.4333 83.4146C40.3802 85.8716 48.3567 85.0388 49.74 81.5358L50.7792 77.7574L50.793 77.7781ZM36.0099 66.8216C44.9569 69.2785 51.4193 74.3163 50.3938 78.0465C49.3684 81.7767 41.2473 82.809 32.2935 80.352C23.3397 77.8951 16.8842 72.8573 17.9097 69.0996C18.9351 65.3419 27.0562 64.3577 36.0099 66.8216ZM19.7954 74.2819L19.1072 76.8146C18.8021 76.5223 18.5149 76.2121 18.2469 75.8855L18.9351 73.3459C19.1898 73.6556 19.4788 73.9653 19.7954 74.2819ZM20.0707 74.5434C20.3873 74.8417 20.7314 75.1376 21.103 75.4312L21.2888 75.5689L20.6006 78.0809C20.1533 77.7437 19.7472 77.3927 19.3756 77.0692L20.0707 74.5434ZM21.571 75.7822C21.9885 76.0896 22.429 76.3925 22.8924 76.6907L22.2042 79.1752C21.7362 78.8861 21.2957 78.5902 20.8759 78.2942L21.571 75.7822ZM23.1883 76.8765C23.677 77.1724 24.1863 77.4684 24.7231 77.7506L24.0349 80.2213C23.498 79.9391 22.9888 79.6501 22.5001 79.361L23.1883 76.8765ZM25.0534 77.9088C25.6384 78.2048 26.2372 78.4938 26.8635 78.7691L26.1752 81.2261C25.5489 80.9508 24.9433 80.6686 24.3652 80.3727L25.0534 77.9088ZM27.1181 78.9068C27.8063 79.1958 28.4945 79.478 29.2378 79.7395L28.5496 82.1827C27.8201 81.9212 27.1181 81.6459 26.4368 81.3568L27.1181 78.9068ZM29.5475 79.8496C30.3596 80.1318 31.1855 80.3933 32.032 80.6273L31.3438 83.0705C30.4904 82.8296 29.6645 82.575 28.8593 82.2928L29.5475 79.8496ZM32.3555 80.7168C33.1882 80.9439 34.0141 81.1366 34.84 81.3018L34.1517 83.745C33.3328 83.5798 32.5069 83.3802 31.6673 83.16L32.3555 80.7168ZM35.1634 81.405C35.9205 81.5495 36.6706 81.6734 37.407 81.7698L36.7188 84.2199C35.9893 84.1235 35.2391 83.9996 34.4821 83.8482L35.1634 81.405ZM37.7374 81.8111C38.4256 81.8937 39.0794 81.9556 39.7332 81.9969L39.045 84.4607C38.3981 84.4194 37.7305 84.3506 37.056 84.268L37.7374 81.8111ZM40.0705 82.0175C40.6692 82.0175 41.2611 82.0175 41.8323 82.0175L41.1441 84.502C40.5798 84.502 39.9879 84.502 39.3891 84.4538L40.0705 82.0175ZM42.1833 82.0175C42.727 82.0175 43.2638 81.9694 43.78 81.9212L43.0918 84.4263C42.5825 84.4676 42.0457 84.4951 41.4951 84.5089L42.1833 82.0175ZM44.131 81.8799H44.4132C44.8674 81.8248 45.301 81.7491 45.707 81.6597L45.0188 84.1854C44.5302 84.2887 44.0002 84.3644 43.4496 84.4263L44.131 81.8799ZM46.0787 81.5427C46.5054 81.4394 46.9114 81.3156 47.4551 81.2261L46.7669 83.7656C46.2232 83.8551 45.8171 83.9721 45.3904 84.0753L46.0787 81.5427ZM17.0425 72.2516L17.5105 70.5448C17.5622 70.8687 17.6523 71.1852 17.7789 71.4877L17.0907 73.9447C16.9233 73.4483 16.8901 72.9164 16.9943 72.4031C17.01 72.3462 17.0307 72.291 17.0563 72.2379L17.0425 72.2516ZM17.304 74.4677L17.9922 71.9626C18.1906 72.3373 18.4209 72.6942 18.6805 73.0293L17.9922 75.5689C17.7283 75.2223 17.5022 74.8486 17.3178 74.454L17.304 74.4677ZM46.994 83.5523L47.6822 81.0127C48.0714 80.8567 48.4467 80.6679 48.804 80.4484L48.1158 82.9604C47.7623 83.1942 47.3865 83.3924 46.994 83.5523ZM49.4922 81.3018C49.3065 81.8212 48.9829 82.2804 48.5563 82.6301L49.2445 80.1662C49.5302 79.9686 49.7913 79.7376 50.0222 79.478L49.5542 81.1917C49.5357 81.2318 49.5151 81.2709 49.4922 81.3087V81.3018Z" fill="white" stroke="white" strokeWidth="0.178938" strokeMiterlimit="10"/>
<path d="M37.3657 73.704C38.054 73.704 38.5632 73.4976 38.6183 72.947C38.7009 72.1831 37.6273 71.6256 36.2095 71.1576L36.4986 70.1528L35.3768 69.8431L35.0946 70.8204L34.1999 70.5795L34.4821 69.5953L33.3672 69.2856L33.0781 70.2836L32.3899 70.0909L30.8551 69.6642L30.6624 70.3111L31.4745 70.5382C31.9288 70.6621 32.032 70.8479 32.0389 70.9856L31.7085 72.128H31.8255H31.7085L31.2474 73.7316C31.2061 73.8073 31.0891 73.9105 30.7726 73.821L29.9605 73.5939L29.5338 74.2822L30.9859 74.6882L31.7774 74.9153L31.4883 75.927L32.6032 76.2367L32.8923 75.2319L33.7801 75.4865L33.491 76.4845L34.606 76.7942L34.895 75.7825C36.7876 76.2436 38.1778 76.3537 38.6183 75.4315C38.9555 74.6744 38.3912 74.1445 37.3657 73.704ZM34.0003 71.3021C34.6266 71.4742 36.6362 71.9215 36.4298 72.6373C36.2302 73.3255 34.2825 72.6992 33.6769 72.5203L34.0003 71.3021ZM33.085 74.4817L33.4704 73.1397C34.2274 73.3462 36.6362 73.8899 36.4091 74.6813C36.182 75.4728 33.8696 74.6882 33.1125 74.4817H33.085Z" fill="white" stroke="white" strokeWidth="0.178938" strokeMiterlimit="10"/>
</svg>
