<svg width="133" height="146" viewBox="0 0 133 146" fill="none" xmlns="http://www.w3.org/2000/svg">
<path d="M17.8271 1H114.757C116.582 1 118.332 1.72509 119.623 3.01576C120.914 4.30643 121.639 6.05695 121.639 7.88224V65.6036H10.9448V7.88224C10.9448 6.05695 11.6699 4.30643 12.9606 3.01576C14.2513 1.72509 16.0018 1 17.8271 1Z" fill="#1B1D1C" stroke="white" stroke-width="1.37645" stroke-linecap="round" stroke-linejoin="round"/>
<path d="M14.6544 65.108V8.37772C14.6544 7.3081 15.0793 6.28229 15.8356 5.52596C16.5919 4.76963 17.6177 4.34473 18.6874 4.34473H113.869C114.938 4.34473 115.964 4.76963 116.72 5.52596C117.477 6.28229 117.902 7.3081 117.902 8.37772V65.108" fill="#1B1D1C"/>
<path d="M14.6544 65.108V8.37772C14.6544 7.3081 15.0793 6.28229 15.8356 5.52596C16.5919 4.76963 17.6177 4.34473 18.6874 4.34473H113.869C114.938 4.34473 115.964 4.76963 116.72 5.52596C117.477 6.28229 117.902 7.3081 117.902 8.37772V65.108" stroke="white" stroke-width="1.37645" stroke-linecap="round" stroke-linejoin="round"/>
<path d="M121.639 65.769H10.9448L1 89.905H131.584L121.639 65.769Z" fill="#1B1D1C" stroke="white" stroke-width="1.37645" stroke-linecap="round" stroke-linejoin="round"/>
<path d="M106.023 68.5972H26.5606L22.8786 77.9226H109.705L106.023 68.5972Z" fill="#1B1D1C" stroke="white" stroke-width="1.37645" stroke-linecap="round" stroke-linejoin="round"/>
<path d="M81.24 81.9009H51.3505L49.9602 89.7466H82.6233L81.24 81.9009Z" fill="#1B1D1C" stroke="white" stroke-width="1.37645" stroke-linecap="round" stroke-linejoin="round"/>
<path d="M129.519 88.1772H3.06467C1.92438 88.1772 1 89.1016 1 90.2419V93.0774C1 94.2177 1.92438 95.1421 3.06467 95.1421H129.519C130.659 95.1421 131.584 94.2177 131.584 93.0774V90.2419C131.584 89.1016 130.659 88.1772 129.519 88.1772Z" fill="#1B1D1C" stroke="white" stroke-width="1.37645" stroke-miterlimit="10"/>
<path d="M41.4469 73.7314H13.2504C11.3499 73.7314 9.80925 75.2721 9.80925 77.1726V134.378C9.80925 136.278 11.3499 137.819 13.2504 137.819H41.4469C43.3474 137.819 44.888 136.278 44.888 134.378V77.1726C44.888 75.2721 43.3474 73.7314 41.4469 73.7314Z" fill="#1B1D1C" stroke="white" stroke-width="1.37645" stroke-miterlimit="10"/>
<path d="M40.4834 76.1885H14.2139C13.4537 76.1885 12.8375 76.8047 12.8375 77.5649V132.939C12.8375 133.7 13.4537 134.316 14.2139 134.316H40.4834C41.2436 134.316 41.8599 133.7 41.8599 132.939V77.5649C41.8599 76.8047 41.2436 76.1885 40.4834 76.1885Z" stroke="white" stroke-width="0.688224" stroke-miterlimit="10"/>
<path d="M124.529 85.9199H92.4649C90.9445 85.9199 89.712 87.1524 89.712 88.6728V111.412C89.712 112.932 90.9445 114.165 92.4649 114.165H124.529C126.05 114.165 127.282 112.932 127.282 111.412V88.6728C127.282 87.1524 126.05 85.9199 124.529 85.9199Z" fill="#1B1D1C" stroke="white" stroke-width="1.37645" stroke-linecap="round" stroke-linejoin="round"/>
<path d="M114.591 95.624H127.282V104.461H114.591C113.42 104.461 112.296 103.995 111.467 103.167C110.638 102.338 110.173 101.214 110.173 100.042C110.173 98.8706 110.638 97.7467 111.467 96.9181C112.296 96.0895 113.42 95.624 114.591 95.624V95.624Z" stroke="white" stroke-width="1.37645" stroke-linecap="round" stroke-linejoin="round"/>
<path d="M114.99 102.761C116.492 102.761 117.709 101.544 117.709 100.042C117.709 98.5408 116.492 97.3237 114.99 97.3237C113.489 97.3237 112.272 98.5408 112.272 100.042C112.272 101.544 113.489 102.761 114.99 102.761Z" stroke="white" stroke-width="0.688224" stroke-linecap="round" stroke-linejoin="round"/>
<path d="M98.5557 103.828V110.324C98.5557 114.34 96.9605 118.191 94.121 121.031C91.2816 123.87 87.4304 125.465 83.4148 125.465H58.9828" stroke="#1DE9B6" stroke-width="1.37645" stroke-linecap="round" stroke-linejoin="round"/>
<path d="M62.0799 119.306L55.8927 125.493L62.0799 131.68V119.306Z" fill="#1DE9B6"/>
<path d="M98.5557 108.576C101.076 108.576 103.119 106.533 103.119 104.013C103.119 101.493 101.076 99.4502 98.5557 99.4502C96.0357 99.4502 93.9928 101.493 93.9928 104.013C93.9928 106.533 96.0357 108.576 98.5557 108.576Z" fill="#1DE9B6"/>
<path d="M41.7979 145.21C47.5754 145.21 52.2589 140.527 52.2589 134.749C52.2589 128.972 47.5754 124.288 41.7979 124.288C36.0205 124.288 31.3369 128.972 31.3369 134.749C31.3369 140.527 36.0205 145.21 41.7979 145.21Z" fill="#1DE9B6"/>
<path d="M47.3174 131.301L40.4352 138.184L36.3059 134.054" stroke="#1B1D1C" stroke-width="2.75289" stroke-linecap="round" stroke-linejoin="round"/>
<path d="M33.3534 81.4326H21.3439V93.7036H33.3534V81.4326Z" stroke="#1DE9B6" stroke-width="1.37645" stroke-linecap="round" stroke-linejoin="round"/>
<path d="M27.3521 114.619L20.7933 125.982H33.9109L27.3521 114.619Z" stroke="#1DE9B6" stroke-width="1.37645" stroke-linecap="round" stroke-linejoin="round"/>
<path d="M27.3521 110.166C30.7615 110.166 33.5255 107.402 33.5255 103.993C33.5255 100.583 30.7615 97.8193 27.3521 97.8193C23.9426 97.8193 21.1787 100.583 21.1787 103.993C21.1787 107.402 23.9426 110.166 27.3521 110.166Z" stroke="#1DE9B6" stroke-width="1.37645" stroke-linecap="round" stroke-linejoin="round"/>
<path d="M46.7531 25.3633H26.7671V45.3493H46.7531V25.3633Z" stroke="#1DE9B6" stroke-width="1.37645" stroke-linecap="round" stroke-linejoin="round"/>
<path d="M65.404 45.2666C70.8773 45.2666 75.3144 40.8296 75.3144 35.3562C75.3144 29.8828 70.8773 25.4458 65.404 25.4458C59.9306 25.4458 55.4935 29.8828 55.4935 35.3562C55.4935 40.8296 59.9306 45.2666 65.404 45.2666Z" stroke="#1DE9B6" stroke-width="1.37645" stroke-miterlimit="10"/>
<path d="M94.0478 25.3633L82.2792 45.7485H105.816L94.0478 25.3633Z" stroke="#1DE9B6" stroke-width="1.37645" stroke-linecap="round" stroke-linejoin="round"/>
</svg>
