<svg width="145" height="167" viewBox="0 0 145 167" fill="none" xmlns="http://www.w3.org/2000/svg">
<path d="M41.6052 88.9345C36.0512 57.3795 22.2042 37.0425 1 26.6641" stroke="#1DE9B6" stroke-width="1.37645" stroke-linecap="round" stroke-linejoin="round"/>
<path d="M100.008 76.6084C105.576 45.0533 119.423 24.7163 140.613 14.3379" stroke="#1DE9B6" stroke-width="1.37645" stroke-linecap="round" stroke-linejoin="round"/>
<path d="M75.6378 81.0404C73.814 39.0037 50.965 9.35504 32.8166 1" stroke="#1DE9B6" stroke-width="1.37645" stroke-linecap="round" stroke-linejoin="round"/>
<path d="M74.0343 165.658C106.597 165.658 132.994 157.828 132.994 148.17C132.994 138.512 106.597 130.682 74.0343 130.682C41.4715 130.682 15.0741 138.512 15.0741 148.17C15.0741 157.828 41.4715 165.658 74.0343 165.658Z" stroke="#1DE9B6" stroke-width="1.37645" stroke-miterlimit="10"/>
<path d="M76.7046 101.928C76.0852 102.871 75.514 103.669 74.5574 103.993C72.0522 104.853 67.1039 103.002 62.4309 100.18C58.2465 97.6471 55.1219 94.206 54.4406 91.2329C54.1859 90.1249 54.9774 89.0306 55.6243 88.0464C56.1267 87.2894 56.5121 86.5392 57.3242 86.2639C60.2354 85.266 65.5829 86.9521 69.4714 89.4986C74.3371 92.6988 77.7301 96.6974 77.6613 99.8219C77.5495 100.601 77.2176 101.331 76.7046 101.928Z" fill="#1B1D1C"/>
<path d="M64.5919 97.2549C62.3653 95.9038 60.3886 94.1786 58.7488 92.1552C57.3724 90.3727 57.0008 88.8655 57.6064 87.902C58.212 86.9385 59.7537 86.6563 61.9353 87.1036C64.4694 87.7105 66.8793 88.7514 69.0584 90.18C71.2847 91.5316 73.2594 93.2594 74.8946 95.2866C76.271 97.0622 76.6495 98.5694 76.0439 99.533C75.4383 100.496 73.8966 100.786 71.7081 100.331C69.1767 99.723 66.7692 98.6822 64.5919 97.2549ZM68.9277 90.3727C63.9587 87.2344 58.976 86.1814 57.8197 88.0121C56.6635 89.8428 59.7536 93.8895 64.702 97.0278C69.6503 100.166 74.6537 101.219 75.8099 99.3815C76.9661 97.544 73.8898 93.5248 68.9277 90.3933V90.3727Z" fill="white" stroke="white" stroke-width="0.172056" stroke-miterlimit="10"/>
<path d="M54.5851 89.478L54.4818 89.4092L54.6126 89.2027L56.0372 86.9453L56.2437 87.0761L54.7571 89.4367L54.6539 89.3679L54.5851 89.478Z" fill="white" stroke="white" stroke-width="0.172056" stroke-miterlimit="10"/>
<path d="M76.0302 103.009L75.927 102.94L75.9889 102.837L75.8857 102.768L77.3722 100.414L77.5787 100.545L76.0302 103.009Z" fill="white" stroke="white" stroke-width="0.172056" stroke-miterlimit="10"/>
<path d="M63.7522 98.5829C61.1308 96.9999 58.8406 94.9246 57.0076 92.4715C55.5004 90.3036 55.1012 88.4248 55.8927 87.1722C56.6842 85.9196 58.5424 85.4792 61.1507 85.9059C64.1547 86.4976 67.0155 87.6662 69.5746 89.347C72.1959 90.93 74.4862 93.0053 76.3192 95.4584C77.8264 97.6263 78.2256 99.5052 77.4341 100.751C76.6426 101.997 74.7776 102.451 72.1761 102.024C69.173 101.429 66.3129 100.261 63.7522 98.5829ZM69.4438 89.5741C63.6146 85.899 57.627 84.8804 56.0992 87.3098C54.5713 89.7393 58.0606 94.7014 63.883 98.3765C69.7053 102.052 75.6929 103.07 77.2276 100.641C78.7624 98.2113 75.2662 93.2217 69.4438 89.5741Z" fill="white" stroke="white" stroke-width="0.172056" stroke-miterlimit="10"/>
<path d="M62.6167 100.379C56.7461 96.663 53.1742 91.7904 54.5438 89.3128C54.5626 89.2736 54.5857 89.2367 54.6126 89.2026L54.8191 89.3334C54.7967 89.3631 54.7782 89.3954 54.764 89.4298C53.4702 91.7559 57.0558 96.5804 62.7474 100.173C68.439 103.765 74.3371 104.929 75.8856 102.761L75.9476 102.671L76.154 102.802C76.1335 102.838 76.1105 102.872 76.0852 102.905C74.4403 105.218 68.5216 104.103 62.6167 100.379Z" fill="white" stroke="white" stroke-width="0.172056" stroke-miterlimit="10"/>
<path d="M63.7156 98.4214L62.5805 100.22L62.79 100.352L63.9251 98.5536L63.7156 98.4214Z" fill="white" stroke="white" stroke-width="0.172056" stroke-miterlimit="10"/>
<path d="M61.9146 97.1909L60.7795 98.9893L60.989 99.1215L62.1241 97.3232L61.9146 97.1909Z" fill="white" stroke="white" stroke-width="0.172056" stroke-miterlimit="10"/>
<path d="M60.4093 95.9913L59.2669 97.8013L59.4764 97.9335L60.6188 96.1235L60.4093 95.9913Z" fill="white" stroke="white" stroke-width="0.172056" stroke-miterlimit="10"/>
<path d="M59.1257 94.8122L57.976 96.6338L58.1855 96.766L59.3353 94.9444L59.1257 94.8122Z" fill="white" stroke="white" stroke-width="0.172056" stroke-miterlimit="10"/>
<path d="M58.0561 93.6736L56.8953 95.5127L57.1048 95.6449L58.2657 93.8059L58.0561 93.6736Z" fill="white" stroke="white" stroke-width="0.172056" stroke-miterlimit="10"/>
<path d="M57.1493 92.5434L55.9775 94.3999L56.187 94.5321L57.3588 92.6756L57.1493 92.5434Z" fill="white" stroke="white" stroke-width="0.172056" stroke-miterlimit="10"/>
<path d="M56.3648 91.3116L55.1746 93.1973L55.3841 93.3295L56.5743 91.4439L56.3648 91.3116Z" fill="white" stroke="white" stroke-width="0.172056" stroke-miterlimit="10"/>
<path d="M55.8347 90.1829L54.6262 92.0977L54.8357 92.2299L56.0442 90.3152L55.8347 90.1829Z" fill="white" stroke="white" stroke-width="0.172056" stroke-miterlimit="10"/>
<path d="M55.5329 88.9112L54.2986 90.8667L54.5081 90.9989L55.7424 89.0435L55.5329 88.9112Z" fill="white" stroke="white" stroke-width="0.172056" stroke-miterlimit="10"/>
<path d="M65.5635 99.4937L64.4284 101.292L64.6379 101.424L65.773 99.6259L65.5635 99.4937Z" fill="white" stroke="white" stroke-width="0.172056" stroke-miterlimit="10"/>
<path d="M67.4923 99.6768L66.3615 101.49L66.5721 101.622L67.7029 99.8081L67.4923 99.6768Z" fill="white" stroke="white" stroke-width="0.172348" stroke-miterlimit="10"/>
<path d="M68.9045 100.997L67.7584 102.813L67.9679 102.945L69.114 101.129L68.9045 100.997Z" fill="white" stroke="white" stroke-width="0.172056" stroke-miterlimit="10"/>
<path d="M70.3933 101.481L69.2398 103.308L69.4494 103.44L70.6028 101.613L70.3933 101.481Z" fill="white" stroke="white" stroke-width="0.172056" stroke-miterlimit="10"/>
<path d="M71.8069 101.81L70.6424 103.655L70.8519 103.788L72.0164 101.943L71.8069 101.81Z" fill="white" stroke="white" stroke-width="0.172056" stroke-miterlimit="10"/>
<path d="M73.2568 101.991L72.074 103.865L72.2835 103.997L73.4663 102.123L73.2568 101.991Z" fill="white" stroke="white" stroke-width="0.172056" stroke-miterlimit="10"/>
<path d="M74.6614 101.281L73.476 103.182L73.6865 103.313L74.872 101.412L74.6614 101.281Z" fill="white" stroke="white" stroke-width="0.172348" stroke-miterlimit="10"/>
<path d="M75.7603 101.735L74.5517 103.65L74.7612 103.782L75.9698 101.867L75.7603 101.735Z" fill="white" stroke="white" stroke-width="0.172056" stroke-miterlimit="10"/>
<path d="M68.095 94.1923C67.861 93.9101 67.5925 93.6417 67.331 93.3801C67.1843 93.2314 67.0507 93.0702 66.9319 92.8984C66.7185 92.5749 66.9319 92.3891 67.3241 92.5268C67.4392 92.5657 67.5499 92.6164 67.6545 92.6782C68.0488 92.9132 68.408 93.2029 68.7212 93.5384C68.8726 93.7036 68.9415 93.7243 69.0722 93.6554L69.4714 93.4214C69.5609 93.3733 69.5402 93.2907 69.4714 93.1737C69.257 92.9616 69.027 92.7661 68.7832 92.5887C68.4735 92.3547 68.4735 92.3547 68.5905 92.162C68.7075 91.9693 68.7625 91.8936 68.2945 91.5976L68.0881 91.4669C67.8678 91.3361 67.8197 91.3292 67.7302 91.4669C67.6407 91.6045 67.6614 91.5839 67.6201 91.6389C67.5168 91.8041 67.5168 91.8041 67.2003 91.6802C66.4295 91.3981 65.8238 91.3981 65.5279 91.7903C65.2319 92.1826 65.4384 92.6093 65.8582 93.1668C66.1198 93.4903 66.4432 93.7862 66.7392 94.0959C66.8498 94.2098 66.9489 94.3342 67.0351 94.4675C67.276 94.8392 67.0351 95.0663 66.5809 94.9149C66.3352 94.8238 66.1035 94.6987 65.8926 94.5432C65.5608 94.2991 65.2542 94.0224 64.9773 93.7174C64.8259 93.5384 64.764 93.5178 64.6194 93.5935C64.4749 93.6692 64.3854 93.7311 64.2753 93.8068C64.1652 93.8826 64.1239 93.9514 64.3166 94.1578C64.5673 94.4296 64.8439 94.6762 65.1425 94.8942C65.3765 95.0732 65.3834 95.0869 65.2939 95.2383C65.2044 95.3898 65.2044 95.376 65.17 95.4448C65.1356 95.5136 65.17 95.6238 65.3077 95.7201L65.8238 96.0436C65.9683 96.133 66.0716 96.133 66.1198 96.0436C66.1679 95.9541 66.2436 95.8646 66.2987 95.7683C66.3537 95.6719 66.4501 95.6719 66.6222 95.7683C66.9793 95.925 67.3683 95.9958 67.7577 95.9747C68.6731 95.9059 68.8451 95.0732 68.095 94.1923Z" fill="white" stroke="white" stroke-width="0.172056" stroke-miterlimit="10"/>
<path d="M92.4925 56.9385C91.962 57.7196 91.1799 58.2953 90.2764 58.5696C87.8883 59.0514 83.5869 56.7665 79.6571 53.6282C76.1403 50.8133 73.6971 47.2896 73.4631 44.4817C73.3668 43.4425 74.2202 42.534 74.929 41.7288C75.4727 41.1025 75.9201 40.4624 76.6909 40.311C79.4438 39.7536 84.165 41.9215 87.4065 44.7294C91.467 48.2394 94.0616 52.2999 93.6487 55.1354C93.4432 55.8344 93.042 56.4601 92.4925 56.9385Z" fill="#1B1D1C"/>
<path d="M82.0039 51.4259C80.1148 49.9248 78.4989 48.1087 77.2277 46.0578C76.2022 44.2684 76.0026 42.8369 76.6771 42.0248C77.3515 41.2127 78.7899 41.1301 80.7445 41.7908C85.2443 43.5853 89.0738 46.7364 91.701 50.8065C92.7265 52.5959 92.9261 54.0343 92.2585 54.8464C91.5909 55.6585 90.1387 55.7411 88.1842 55.0735C85.9286 54.2244 83.8374 52.9903 82.0039 51.4259ZM86.7802 45.6242C82.582 42.1831 78.1292 40.6139 76.8491 42.1831C75.569 43.7522 77.9503 47.8059 82.1485 51.2608C86.3466 54.7156 90.8063 56.2641 92.0795 54.7019C93.3527 53.1396 90.9784 49.0791 86.7802 45.6242Z" fill="white" stroke="white" stroke-width="0.172056" stroke-miterlimit="10"/>
<path d="M73.7178 43.1195L73.6283 43.0438L73.7728 42.8717L75.342 40.9653L75.514 41.1099L73.8761 43.0988L73.7866 43.03L73.7178 43.1195Z" fill="white" stroke="white" stroke-width="0.172056" stroke-miterlimit="10"/>
<path d="M91.8455 58.033L91.756 57.9573L91.8248 57.8747L91.7354 57.799L93.3802 55.8101L93.5523 55.9546L91.8455 58.033Z" fill="white" stroke="white" stroke-width="0.172056" stroke-miterlimit="10"/>
<path d="M81.0817 52.5479C78.8509 50.7895 76.9813 48.616 75.5759 46.1474C74.4472 43.9864 74.2958 42.2108 75.163 41.1578C76.0302 40.1048 77.7989 39.9053 80.1457 40.6004C85.5188 42.5151 90.054 46.2469 92.9674 51.1508C94.1029 53.3187 94.2474 55.0943 93.3803 56.1473C92.5131 57.2003 90.7444 57.3999 88.4044 56.7048C85.7178 55.8054 83.231 54.3938 81.0817 52.5479ZM87.3514 44.9293C82.4238 40.8756 77.0281 39.2514 75.3557 41.3023C73.6833 43.3533 76.2986 48.3222 81.2262 52.369C86.1539 56.4157 91.5496 58.0537 93.2151 56.0028C94.8806 53.9519 92.2722 48.9829 87.3514 44.9293Z" fill="white" stroke="white" stroke-width="0.172056" stroke-miterlimit="10"/>
<path d="M79.8291 54.069C74.8395 49.9396 72.1485 45.0808 73.697 42.9611L73.7727 42.8716L73.9448 43.0161L73.8829 43.0987C72.4238 45.0877 75.1629 49.9259 79.9736 53.89C84.7843 57.8542 90.0699 59.6023 91.7423 57.7923L91.8111 57.7166L91.9831 57.8611L91.9074 57.9506C90.1249 59.8776 84.8187 58.1708 79.8291 54.069Z" fill="white" stroke="white" stroke-width="0.172056" stroke-miterlimit="10"/>
<path d="M81.0647 52.3776L79.814 53.8975L79.9894 54.0418L81.2401 52.5219L81.0647 52.3776Z" fill="white" stroke="white" stroke-width="0.172056" stroke-miterlimit="10"/>
<path d="M79.5534 51.0465L78.3027 52.5664L78.4781 52.7107L79.7288 51.1908L79.5534 51.0465Z" fill="white" stroke="white" stroke-width="0.172056" stroke-miterlimit="10"/>
<path d="M78.3086 49.7678L77.0492 51.2983L77.2246 51.4426L78.484 49.9121L78.3086 49.7678Z" fill="white" stroke="white" stroke-width="0.172056" stroke-miterlimit="10"/>
<path d="M77.2599 48.5394L75.9917 50.0806L76.1671 50.2249L77.4352 48.6837L77.2599 48.5394Z" fill="white" stroke="white" stroke-width="0.172056" stroke-miterlimit="10"/>
<path d="M76.4099 47.3764L75.1329 48.9282L75.3083 49.0725L76.5852 47.5207L76.4099 47.3764Z" fill="white" stroke="white" stroke-width="0.172056" stroke-miterlimit="10"/>
<path d="M75.7166 46.2253L74.4222 47.7983L74.5975 47.9426L75.892 46.3696L75.7166 46.2253Z" fill="white" stroke="white" stroke-width="0.172056" stroke-miterlimit="10"/>
<path d="M75.135 45.0117L73.8231 46.606L73.9985 46.7503L75.3104 45.156L75.135 45.0117Z" fill="white" stroke="white" stroke-width="0.172056" stroke-miterlimit="10"/>
<path d="M74.7831 43.907L73.4493 45.5278L73.6247 45.6721L74.9585 44.0513L74.7831 43.907Z" fill="white" stroke="white" stroke-width="0.172056" stroke-miterlimit="10"/>
<path d="M74.6478 42.7008L73.2878 44.3535L73.4632 44.4978L74.8232 42.8451L74.6478 42.7008Z" fill="white" stroke="white" stroke-width="0.172056" stroke-miterlimit="10"/>
<path d="M82.6339 53.59L81.3832 55.1099L81.5586 55.2542L82.8093 53.7343L82.6339 53.59Z" fill="white" stroke="white" stroke-width="0.172056" stroke-miterlimit="10"/>
<path d="M84.1338 54.5705L82.8787 56.0957L83.0541 56.24L84.3091 54.7148L84.1338 54.5705Z" fill="white" stroke="white" stroke-width="0.172056" stroke-miterlimit="10"/>
<path d="M85.5338 55.3519L84.27 56.8877L84.4454 57.032L85.7092 55.4962L85.5338 55.3519Z" fill="white" stroke="white" stroke-width="0.172056" stroke-miterlimit="10"/>
<path d="M86.8429 55.9682L85.5704 57.5146L85.7457 57.659L87.0183 56.1125L86.8429 55.9682Z" fill="white" stroke="white" stroke-width="0.172056" stroke-miterlimit="10"/>
<path d="M88.1038 56.4342L86.8181 57.9966L86.9935 58.1409L88.2791 56.5785L88.1038 56.4342Z" fill="white" stroke="white" stroke-width="0.172056" stroke-miterlimit="10"/>
<path d="M89.4121 56.7762L88.1089 58.3599L88.2843 58.5042L89.5875 56.9205L89.4121 56.7762Z" fill="white" stroke="white" stroke-width="0.172056" stroke-miterlimit="10"/>
<path d="M90.5455 56.915L89.2292 58.5146L89.4046 58.659L90.7209 57.0594L90.5455 56.915Z" fill="white" stroke="white" stroke-width="0.172056" stroke-miterlimit="10"/>
<path d="M91.741 56.8249L90.4072 58.4458L90.5826 58.5901L91.9164 56.9692L91.741 56.8249Z" fill="white" stroke="white" stroke-width="0.172056" stroke-miterlimit="10"/>
<path d="M85.5414 49.031C85.3487 48.7282 85.1216 48.4323 84.9014 48.1363C84.7716 47.9763 84.6586 47.8033 84.5642 47.6202C84.399 47.2829 84.6123 47.1246 84.9909 47.3036C85.0998 47.3543 85.2016 47.4191 85.2937 47.4963C85.6551 47.7784 85.9728 48.1123 86.2365 48.4873C86.3604 48.6732 86.4292 48.7007 86.5669 48.6456C86.7045 48.5906 86.8422 48.5286 86.9798 48.4667C87.1175 48.4047 87.0693 48.3428 86.9798 48.2189C86.8109 47.9873 86.622 47.7708 86.4155 47.572C86.1402 47.2967 86.1402 47.2967 86.2847 47.1246C86.4292 46.9526 86.4774 46.8838 86.0576 46.5397L85.8718 46.3882C85.6722 46.23 85.624 46.2231 85.5277 46.3263C85.4804 46.3759 85.4367 46.4288 85.3969 46.4846C85.273 46.6291 85.273 46.6291 84.9771 46.4846C84.2889 46.113 83.6901 46.0373 83.3322 46.3882C82.9744 46.7392 83.1395 47.1797 83.4836 47.7647C83.697 48.1088 83.9792 48.4529 84.2338 48.7833C84.3286 48.9083 84.4116 49.042 84.4816 49.1824C84.6674 49.5747 84.4127 49.7743 83.9792 49.5678C83.7413 49.4508 83.5231 49.2976 83.3322 49.1136C83.0352 48.8364 82.7698 48.5271 82.5408 48.1914C82.41 47.9987 82.3481 47.9712 82.2035 48.0331L81.8388 48.1914C81.6736 48.2671 81.6736 48.3153 81.8388 48.5424C82.0456 48.8357 82.2758 49.1119 82.527 49.3683C82.7335 49.5747 82.7335 49.5816 82.6302 49.7193L82.4788 49.9051C82.4238 49.9808 82.4444 50.0771 82.5821 50.1941L83.0501 50.5795C83.1785 50.6851 83.2749 50.6988 83.3391 50.6208C83.4079 50.5382 83.4836 50.4556 83.5456 50.3731C83.6075 50.2905 83.7108 50.2905 83.869 50.3731C84.1909 50.573 84.5527 50.6999 84.9289 50.7447C85.8924 50.7791 86.1677 49.9877 85.5414 49.031Z" fill="white" stroke="white" stroke-width="0.172056" stroke-miterlimit="10"/>
<path d="M101.233 8.35694C101.784 8.89639 102.133 9.6079 102.224 10.3734C102.272 12.3693 99.8083 15.5007 96.7182 18.2054C93.9653 20.6348 90.7582 22.087 88.4595 21.8943C87.6061 21.8255 87.0005 21.0065 86.443 20.3114C85.9659 19.8897 85.6497 19.3158 85.5483 18.6872C85.5001 16.3679 87.9296 12.9061 90.648 10.7038C94.0892 7.95089 97.7023 6.44368 99.9253 7.18696C100.465 7.44307 100.919 7.8493 101.233 8.35694Z" fill="#1B1D1C"/>
<path d="M89.9804 18.997C91.8293 18.2969 93.5465 17.2894 95.0595 16.0169C96.6201 14.7999 97.9628 13.3268 99.0306 11.6605C99.8908 10.2083 100.077 9.05212 99.5467 8.39831C99.0168 7.7445 97.8399 7.71009 96.2433 8.22625C94.393 8.92763 92.6737 9.935 91.1573 11.2063C89.6004 12.4253 88.2603 13.8981 87.1931 15.5627C86.3328 17.0149 86.147 18.1711 86.6769 18.8249C87.2069 19.4787 88.4044 19.5407 89.9804 18.997ZM91.2743 11.3233C94.7154 8.51531 98.3905 7.24209 99.4022 8.49466C100.414 9.74723 98.418 13.0438 94.9494 15.8587C91.4807 18.6735 87.8332 19.9398 86.8215 18.6873C85.8098 17.4347 87.8056 14.1587 91.2743 11.3233Z" fill="white" stroke="white" stroke-width="0.172056" stroke-miterlimit="10"/>
<path d="M100.565 7.59989C99.8358 6.91167 98.4594 6.7809 96.6631 7.3246C94.4593 8.06615 92.4143 9.21472 90.6343 10.7107C88.8023 12.1428 87.2547 13.9051 86.0713 15.9068C85.1766 17.5516 84.9908 18.9212 85.5414 19.7815L86.7871 21.3162L86.9041 21.4538C88.3769 22.906 92.6576 21.4951 96.7181 18.1985C100.779 14.9019 103.043 11.0135 101.928 9.25163L100.552 7.57924L100.565 7.59989ZM90.7512 10.8552C94.8187 7.5586 99.2164 6.21656 100.552 7.8683C101.887 9.52003 99.6775 13.5461 95.6101 16.8152C91.5427 20.0843 87.145 21.4538 85.8029 19.8021C84.4609 18.1504 86.6838 14.1518 90.7512 10.8552ZM88.7416 20.6073L89.6501 21.7291C89.4225 21.7733 89.1928 21.8055 88.9619 21.8255L88.0534 20.7037C88.2843 20.6837 88.5141 20.6515 88.7416 20.6073ZM88.955 20.566C89.189 20.5178 89.4367 20.449 89.6914 20.3733L89.8153 20.332L90.7168 21.447C90.4209 21.5433 90.1318 21.6259 89.8566 21.6878L88.955 20.566ZM90.008 20.277C90.2833 20.1806 90.5654 20.0774 90.8545 19.9604L91.7492 21.0615C91.4601 21.1854 91.1779 21.2887 90.9095 21.385L90.008 20.277ZM91.0334 19.8847C91.3294 19.7608 91.6322 19.6163 91.935 19.4649L92.8159 20.5591C92.5131 20.7106 92.2172 20.8551 91.9212 20.9858L91.0334 19.8847ZM92.107 19.3754C92.4305 19.2102 92.7953 19.0244 93.0912 18.8317L93.9721 19.9191C93.6418 20.1118 93.2839 20.2976 92.988 20.4697L92.107 19.3754ZM93.2495 18.7354C93.6074 18.5151 93.9653 18.2857 94.3231 18.0471L95.2041 19.1276C94.8462 19.38 94.4883 19.6094 94.1304 19.8159L93.2495 18.7354ZM94.4814 17.9232C94.8737 17.648 95.266 17.352 95.6514 17.0423L96.5254 18.1228C96.14 18.4394 95.7478 18.7285 95.3555 19.0106L94.4814 17.9232ZM95.7959 16.9253C96.1745 16.6156 96.5323 16.299 96.8833 15.9825L97.7574 17.063C97.4132 17.3795 97.0691 17.6961 96.67 18.0058L95.7959 16.9253ZM97.021 15.8517C97.3375 15.5558 97.6404 15.2529 97.9225 14.9501L98.8035 16.0306C98.5144 16.3335 98.2116 16.6363 97.895 16.9322L97.021 15.8517ZM98.0533 14.8125C98.3148 14.5303 98.5626 14.2412 98.7966 13.9591L99.6775 15.0534C99.4435 15.3286 99.1958 15.6108 98.9342 15.893L98.0533 14.8125ZM98.9136 13.8146C99.1269 13.5461 99.3265 13.2846 99.5123 13.0231L100.4 14.1174C100.212 14.3789 100.012 14.6404 99.8014 14.9019L98.9136 13.8146ZM99.6018 12.8579C99.7739 12.6033 99.939 12.3555 100.084 12.1009L100.985 13.2089C100.834 13.4567 100.675 13.7044 100.496 13.9591L99.6018 12.8579ZM100.187 11.9288L100.262 11.7912C100.386 11.5664 100.496 11.3369 100.593 11.1029L101.501 12.2179C101.379 12.4892 101.241 12.7535 101.088 13.0093L100.187 11.9288ZM100.675 10.9378C100.772 10.7038 100.854 10.4835 100.992 10.2083L101.921 11.3232C101.783 11.5985 101.701 11.8187 101.605 12.0114L100.675 10.9378ZM86.911 21.2061L86.2984 20.449C86.4631 20.5281 86.6363 20.5881 86.8146 20.628L87.7162 21.7154C87.4377 21.6335 87.1859 21.4791 86.9867 21.268L86.911 21.2061ZM87.9984 21.7911L87.0968 20.683C87.3257 20.7034 87.556 20.7034 87.785 20.683L88.7003 21.8117C88.4685 21.8255 88.2359 21.8186 88.0052 21.7911H87.9984ZM101.9 11.1718L100.992 10.0431C101.049 9.81717 101.088 9.58703 101.109 9.35486L102.011 10.4629C101.998 10.7018 101.963 10.9391 101.907 11.1718H101.9ZM101.715 9.31357C101.888 9.56346 101.988 9.85656 102.004 10.1601L101.123 9.07269C101.118 8.87598 101.095 8.68013 101.054 8.4877L101.666 9.24475L101.715 9.31357Z" fill="white" stroke="white" stroke-width="0.172056" stroke-miterlimit="10"/>
<path d="M94.2956 12.4247C94.5228 12.1012 94.5985 11.8122 94.3645 11.6126C94.1305 11.413 93.4491 11.6126 92.7678 12.1425L92.4099 11.6883L91.9006 12.1012L92.2447 12.5348L91.8456 12.8651L91.4946 12.4247L90.9853 12.8376L91.3432 13.285L91.0197 13.5465L90.3315 14.1108L90.5655 14.4068L90.9302 14.1039C91.1367 13.9388 91.2537 13.9525 91.3225 13.9938L91.7286 14.5031C91.7443 14.4862 91.763 14.4722 91.7836 14.4618L91.7286 14.5031L92.2929 15.2258C92.2929 15.267 92.2929 15.3496 92.1759 15.4666L91.8043 15.7626L91.9626 16.1755L92.6508 15.6387L93.0155 15.3496L93.3803 15.8039L93.8827 15.3978L93.5317 14.9436L93.9378 14.6201L94.2888 15.0675L94.798 14.6614L94.4402 14.2072C95.2729 13.519 95.7822 12.8927 95.5138 12.404C95.2454 11.9154 94.8325 12.0943 94.2956 12.4247ZM92.1071 13.1817C92.3962 12.9477 93.2633 12.1769 93.518 12.4935C93.7588 12.8032 92.8297 13.4983 92.5407 13.7254L92.1071 13.1817ZM93.222 14.6064L92.7471 14.0007C93.0913 13.7254 94.1236 12.8032 94.4126 13.1542C94.7017 13.5052 93.5799 14.3311 93.222 14.6064Z" fill="white" stroke="white" stroke-width="0.172056" stroke-miterlimit="10"/>
<path d="M80.8339 66.4844C81.358 67.2637 81.6007 68.1983 81.5222 69.1341C81.0886 71.5222 77.3928 74.6399 73.0295 77.1519C69.1341 79.3748 65.0048 80.3383 62.2519 79.5538C61.2471 79.2578 60.7172 78.136 60.1872 77.1725C59.8018 76.4361 59.3751 75.7961 59.499 75.0115C60.0083 72.2586 63.7453 68.6798 67.5375 66.7115C72.2862 64.2477 77.0074 63.3392 79.4781 64.7638C80.0903 65.1906 80.5622 65.7894 80.8339 66.4844Z" fill="#1B1D1C"/>
<path d="M65.1218 76.436C67.4873 76.0408 69.7667 75.2399 71.8595 74.0685C73.9931 72.9749 75.9193 71.5169 77.5511 69.7603C78.9275 68.2118 79.3749 66.856 78.8794 65.9337C78.3838 65.0115 76.9867 64.6468 74.9565 64.9152C70.2177 65.7931 65.8706 68.1266 62.5203 71.5909C61.1438 73.1394 60.7034 74.4952 61.1989 75.4175C61.6944 76.3397 63.0846 76.7044 65.1218 76.436ZM68.322 67.4891C73.0914 64.9358 77.7369 64.282 78.6798 66.0439C79.6226 67.8057 76.5187 71.3157 71.7494 73.8758C66.98 76.436 62.3413 77.083 61.426 75.3211C60.5107 73.5593 63.5595 70.0424 68.322 67.4822V67.4891Z" fill="white" stroke="white" stroke-width="0.172056" stroke-miterlimit="10"/>
<path d="M80.2696 65.2184C79.547 64.1723 77.9228 63.7112 75.6517 63.9245C70.0383 64.7485 64.8907 67.5122 61.1026 71.7358C59.6711 73.5115 59.1549 75.115 59.6298 76.2988L60.7929 78.4598L60.903 78.6594C62.3552 80.7791 67.7853 80.1184 73.3736 77.1246C78.962 74.1309 82.5064 69.9671 81.5497 67.579L80.2834 65.2115L80.2696 65.2184ZM67.799 66.76C73.3874 63.7593 78.9551 63.2088 80.187 65.5418C81.419 67.8749 77.909 72.2038 72.3207 75.177C66.7323 78.1501 61.1714 78.7213 59.9326 76.3882C58.6938 74.0552 62.2519 69.7538 67.799 66.76ZM63.2912 78.0813L64.1446 79.6642C63.8547 79.6609 63.5653 79.6425 63.2774 79.6091L62.4309 78.0193C62.7164 78.055 63.0035 78.0756 63.2912 78.0813ZM63.5527 78.0813C63.8486 78.0813 64.1583 78.0813 64.4818 78.0331H64.6401L65.4797 79.6022C65.1212 79.6468 64.7605 79.6721 64.3992 79.678L63.5527 78.0813ZM64.881 77.9849C65.232 77.9436 65.5692 77.8886 65.9615 77.8129L66.7942 79.3683C66.4295 79.444 66.0647 79.5059 65.7206 79.5541L64.881 77.9849ZM66.1955 77.7647C66.5809 77.6821 66.9663 77.5926 67.3654 77.4825L68.1913 79.0173C67.7921 79.1343 67.4067 79.2306 67.0282 79.3132L66.1955 77.7647ZM67.5719 77.4137C67.9986 77.2898 68.4322 77.1522 68.8727 76.9939L69.6916 78.5217C69.2581 78.68 68.8245 78.8246 68.3978 78.9553L67.5719 77.4137ZM69.086 76.9113C69.5609 76.7392 70.0426 76.5396 70.5244 76.3263L71.3434 77.8542C70.8616 78.0675 70.3799 78.2671 69.9119 78.446L69.086 76.9113ZM70.7309 76.2231C71.2677 75.9822 71.7976 75.7207 72.3275 75.4385L73.1465 76.9663C72.6097 77.2485 72.0798 77.51 71.5498 77.7509L70.7309 76.2231ZM72.5753 75.3284C73.0915 75.0462 73.5939 74.7503 74.0825 74.4475L74.9015 75.9684C74.4197 76.2712 73.9173 76.5672 73.3943 76.8494L72.5753 75.3284ZM74.2752 74.3236C74.7157 74.0414 75.1493 73.7523 75.5553 73.4495L76.3812 74.9843C75.9682 75.2733 75.5415 75.5693 75.0942 75.8514L74.2752 74.3236ZM75.7411 73.3188C76.1128 73.0366 76.4706 72.7544 76.8148 72.4654L77.6406 74.007C77.2965 74.2892 76.9524 74.5713 76.5601 74.8466L75.7411 73.3188ZM76.9868 72.3208C77.3034 72.0524 77.5993 71.7771 77.8746 71.5019L78.7074 73.0572C78.4252 73.3256 78.1293 73.5941 77.8196 73.8556L76.9868 72.3208ZM78.0467 71.3367C78.3082 71.0752 78.556 70.8067 78.79 70.5383L79.6296 72.1006C79.3956 72.3621 79.1478 72.6237 78.8794 72.8921L78.0467 71.3367ZM78.9414 70.3525L79.0652 70.2011C79.2648 69.9602 79.4438 69.7194 79.6021 69.5129L80.4486 71.0889C80.2559 71.3711 80.0288 71.6533 79.7604 71.9423L78.9414 70.3525ZM79.7466 69.2651C79.9118 69.0105 80.0563 68.7627 80.2834 68.4599L81.1299 70.0428C80.9097 70.3456 80.7583 70.5934 80.5931 70.848L79.7466 69.2651ZM60.9787 78.3634L60.4075 77.2967C60.5869 77.4306 60.7808 77.5437 60.9856 77.6339L61.8046 79.1687C61.4923 79.0073 61.2251 78.7708 61.0269 78.4804C61.0131 78.4185 60.9925 78.391 60.9787 78.3634ZM62.1487 79.3338L61.3091 77.7716C61.5822 77.8654 61.8632 77.9345 62.1487 77.978L63.0021 79.5678C62.7108 79.5172 62.4251 79.4388 62.1487 79.3338ZM81.1162 69.8708L80.2628 68.2878C80.3802 68.0251 80.4768 67.7536 80.5518 67.4757L81.3983 69.0449C81.328 69.3277 81.2336 69.604 81.1162 69.8708ZM81.2951 67.579C81.4464 67.9226 81.5011 68.3009 81.4534 68.6733L80.6275 67.1385C80.6711 66.9119 80.6872 66.6808 80.6757 66.4503L81.2469 67.517C81.2469 67.517 81.2744 67.5446 81.2951 67.579Z" fill="white" stroke="white" stroke-width="0.172056" stroke-miterlimit="10"/>
<path d="M71.715 69.5267C72.0591 69.1963 72.2105 68.8384 71.9765 68.5563C71.6599 68.1433 70.8616 68.3704 69.9118 68.8109L69.5815 68.1777L68.8933 68.5494L69.2167 69.1619L68.6593 69.4647L68.3358 68.8453L67.6476 69.217L67.9779 69.8501L67.5306 70.0841L66.5671 70.6003L66.7804 71.0063L67.2897 70.7379C67.5719 70.5865 67.7095 70.6278 67.7784 70.6966L68.1569 71.3849H68.2326L68.1569 71.4262L68.6799 72.431C68.6799 72.486 68.6799 72.5961 68.4872 72.6994L67.9779 72.9678L68.0812 73.5046L68.9896 73.0159L69.4852 72.7544L69.8224 73.3945L70.5106 73.0228L70.1803 72.3897L70.7377 72.1006L71.0681 72.7269L71.7563 72.3553L71.4191 71.7152C72.5753 71.027 73.3117 70.4558 73.0983 69.7951C72.9607 69.2582 72.4239 69.2582 71.715 69.5267ZM68.9621 69.9052C69.3544 69.6987 70.5519 68.9692 70.7928 69.4234C71.0199 69.857 69.7536 70.4695 69.3613 70.676L68.9621 69.9052ZM70.0013 71.9079L69.5609 71.0614C70.0357 70.8136 71.481 69.9465 71.7356 70.4489C71.9903 70.9513 70.4487 71.6601 69.9738 71.8873L70.0013 71.9079Z" fill="white" stroke="white" stroke-width="0.172056" stroke-miterlimit="10"/>
<path d="M51.2403 42.0183C51.2369 42.6202 51.0281 43.2029 50.6484 43.67C49.5748 44.7712 46.5191 45.1084 43.3533 44.8675C40.5178 44.6335 37.992 43.67 36.8564 42.2936C36.4366 41.7843 36.5536 41.0066 36.6362 40.3252C36.6128 39.8327 36.7585 39.3471 37.0491 38.9488C38.3017 37.6687 41.5226 37.1319 44.2067 37.4416C47.5721 37.8339 50.4007 39.0245 51.1577 40.6487C51.3202 41.087 51.349 41.5636 51.2403 42.0183Z" fill="#1B1D1C"/>
<path d="M39.458 41.667C40.837 42.3009 42.3158 42.6898 43.8282 42.8164C45.3335 42.9966 46.8586 42.9151 48.3361 42.5755C49.5955 42.2451 50.325 41.6946 50.4007 41.0339C50.4764 40.3732 49.8639 39.6574 48.7008 39.1137C47.3297 38.486 45.8606 38.0995 44.3581 37.9713C42.8507 37.7873 41.3227 37.8688 39.8434 38.2122C38.5839 38.5425 37.8544 39.0862 37.7787 39.7469C37.703 40.4076 38.2949 41.0889 39.458 41.667ZM44.2755 38.1089C47.7167 38.4599 50.3525 39.7675 50.2218 41.0201C50.091 42.2727 47.2211 43.0228 43.8144 42.6718C40.4077 42.3209 37.7443 41.0201 37.8682 39.7607C37.9921 38.5012 40.917 37.7648 44.3031 38.1089H44.2755Z" fill="white" stroke="white" stroke-width="0.172056" stroke-miterlimit="10"/>
<path d="M51.3711 41.1581C51.3711 40.3529 50.6829 39.5339 49.4097 38.8457C47.8167 38.0387 46.0826 37.5479 44.303 37.4004C42.5306 37.1859 40.7333 37.3168 39.0106 37.7858C37.6342 38.2056 36.7945 38.8663 36.6225 39.6509L36.4642 41.1994V41.337C36.4642 42.9681 39.5543 44.5442 43.546 44.9571C47.5377 45.37 50.8618 44.434 51.2403 42.8442L51.4124 41.1581H51.3711ZM44.2893 37.5449C48.281 37.951 51.3917 39.6096 51.2266 41.3026C51.0614 42.9956 47.6685 43.9867 43.6561 43.5806C39.6438 43.1746 36.5468 41.516 36.7188 39.8229C36.8909 38.1299 40.2976 37.1389 44.2893 37.5449ZM37.9094 41.8876L37.7993 43.0163C37.6481 42.9128 37.5033 42.8002 37.3657 42.6791L37.4759 41.5504C37.6066 41.6605 37.7512 41.7775 37.9094 41.8876ZM38.0471 41.9771C38.2054 42.0803 38.3706 42.1835 38.5495 42.2799L38.639 42.3281L38.5288 43.4499C38.3155 43.3398 38.1159 43.2228 37.9301 43.1058L38.0471 41.9771ZM38.7766 42.4038L39.4029 42.6928L39.2928 43.8009C39.0725 43.7114 38.8592 43.615 38.6665 43.5187L38.7766 42.4038ZM39.5474 42.7479C39.7745 42.8442 40.0154 42.9337 40.2356 43.0163L40.1186 44.1106C39.8709 44.0349 39.63 43.9454 39.4304 43.8559L39.5474 42.7479ZM40.4008 43.0576C40.6692 43.1471 40.9445 43.2228 41.2336 43.2985L41.1166 44.3927C40.8344 44.317 40.5522 44.2413 40.2907 44.1587L40.4008 43.0576ZM41.3712 43.3329C41.6809 43.4086 42.0044 43.4774 42.3347 43.5325L42.2246 44.6267C41.8943 44.5648 41.5708 44.5029 41.2611 44.4272L41.3712 43.3329ZM42.4724 43.56C42.8371 43.6219 43.2088 43.677 43.5873 43.7114L43.4772 44.8057C43.0986 44.7644 42.727 44.7093 42.3622 44.6474L42.4724 43.56ZM43.7318 43.732C44.1035 43.732 44.4682 43.7871 44.833 43.8009L44.7229 44.8951C44.3581 44.8951 43.9933 44.8538 43.6217 44.8194L43.7318 43.732ZM44.9775 43.8078C45.3078 43.8078 45.6657 43.8078 45.9617 43.8078L45.8447 44.902C45.5281 44.902 45.1977 44.902 44.8674 44.902L44.9775 43.8078ZM46.1062 43.8078C46.3952 43.8078 46.6843 43.8078 46.9665 43.7458L46.8563 44.847C46.5742 44.847 46.2851 44.8951 45.9892 44.902L46.1062 43.8078ZM47.111 43.7183C47.3725 43.7183 47.6203 43.6495 47.868 43.6013L47.751 44.7093L47.0009 44.8194L47.111 43.7183ZM48.0126 43.5738C48.2466 43.5325 48.4668 43.4774 48.7008 43.4223L48.5838 44.5373C48.3704 44.5923 48.1502 44.6405 47.8956 44.6818L48.0126 43.5738ZM48.8316 43.3742H48.9554C49.1352 43.3216 49.3121 43.2596 49.4854 43.1883L49.3752 44.317C49.1688 44.3927 48.9554 44.4684 48.687 44.5304L48.8316 43.3742ZM49.6368 43.092C49.8157 43.0163 49.9809 42.9406 50.2011 42.858L50.091 43.9936C49.8639 44.0693 49.6987 44.1519 49.5267 44.2207L49.6368 43.092ZM36.5605 41.2131L36.6431 40.4492C36.6871 40.5844 36.7471 40.7138 36.822 40.8346L36.7119 41.9289C36.6029 41.7288 36.5506 41.5027 36.5605 41.2751V41.2131ZM36.8358 42.1354L36.9459 41.0204C37.0561 41.1657 37.1781 41.3015 37.3107 41.4265L37.1937 42.5621C37.0728 42.4302 36.9645 42.2874 36.8702 42.1354H36.8358ZM50.1323 43.8972L50.2493 42.7617C50.4034 42.6667 50.5506 42.5609 50.6898 42.4451L50.5728 43.56C50.4494 43.6861 50.3133 43.7991 50.1667 43.8972H50.1323ZM51.0407 42.7548C50.9987 42.9893 50.8941 43.208 50.7379 43.3879L50.848 42.2868C50.9557 42.1806 51.0483 42.0602 51.1233 41.9289L51.0476 42.6928C51.0476 42.6928 51.0752 42.7341 51.0752 42.7548H51.0407Z" fill="#1B1D1C" stroke="white" stroke-width="0.172056" stroke-miterlimit="10"/>
<path d="M45.3629 40.3801C45.6588 40.3319 45.8515 40.208 45.8378 39.9671C45.824 39.7263 45.3216 39.4785 44.6816 39.3821L44.7366 38.9279L44.2342 38.8522L44.186 39.2858L43.7869 39.2445L43.8419 38.8109L43.3395 38.7559L43.2914 39.2032H42.9748L42.2865 39.1344L42.2521 39.4234C42.2521 39.4234 42.6238 39.4234 42.6169 39.4647C42.8165 39.4647 42.8784 39.5542 42.8922 39.6161L42.8302 40.1254L42.7477 40.8136C42.7477 40.8136 42.6926 40.8962 42.555 40.8825H42.1902L42.0526 41.1991L42.6995 41.261L43.0574 41.3023L42.9817 41.7428L43.4772 41.7978L43.5253 41.3436L43.9245 41.3918L43.8695 41.8391L44.3719 41.8873L44.42 41.4399C45.2597 41.5019 45.8584 41.4399 45.9823 41.0201C46.1062 40.6003 45.8309 40.4971 45.3629 40.3801ZM43.7662 39.5955C44.0484 39.6299 44.9362 39.6712 44.8949 39.9947C44.8949 40.3044 43.9865 40.1736 43.7043 40.1392L43.7662 39.5955ZM43.6011 41.0201L43.6699 40.4145C44.0071 40.4558 45.0463 40.5108 45.0463 40.8618C45.0463 41.2128 43.9383 41.0545 43.6011 41.0201Z" fill="white" stroke="white" stroke-width="0.172056" stroke-miterlimit="10"/>
<path d="M97.1655 101.054C96.104 101.33 94.9911 101.342 93.924 101.089C90.944 100.118 89.2372 96.4981 88.4801 92.1898C87.7919 88.3702 88.4388 84.7226 90.4209 82.596C91.1573 81.8045 92.4236 81.5361 93.6969 81.3159C94.5655 81.0538 95.4859 81.0136 96.374 81.1989C99.2646 82.2106 101.68 86.1266 102.32 89.7604C103.119 94.3164 102.203 98.5146 99.5674 100.325C98.825 100.729 98.0075 100.977 97.1655 101.054Z" fill="#1B1D1C"/>
<path d="M101.185 96.3535C101.707 94.3204 101.789 92.1993 101.426 90.1318C101.062 88.0644 100.262 86.0982 99.0787 84.3647C97.9432 82.8781 96.6424 82.183 95.4105 82.4032C94.1786 82.6235 93.1876 83.7177 92.6232 85.5002C92.101 87.5323 92.0187 89.6524 92.3819 91.7187C92.7451 93.7851 93.5453 95.7501 94.7292 97.4822C95.8647 98.9688 97.1724 99.6639 98.4043 99.4505C99.6362 99.2372 100.62 98.1292 101.185 96.3535ZM92.6507 91.6736C91.8386 87.0763 93.0981 83.002 95.4449 82.5959C97.7918 82.1899 100.352 85.5828 101.164 90.1664C101.976 94.75 100.717 98.8311 98.3699 99.2441C96.023 99.657 93.456 96.2641 92.6507 91.6736Z" fill="white" stroke="white" stroke-width="0.172056" stroke-miterlimit="10"/>
<path d="M98.6177 100.868C100.077 100.49 101.281 99.2301 102.011 97.2617C102.743 94.8949 102.901 92.388 102.472 89.9479C102.044 87.5079 101.041 85.2048 99.5468 83.2289C98.1704 81.6253 96.6287 80.8476 95.1284 80.9921L92.2448 81.5014L91.9832 81.5496C89.0239 82.3204 87.4478 87.0554 88.3907 92.4304C89.3336 97.8054 92.4306 101.728 95.4794 101.439L98.6246 100.889L98.6177 100.868ZM91.0472 82.1828C91.3793 81.9488 91.7531 81.7806 92.1484 81.6872H92.2723L93.69 81.4326C93.4782 81.5551 93.2758 81.6931 93.0844 81.8455L91.0472 82.1828ZM90.0975 83.105C90.2742 82.8546 90.4772 82.6239 90.7031 82.4168L92.7678 82.0451C92.5477 82.2579 92.3452 82.488 92.1622 82.7333L90.0975 83.105ZM89.4987 84.0547C89.6244 83.8169 89.7646 83.587 89.9186 83.3665L92.0452 82.9949C91.8843 83.2136 91.7394 83.4436 91.6116 83.6831L89.4987 84.0547ZM89.017 85.2041C89.124 84.8869 89.2504 84.5766 89.3955 84.275L91.4946 83.9033C91.3663 84.1633 91.2514 84.4298 91.1505 84.7017C91.1505 84.7498 91.1505 84.7911 91.1023 84.8393L89.017 85.2041ZM88.7004 86.3672C88.7667 86.0465 88.8494 85.7295 88.9482 85.4174L91.0128 85.0526C90.9165 85.3555 90.827 85.6721 90.7513 86.0024L88.7004 86.3672ZM88.487 87.6197C88.5283 87.2618 88.5903 86.9315 88.6591 86.5736L90.7238 86.2089C90.655 86.553 90.593 86.8971 90.5448 87.2618L88.487 87.6197ZM88.3976 88.9962C88.3976 88.5901 88.3976 88.1909 88.4664 87.8055L90.5311 87.4477C90.4898 87.8331 90.4623 88.2322 90.4485 88.6383L88.3976 88.9962ZM88.3976 90.5378C88.3655 90.079 88.3517 89.6316 88.3563 89.1958L90.421 88.8379C90.421 89.2783 90.421 89.7257 90.4554 90.2143L88.3976 90.5378ZM88.604 92.2584C88.5146 91.7422 88.4526 91.2329 88.4113 90.7374L90.476 90.3795C90.5173 90.8819 90.5724 91.3912 90.6618 91.9005L88.604 92.2584ZM88.9688 93.917C88.8403 93.4582 88.7302 92.9695 88.6385 92.4511L90.7031 92.0932C90.7926 92.5956 90.9096 93.0842 91.0404 93.5591L88.9688 93.917ZM89.4368 95.3829C89.2854 94.97 89.1477 94.5501 89.017 94.1097L91.0817 93.7518C91.2055 94.1854 91.3501 94.6121 91.5015 95.025L89.4368 95.3829ZM89.9805 96.663C89.8153 96.3189 89.657 95.9748 89.5125 95.5687L91.5772 95.2108C91.7286 95.5894 91.8869 95.9541 92.0589 96.3051L89.9805 96.663ZM90.5793 97.7779C90.4003 97.482 90.2283 97.1792 90.0631 96.8488L92.1278 96.4909C92.2929 96.8144 92.465 97.1172 92.6508 97.42L90.5793 97.7779ZM91.2675 98.7689C91.0748 98.5143 90.889 98.2459 90.71 97.9568L92.7747 97.599C92.9605 97.8811 93.1463 98.1427 93.3459 98.4042L91.2675 98.7689ZM92.0727 99.6912C91.8276 99.456 91.5977 99.2054 91.3845 98.941L93.4491 98.5762C93.4836 98.6175 93.518 98.6726 93.5593 98.7139C93.7451 98.9341 93.9309 99.1337 94.1236 99.3264L92.0727 99.6912ZM92.8779 100.379C92.6558 100.216 92.4443 100.039 92.2448 99.8495L94.3507 99.4778C94.5698 99.6675 94.7996 99.8444 95.0389 100.008L92.8779 100.379ZM90.9371 91.9349C89.9874 86.5461 91.7423 81.7216 94.8462 81.1779C97.9501 80.6343 101.247 84.5709 102.196 89.9597C103.146 95.3485 101.384 100.173 98.2805 100.717C95.1766 101.26 91.8938 97.3512 90.9509 91.9693L90.9371 91.9349ZM93.9103 100.992C93.6363 100.876 93.3737 100.736 93.1257 100.572L95.2316 100.2C95.4757 100.363 95.7337 100.503 96.0024 100.62L93.9103 100.992ZM95.6927 101.212H95.5758C95.151 101.263 94.7203 101.228 94.3094 101.109L96.3741 100.744C96.6213 100.836 96.8773 100.903 97.138 100.944L95.6927 101.212Z" fill="white" stroke="white" stroke-width="0.172056" stroke-miterlimit="10"/>
<path d="M97.3926 93.9928L99.5124 90.4691L96.319 87.8745L95.913 91.0954L97.3926 93.9928Z" fill="white"/>
<path d="M95.6102 91.1506L96.0162 87.9297L94.3026 91.3846L97.0898 94.048L95.6102 91.1506Z" fill="white"/>
<path d="M40.7449 60.0634C41.3923 60.6649 41.8815 61.4165 42.1695 62.2519C42.7958 64.6814 41.0959 67.393 38.5151 69.7605C36.2302 71.8664 33.491 73.0089 31.2061 72.5959C30.3527 72.4376 29.6301 71.7012 28.9281 70.9373C28.3699 70.4516 27.9457 69.8308 27.6962 69.1342C27.1319 66.746 28.7285 63.4288 30.9102 61.4261C33.6631 58.9278 36.8633 57.7303 39.1689 58.6732C39.7901 59.0149 40.3283 59.4896 40.7449 60.0634Z" fill="#1B1D1C"/>
<path d="M35.8379 59.3751C34.242 59.9016 32.7765 60.7619 31.5388 61.8987C30.3011 63.0355 29.3197 64.4228 28.6598 65.9683C28.1505 67.3448 28.2468 68.5561 28.9213 69.2925C29.5957 70.0289 30.7657 70.2216 32.211 69.8361C33.8226 69.3456 35.2961 68.4827 36.5124 67.3173C37.7763 66.2024 38.7615 64.8071 39.3892 63.243C39.8985 61.8665 39.809 60.6552 39.1345 59.9188C38.4601 59.1824 37.2832 58.9897 35.8379 59.3751ZM36.3679 67.159C33.615 69.6847 30.3253 70.6001 29.0383 69.2236C27.7513 67.8472 28.9351 64.6194 31.6879 62.0936C34.4408 59.5678 37.7237 58.6525 39.0175 60.029C40.3114 61.4054 39.1208 64.6332 36.3679 67.159Z" fill="white" stroke="white" stroke-width="0.172056" stroke-miterlimit="10"/>
<path d="M39.9948 59.1621C39.107 58.3431 37.7443 58.0747 36.0994 58.4325C34.1868 58.9588 32.427 59.9331 30.9657 61.2747C29.5044 62.6163 28.3836 64.2867 27.6962 66.1475C27.2007 67.7511 27.3452 69.1344 28.0954 70.091L29.6852 71.8185L29.8297 71.9768C31.6191 73.6423 35.4938 72.665 38.7147 69.7056C41.9356 66.7463 43.2432 62.9679 41.736 61.0409L40.0085 59.1552L39.9948 59.1621ZM30.6556 72.3278C30.3546 72.2064 30.0809 72.0262 29.8504 71.7978C29.8257 71.7767 29.8027 71.7536 29.7815 71.729L28.997 70.8756C29.1699 70.9717 29.352 71.0501 29.5407 71.1096L30.6556 72.3278ZM31.6879 72.5755C31.4556 72.5523 31.2255 72.5108 30.9997 72.4517L29.8297 71.1991C30.0547 71.2618 30.2852 71.3033 30.5179 71.323L31.6879 72.5755ZM32.5895 72.5755C32.3603 72.5899 32.1304 72.5899 31.9013 72.5755L30.7313 71.3092C30.9605 71.3233 31.1903 71.3233 31.4195 71.3092L32.5895 72.5755ZM33.5736 72.4035C33.3135 72.4698 33.049 72.518 32.7822 72.548L31.626 71.2954C31.8573 71.2687 32.087 71.2297 32.3142 71.1784H32.4243L33.5736 72.4035ZM34.489 72.1144C34.2412 72.2108 33.9866 72.2934 33.7457 72.3622L32.5964 71.1096C32.8441 71.0408 33.0988 70.9651 33.3534 70.8756L34.489 72.1144ZM35.4318 71.7153C35.1703 71.846 34.9088 71.9561 34.6473 72.0594L33.5117 70.8206C33.7801 70.7242 34.0416 70.6141 34.3032 70.4902L35.4318 71.7153ZM36.4091 71.1784C36.1338 71.3436 35.8517 71.5019 35.5764 71.6464L34.4477 70.4145C34.7354 70.2756 35.0157 70.1217 35.2873 69.9534L36.4091 71.1784ZM37.4346 70.4902C37.1386 70.7104 36.8427 70.91 36.5468 71.0958L35.4112 69.8639C35.714 69.6781 36.01 69.4785 36.3059 69.2652L37.4346 70.4902ZM38.5082 69.6093C38.1985 69.8915 37.8819 70.1461 37.5585 70.3939L36.4435 69.1757C36.767 68.9279 37.0836 68.6733 37.3864 68.3911L38.5082 69.6093ZM39.4648 68.6458C39.2033 68.9348 38.9211 69.2239 38.6183 69.5061L37.4759 68.281C37.7787 68.0057 38.054 67.7167 38.3224 67.4207L39.4648 68.6458ZM40.2288 67.6891C40.0154 67.9713 39.7883 68.2466 39.5405 68.5219L38.4187 67.3037C38.6596 67.0284 38.8867 66.7532 39.107 66.471L40.2288 67.6891ZM40.917 66.7669C40.7518 67.0353 40.5729 67.2969 40.3802 67.5584L39.2584 66.3402C39.4442 66.0718 39.6231 65.8103 39.7883 65.5419L40.917 66.7669ZM41.4056 65.886C41.2817 66.1338 41.151 66.3815 40.9996 66.6293L39.8709 65.4042C40.0154 65.1565 40.1531 64.9018 40.2701 64.6472L41.4056 65.886ZM41.7566 65.0051C41.6672 65.2391 41.5639 65.4799 41.4538 65.6933L40.3114 64.4545C40.4236 64.2147 40.5224 63.9688 40.6073 63.7181L41.7566 65.0051ZM42.0319 64.0622C41.9751 64.3251 41.9039 64.5848 41.8186 64.8399L40.6692 63.6286C40.6692 63.5804 40.6692 63.5392 40.7174 63.4979C40.7858 63.2719 40.841 63.0421 40.8826 62.8096L42.0319 64.0622ZM42.1627 63.2157C42.1465 63.4467 42.1167 63.6765 42.0732 63.9039L40.917 62.6169C40.9558 62.3892 40.9811 62.1594 40.9927 61.9287L42.1627 63.2157ZM37.3038 68.1709C34.076 71.1303 30.0637 72.025 28.3569 70.1667C26.6501 68.3085 27.882 64.3857 31.1098 61.4263C34.3376 58.4669 38.3499 57.5654 40.0567 59.4236C41.7635 61.2818 40.5316 65.2115 37.3038 68.1778V68.1709ZM42.1214 62.2728C42.1594 62.5002 42.1778 62.7305 42.1764 62.961L41.0202 61.6947C41.0211 61.4644 41.005 61.2344 40.972 61.0065L42.1214 62.2728ZM41.4951 60.979C41.5197 61.0001 41.5427 61.0231 41.5639 61.0478C41.782 61.3128 41.9436 61.6196 42.0388 61.9494L40.917 60.7312C40.8715 60.5261 40.807 60.3256 40.7243 60.1324L41.4951 60.979Z" fill="white" stroke="white" stroke-width="0.172056" stroke-miterlimit="10"/>
<path d="M35.8861 62.9399L32.5963 63.0363L32.2247 66.3054L34.5715 65.1904L35.8861 62.9399Z" fill="white"/>
<path d="M34.7367 65.3833L32.3899 66.4982L35.4593 66.1679L36.0512 63.1328L34.7367 65.3833Z" fill="white"/>
<path d="M103.091 40.4699C102.336 40.9162 101.483 41.1691 100.607 41.2063C98.1014 41.11 95.9886 38.7012 94.4607 35.5491C93.0843 32.7549 92.7952 29.8093 93.8482 27.7378C94.2474 26.967 95.1627 26.4852 96.0918 26.031C96.7119 25.633 97.4217 25.3964 98.1565 25.3428C100.607 25.4942 103.325 27.9787 104.612 30.6421C106.229 33.9731 106.443 37.4073 104.832 39.3688C104.336 39.8542 103.742 40.2295 103.091 40.4699Z" fill="#1B1D1C"/>
<path d="M105.156 35.9685C105.147 34.2926 104.744 32.6422 103.979 31.1509C103.277 29.621 102.226 28.2774 100.909 27.2281C99.7119 26.3334 98.5488 26.0787 97.6473 26.5398C96.7457 27.001 96.2295 28.0402 96.1882 29.5336C96.1964 31.2097 96.5996 32.8602 97.3651 34.3512C98.067 35.8811 99.1184 37.2248 100.435 38.2741C101.632 39.1688 102.795 39.4234 103.69 38.9623C104.585 38.5012 105.114 37.4757 105.156 35.9685ZM97.5853 34.2342C95.9542 30.8757 96.0299 27.4621 97.7436 26.6637C99.4573 25.8654 102.169 27.8406 103.786 31.2198C105.404 34.5989 105.342 37.9919 103.628 38.8246C101.914 39.6574 99.1889 37.5996 97.5578 34.2342H97.5853Z" fill="white" stroke="white" stroke-width="0.172056" stroke-miterlimit="10"/>
<path d="M104.172 40.0086C105.211 39.3961 105.858 38.1642 105.989 36.4849C106.078 34.4982 105.649 32.5223 104.743 30.752C103.915 28.9457 102.632 27.3853 101.02 26.2235C99.6431 25.2875 98.2666 25.026 97.1242 25.4664L95.0045 26.4644L94.8118 26.5607C92.6989 27.7995 92.52 31.7912 94.4332 35.7278C96.3465 39.6645 99.5811 41.9976 101.859 41.1098L104.165 39.9948L104.172 40.0086ZM94.2405 27.2833C94.4444 27.0274 94.697 26.8145 94.9838 26.6571L95.0733 26.6158L96.1125 26.1065C95.9737 26.2469 95.8471 26.3989 95.734 26.5607L94.2405 27.2833ZM93.7106 28.1987C93.8003 27.9767 93.9085 27.7626 94.0341 27.5586L95.5688 26.8154C95.4455 27.0195 95.3396 27.2336 95.2522 27.4554L93.7106 28.1987ZM93.4628 29.059C93.5024 28.8419 93.5576 28.628 93.628 28.4189L95.1834 27.6619C95.1116 27.8763 95.0518 28.0946 95.0045 28.3157L93.4628 29.059ZM93.339 30.0569C93.3536 29.787 93.3835 29.5182 93.4284 29.2517L94.9632 28.529C94.9219 28.7493 94.8943 28.9764 94.8737 29.2173C94.877 29.2562 94.877 29.2953 94.8737 29.3343L93.339 30.0569ZM93.339 31.0135C93.339 30.7451 93.339 30.4836 93.339 30.2289L94.8737 29.4925C94.8599 29.7562 94.8599 30.0204 94.8737 30.284L93.339 31.0135ZM93.4491 32.0321C93.4009 31.743 93.3734 31.4609 93.3527 31.1856L94.8599 30.4561C94.8599 30.7313 94.9081 31.0135 94.9494 31.3026L93.4491 32.0321ZM93.6831 33.1264C93.6074 32.8098 93.5317 32.5001 93.4766 32.1904L94.9838 31.4609C95.032 31.7706 95.1008 32.0871 95.1765 32.3968L93.6831 33.1264ZM94.0478 34.3032C93.9239 33.9591 93.8207 33.615 93.7244 33.2778L95.2178 32.5896C95.3073 32.9337 95.4174 33.2778 95.5413 33.615L94.0478 34.3032ZM94.5846 35.5833C94.4057 35.2048 94.2474 34.8263 94.1098 34.4546L95.5963 33.7664C95.734 34.1449 95.8923 34.5235 96.0712 34.8951L94.5846 35.5833ZM95.2316 36.7808C95.032 36.4436 94.8324 36.0926 94.6535 35.721L96.14 35.0327C96.319 35.3975 96.5185 35.721 96.725 36.0857L95.2316 36.7808ZM95.9198 37.8063C95.7064 37.5241 95.5069 37.2282 95.3142 36.9185L96.8007 36.2303C96.9934 36.54 97.1999 36.8359 97.4064 37.1181L95.9198 37.8063ZM96.608 38.6734C96.396 38.4384 96.1962 38.1926 96.0093 37.937L97.4958 37.2144C97.6954 37.4691 97.9019 37.7168 98.1083 37.9508L96.608 38.6734ZM97.2962 39.403C97.0898 39.2103 96.8902 39.0176 96.6906 38.7973L98.1978 38.0678C98.3905 38.2812 98.597 38.4807 98.8035 38.6734L97.2962 39.403ZM98.0258 40.0155C97.8142 39.86 97.612 39.6923 97.4201 39.5131L98.9342 38.7836C99.1338 38.9625 99.3403 39.1208 99.5536 39.2791L98.0258 40.0155ZM98.8447 40.5523C98.6077 40.4227 98.378 40.2803 98.1565 40.1256L99.6844 39.3823L99.8014 39.4649C99.9856 39.5896 100.176 39.7045 100.373 39.809L98.8447 40.5523ZM99.6156 40.9171C99.411 40.8391 99.2111 40.7495 99.0168 40.6487L100.558 39.8985C100.757 39.9989 100.961 40.0862 101.171 40.16L99.6156 40.9171ZM96.2708 34.84C94.3644 30.8965 94.6535 26.7947 96.9246 25.6936C99.1957 24.5924 102.602 26.9048 104.495 30.8483C106.388 34.7919 106.112 38.8937 103.807 39.9948C101.501 41.096 98.2253 38.7836 96.3121 34.84H96.2708ZM100.538 41.1373C100.305 41.1045 100.075 41.0539 99.8496 40.9859L101.419 40.2288C101.644 40.2996 101.874 40.3526 102.107 40.3871L100.538 41.1373ZM101.956 40.9102L101.866 40.9515C101.551 41.0851 101.211 41.1508 100.868 41.1442L102.368 40.4559C102.579 40.4767 102.791 40.4767 103.002 40.4559L101.956 40.9102Z" fill="white" stroke="white" stroke-width="0.172056" stroke-miterlimit="10"/>
<path d="M101.721 34.9847L102.575 31.8051L99.5536 30.5044L99.9459 33.0784L101.721 34.9847Z" fill="white"/>
<path d="M99.7257 33.1882L99.3335 30.6143L98.7691 33.6493L101.501 35.0877L99.7257 33.1882Z" fill="white"/>
<path d="M143.875 80.0905C143.977 79.9889 144.058 79.8682 144.113 79.7353C144.168 79.6025 144.196 79.4601 144.196 79.3163C144.196 79.1724 144.168 79.03 144.113 78.8972C144.058 78.7643 143.977 78.6436 143.875 78.542L143.462 78.0809C143.361 77.9791 143.24 77.8984 143.107 77.8433C142.974 77.7883 142.832 77.7599 142.688 77.7599C142.544 77.7599 142.402 77.7883 142.269 77.8433C142.136 77.8984 142.015 77.9791 141.914 78.0809L110.868 97.5783H110.744H36.65C36.4629 97.5789 36.2762 97.5973 36.0926 97.6333L10.2773 71.8181C10.1757 71.7163 10.055 71.6356 9.92211 71.5805C9.78926 71.5254 9.64685 71.4971 9.50303 71.4971C9.35922 71.4971 9.21681 71.5254 9.08396 71.5805C8.95111 71.6356 8.83041 71.7163 8.72878 71.8181L8.28144 72.2654C8.17968 72.367 8.09895 72.4877 8.04388 72.6206C7.9888 72.7534 7.96045 72.8958 7.96045 73.0397C7.96045 73.1835 7.9888 73.3259 8.04388 73.4587C8.09895 73.5916 8.17968 73.7123 8.28144 73.8139L34.0348 99.5535C33.9529 99.8048 33.9089 100.067 33.904 100.331V147.764C33.904 148.494 34.194 149.194 34.7103 149.71C35.2266 150.226 35.9268 150.516 36.6569 150.516H110.717C111.447 150.516 112.147 150.226 112.663 149.71C113.18 149.194 113.47 148.494 113.47 147.764V100.317C113.469 99.9321 113.385 99.5516 113.222 99.2025L143.875 80.0905Z" fill="#1B1D1C" stroke="white" stroke-width="1.37645" stroke-linecap="round" stroke-linejoin="round"/>
<path d="M74.0136 112.843L77.5029 119.904L85.2936 121.04L79.657 126.532L80.9853 134.295L74.0136 130.627L67.0488 134.295L68.3771 126.532L62.7405 121.04L70.5312 119.904L74.0136 112.843Z" stroke="#32C7AD" stroke-width="1.37645" stroke-miterlimit="10"/>
</svg>
