<svg width="84" height="166" viewBox="0 0 84 166" fill="none" xmlns="http://www.w3.org/2000/svg">
<path d="M28.449 54.1995C33.005 53.4425 38.4145 51.3434 43.6931 48.2877C48.9718 45.232 53.4866 41.5844 56.4046 38.0194C59.3227 34.4544 60.3619 31.2266 59.1575 29.162C57.9531 27.0973 54.7391 26.3609 50.1074 27.0973C45.4756 27.8337 40.1419 29.9534 34.8632 33.0023C29.5846 36.0511 25.0767 39.7331 22.1449 43.305C19.213 46.8768 18.1945 50.0909 19.392 52.1693C20.5895 54.2477 23.8104 54.9635 28.449 54.1995ZM35.1248 33.484C45.8404 27.29 56.4184 25.4593 58.7102 29.4166C61.002 33.3739 54.1473 41.6395 43.4316 47.8404C32.716 54.0413 22.138 55.8651 19.8462 51.9078C17.5544 47.9505 24.3885 39.6849 35.1248 33.484Z" fill="white"/>
<path d="M62.2958 27.4209C60.5615 25.0809 56.79 24.1518 51.6352 24.7988C46.1914 25.487 39.7909 27.8338 33.6107 31.4057C27.4304 34.9776 22.2137 39.3616 18.8827 43.7387C15.7306 47.9093 14.6708 51.6257 15.8407 54.296L18.6556 59.1618L18.9171 59.6022C22.4064 64.3441 34.7875 62.4377 47.3407 55.1701C59.8939 47.9024 67.7466 38.109 65.3653 32.7271L62.2958 27.4209ZM33.8722 31.8599C46.4392 24.5854 59.13 22.913 62.1582 28.1642C65.1864 33.4153 57.4232 43.5735 44.8631 50.848C32.303 58.1226 19.6053 59.7949 16.5771 54.5438C13.5489 49.2926 21.3052 39.1276 33.8722 31.8599ZM24.3885 58.1019L26.4531 61.6531C25.7941 61.675 25.1343 61.6543 24.4779 61.5912L22.4133 58.0331C23.07 58.0913 23.7293 58.1143 24.3885 58.1019ZM24.9803 58.1019C25.6686 58.1019 26.3568 58.0193 27.107 57.923L27.4648 57.8748L29.5295 61.3985C28.6692 61.5293 27.8434 61.6118 27.0588 61.6531L24.9803 58.1019ZM28.0223 57.7922C28.8206 57.6683 29.6396 57.51 30.4793 57.3173L32.4889 60.8204C31.6561 61.02 30.8371 61.192 30.0457 61.3228L28.0223 57.7922ZM31.0023 57.1866C31.8741 56.9709 32.7619 56.7232 33.6657 56.4433L35.6685 59.8844C34.7669 60.1803 33.886 60.435 33.0257 60.6552L31.0023 57.1866ZM34.1681 56.285C35.1385 55.9684 36.1227 55.5968 37.1137 55.2182L39.1027 58.6594C38.1117 59.0585 37.1275 59.4233 36.1709 59.7399L34.1681 56.285ZM37.6092 55.0255C38.6875 54.5667 39.7703 54.085 40.8577 53.5803L42.8466 57.0214C41.7524 57.5444 40.6718 58.0331 39.6051 58.4735L37.6092 55.0255ZM41.3257 53.3532C42.5232 52.7682 43.7276 52.1281 44.9182 51.4468L46.9003 54.8879C45.7028 55.5669 44.5075 56.2047 43.3146 56.8012L41.3257 53.3532ZM45.3449 51.1853C46.5149 50.5062 47.6436 49.7996 48.7309 49.0655L50.713 52.5066C49.6325 53.2018 48.4763 53.9382 47.327 54.6264L45.3449 51.1853ZM49.1645 48.7489C50.1602 48.0699 51.1168 47.3817 52.0344 46.6843L54.0303 50.1254C53.1149 50.8136 52.1514 51.5018 51.1535 52.1901L49.1645 48.7489ZM52.4473 46.3677C53.2939 45.6795 54.0716 44.9912 54.8355 44.303L56.8382 47.7441C56.0766 48.437 55.276 49.1252 54.4363 49.8088L52.4473 46.3677ZM55.2002 43.9933C55.8885 43.3602 56.5767 42.7132 57.1686 42.0663L59.1851 45.5487C58.5657 46.1888 57.905 46.8219 57.203 47.4551L55.2002 43.9933ZM57.5402 41.674C58.1252 41.0477 58.6758 40.4146 59.1851 39.7883L61.2497 43.2982C60.7404 43.9176 60.1899 44.537 59.598 45.1633L57.5402 41.674ZM59.5292 39.3409C59.6186 39.2308 59.715 39.1138 59.7976 38.9968C60.2312 38.4256 60.6235 37.8612 60.9744 37.3107L63.0391 40.8619C62.6124 41.5157 62.1238 42.1902 61.5801 42.8715L59.5292 39.3409ZM61.2841 36.8083C61.642 36.2164 61.9724 35.6314 62.4472 34.9225L64.5119 38.4875C64.0164 39.1758 63.6998 39.7745 63.3419 40.3664L61.2841 36.8083ZM19.1029 58.914L17.7265 56.519C18.1578 56.8127 18.6192 57.0596 19.1029 57.2554L21.0988 60.6965C20.3616 60.3334 19.7309 59.7857 19.2681 59.1067L19.1029 58.914ZM21.8558 61.0475L19.7911 57.5307C20.4228 57.7262 21.0697 57.869 21.725 57.9574L23.7897 61.5224C23.133 61.4297 22.4873 61.2706 21.8627 61.0475H21.8558ZM64.567 38.0058L62.5023 34.4408C62.7522 33.8451 62.9547 33.2307 63.1079 32.6032L65.1726 36.1269C65.0321 36.7713 64.8292 37.4006 64.567 38.0058ZM64.801 32.7409C65.1743 33.5201 65.3312 34.3853 65.2552 35.246L63.2525 31.8049C63.3332 31.2581 63.3494 30.7037 63.3006 30.1531L64.6771 32.555L64.801 32.7409Z" fill="white"/>
<path d="M43.0256 37.9025C43.7895 37.1248 44.1061 36.3472 43.5555 35.6727C42.7985 34.7505 40.9953 35.3286 38.9169 36.3609L38.1529 34.9707L36.5838 35.8723L37.3615 37.2487C36.9417 37.4827 36.5287 37.7305 36.1158 37.9369L35.3243 36.5605L33.7552 37.4621L34.5604 38.8798C34.2232 39.0794 33.8722 39.279 33.5625 39.4648L31.3946 40.7105L31.9176 41.6327C31.9176 41.6327 33.067 40.9445 33.0601 40.9789C33.6933 40.6141 34.0167 40.6967 34.175 40.8413L35.0835 42.4586L35.2555 42.3691L35.0904 42.4655L36.3704 44.7366C36.3704 44.8605 36.3704 45.1014 35.9369 45.3629L34.7944 46.0511L35.0697 47.2624L37.1344 46.0924L38.2562 45.4523L39.0683 46.8907L40.6374 45.9892L39.8322 44.5645L41.0917 43.8763L41.89 45.2528L43.4592 44.3512L42.592 42.9266C45.1866 41.3299 46.8246 39.8984 46.2878 38.4049C45.8542 37.1937 44.636 37.2418 43.0256 37.9025ZM36.687 38.983C37.5748 38.4738 40.2727 36.7257 40.8164 37.7442C41.367 38.7215 38.5177 40.2012 37.6299 40.7105L36.687 38.983ZM39.2266 43.4909L38.1529 41.5845C39.2128 40.972 42.4543 38.8936 43.0875 40.0085C43.7207 41.1234 40.2864 42.8784 39.2266 43.4909Z" fill="white"/>
<path d="M40.0593 132.396C34.1406 130.909 28.8619 128.39 25.1868 125.293C21.5117 122.196 19.798 118.734 20.5551 115.713C21.3121 112.692 24.3678 110.469 29.1579 109.457C33.9479 108.445 39.7083 108.728 45.6202 110.207C51.532 111.687 56.8176 114.213 60.4927 117.31C64.1678 120.407 65.8746 123.868 65.1175 126.89C64.3605 129.911 61.3048 132.134 56.5216 133.153C51.7385 134.171 45.9712 133.862 40.0593 132.396ZM45.455 110.861C33.4455 107.854 22.5027 110.083 21.0575 115.837C19.6122 121.59 28.2081 128.714 40.2176 131.707C52.2271 134.701 63.1699 132.485 64.6151 126.732C66.0604 120.978 57.4645 113.862 45.455 110.847V110.861Z" fill="white"/>
<path d="M15.2557 121.996L15.0011 121.935L15.1456 121.322L16.8249 114.612L17.3273 114.743L15.5723 121.749L15.3246 121.687L15.2557 121.996Z" fill="white"/>
<path d="M67.0859 134.997L66.8312 134.935L66.9069 134.619L66.6592 134.557L68.4141 127.558L68.9165 127.681L67.0859 134.997Z" fill="white"/>
<path d="M39.2679 135.534C32.3443 133.8 26.1916 130.765 21.9177 126.987C17.6439 123.208 15.7237 119.01 16.6528 115.287C17.5819 111.563 21.1951 108.797 26.811 107.462C32.4269 106.126 39.199 106.374 46.1363 108.15C53.0736 109.925 59.2126 112.919 63.4865 116.691C67.7603 120.462 69.6805 124.674 68.7514 128.39C67.8223 132.107 64.2091 134.88 58.5932 136.216C52.9773 137.551 46.1914 137.269 39.2679 135.534ZM45.9849 108.742C31.897 105.211 18.9722 108.212 17.1621 115.424C15.3521 122.637 25.3382 131.384 39.4193 134.915C53.5003 138.445 66.4321 135.452 68.2421 128.239C70.0521 121.026 60.066 112.279 45.9849 108.742Z" fill="white"/>
<path d="M37.9258 140.875C23.6521 137.296 13.6178 128.845 15.0768 121.639C15.0768 121.536 15.1181 121.425 15.1456 121.322L15.648 121.446L15.5861 121.728C14.2096 128.494 24.3128 136.8 38.0772 140.255C51.8417 143.71 64.6702 141.143 66.6592 134.543C66.6592 134.447 66.7142 134.35 66.7349 134.261L67.2373 134.385C67.2373 134.495 67.1822 134.598 67.1478 134.701C65.035 141.742 52.1927 144.453 37.9258 140.875Z" fill="white"/>
<path d="M39.0898 135.16L37.7504 140.5L38.2511 140.626L39.5905 135.285L39.0898 135.16Z" fill="white"/>
<path d="M34.7024 133.842L33.3596 139.196L33.8603 139.321L35.2031 133.968L34.7024 133.842Z" fill="white"/>
<path d="M30.8998 132.34L29.552 137.713L30.0526 137.839L31.4004 132.465L30.8998 132.34Z" fill="white"/>
<path d="M27.597 130.686L26.2392 136.1L26.7399 136.226L28.0977 130.812L27.597 130.686Z" fill="white"/>
<path d="M24.7533 128.922L23.382 134.389L23.8827 134.515L25.2539 129.048L24.7533 128.922Z" fill="white"/>
<path d="M22.2524 127.021L20.8661 132.548L21.3668 132.673L22.7531 127.146L22.2524 127.021Z" fill="white"/>
<path d="M19.9454 124.795L18.539 130.403L19.0397 130.528L20.4461 124.921L19.9454 124.795Z" fill="white"/>
<path d="M18.2347 122.561L16.8066 128.255L17.3072 128.381L18.7354 122.687L18.2347 122.561Z" fill="white"/>
<path d="M16.8851 119.789L15.4284 125.597L15.9291 125.722L17.3857 119.915L16.8851 119.789Z" fill="white"/>
<path d="M43.5116 136.062L42.1705 141.409L42.6712 141.535L44.0123 136.188L43.5116 136.062Z" fill="white"/>
<path d="M47.5751 136.542L46.2306 141.903L46.7313 142.028L48.0757 136.668L47.5751 136.542Z" fill="white"/>
<path d="M51.2578 136.642L49.9049 142.036L50.4056 142.162L51.7584 136.768L51.2578 136.642Z" fill="white"/>
<path d="M54.5922 136.438L53.2277 141.879L53.7283 142.004L55.0929 136.564L54.5922 136.438Z" fill="white"/>
<path d="M57.6907 135.952L56.3144 141.439L56.8151 141.565L58.1914 136.077L57.6907 135.952Z" fill="white"/>
<path d="M60.7866 135.085L59.3919 140.646L59.8926 140.772L61.2873 135.211L60.7866 135.085Z" fill="white"/>
<path d="M63.3404 133.951L61.929 139.578L62.4296 139.704L63.841 134.076L63.3404 133.951Z" fill="white"/>
<path d="M65.8272 132.181L64.399 137.875L64.8997 138.001L66.3278 132.307L65.8272 132.181Z" fill="white"/>
<path d="M50.8576 123.187L44.4089 115.018L34.8701 119.147L42.3167 123.352L50.8576 123.187Z" fill="white"/>
<path d="M42.1378 124.082L34.6912 119.877L41.3738 127.124L50.6855 123.889L42.1378 124.082Z" fill="white"/>
<path d="M41.9244 82.7061C51.2095 82.7067 60.2183 85.8649 67.4713 91.662C74.7243 97.4591 79.7902 105.551 81.8369 114.607C83.8837 123.664 82.7897 133.147 78.7345 141.5C74.6793 149.853 67.9041 156.578 59.5216 160.572C51.1392 164.565 41.6479 165.589 32.6066 163.475C23.5653 161.362 15.5115 156.236 9.76811 148.941C4.02471 141.645 0.933111 132.613 1.0011 123.328C1.06908 114.043 4.29261 105.058 10.1422 97.847" stroke="#1DE9B6" stroke-width="1.37645" stroke-miterlimit="10"/>
<path d="M3.34259 95.2589L13.5489 93.7861L15.0217 103.986L3.34259 95.2589Z" fill="#1DE9B6"/>
<path d="M41.9245 82.8436C32.6394 82.843 23.6306 79.6848 16.3776 73.8877C9.12459 68.0905 4.05871 59.9991 2.01194 50.9425C-0.034825 41.8858 1.05923 32.4023 5.11441 24.0496C9.16959 15.6968 15.9448 8.97149 24.3272 4.97812C32.7097 0.984744 42.201 -0.0392302 51.2423 2.07438C60.2836 4.18798 68.3374 9.3135 74.0808 16.6091C79.8242 23.9047 82.9158 32.9366 82.8478 42.2215C82.7798 51.5063 79.5563 60.492 73.7066 67.7027" stroke="#1DE9B6" stroke-width="1.37645" stroke-miterlimit="10"/>
<path d="M80.5062 70.2628L70.3068 71.7356L68.8271 61.5361L80.5062 70.2628Z" fill="#1DE9B6"/>
<path d="M65.1038 113.277C60.9744 118.149 57.5333 119.175 55.4686 117.406C52.7158 115.004 54.4501 110.524 57.5884 107.083C61.8072 102.485 64.5876 101.639 66.8519 103.174C69.9076 105.225 68.3178 109.464 65.1038 113.277Z" fill="#1B1D1C"/>
<path d="M62.1926 103.945C60.5724 104.877 59.1376 106.099 57.96 107.551C56.73 108.956 55.773 110.578 55.1383 112.334C54.6359 113.883 54.7391 115.087 55.4274 115.624C55.6765 115.832 55.9845 115.957 56.3083 115.982C57.1561 116.005 57.9927 115.783 58.7171 115.342C61.9474 113.411 64.4327 110.448 65.7714 106.932C66.2738 105.39 66.1705 104.22 65.4892 103.642C64.8079 103.064 63.6172 103.188 62.1926 103.945ZM65.3103 103.876C66.5628 104.929 65.4066 108.37 62.7294 111.556C61.578 112.972 60.1788 114.166 58.6001 115.08C57.2236 115.768 56.1913 115.92 55.5925 115.417C54.9938 114.915 54.9043 113.841 55.4067 112.396C56.0295 110.687 56.9628 109.107 58.1596 107.737C60.4032 105.066 63.0185 103.415 64.5394 103.607C64.8176 103.617 65.0864 103.71 65.3103 103.876Z" fill="white"/>
<path d="M68.0838 104.179L67.9049 104.027H67.8636L66.2944 102.706C65.3997 102.128 64.0508 102.217 62.4472 102.981C58.5582 105.098 55.6094 108.602 54.1886 112.795C53.7068 114.509 53.8513 115.858 54.574 116.636L56.1706 118.012L56.3565 118.163C56.6403 118.345 56.9637 118.456 57.2993 118.487H57.4232C59.4259 118.618 62.5023 116.746 65.1244 113.621C68.2696 109.822 69.5359 105.741 68.0838 104.179ZM57.5196 118.157L56.4941 117.296C56.6764 117.291 56.8582 117.273 57.0378 117.241L58.1114 118.122C57.9156 118.152 57.7175 118.163 57.5196 118.157ZM56.4115 117.806L56.3427 117.751H56.3083L55.7371 117.269L56.0124 117.317H56.0468L56.9827 118.102C56.776 118.038 56.5824 117.938 56.4115 117.806ZM67.7466 104.179L67.8085 104.234C67.9776 104.4 68.1111 104.599 68.2008 104.819L67.2442 104.014C67.2098 103.89 67.1685 103.773 67.1272 103.663L67.7466 104.179ZM68.3453 106.78L67.2786 105.886C67.3108 105.701 67.3338 105.515 67.3474 105.328L68.4348 106.243C68.3981 106.422 68.366 106.608 68.3384 106.801L68.3453 106.78ZM68.4073 105.865L67.3612 104.984C67.3607 104.805 67.3492 104.625 67.3268 104.447L68.3522 105.307C68.3959 105.498 68.4235 105.691 68.4348 105.886L68.4073 105.865ZM57.3957 117.152C57.5773 117.109 57.7565 117.056 57.9325 116.993L58.9924 117.881C58.8065 117.943 58.6276 117.998 58.4487 118.04L57.3957 117.152ZM58.2353 116.883C58.4349 116.808 58.6276 116.725 58.8341 116.629L58.9167 116.587L59.9696 117.468C59.7356 117.585 59.5085 117.682 59.2814 117.771L58.2353 116.883ZM59.1782 116.45C59.3984 116.333 59.6118 116.209 59.8664 116.078L60.8643 116.98C60.6533 117.117 60.4399 117.241 60.2243 117.351L59.1782 116.45ZM60.0798 115.927C60.3069 115.782 60.534 115.624 60.768 115.459L61.8003 116.326C61.5709 116.5 61.3415 116.659 61.1121 116.801L60.0798 115.927ZM61.9311 114.502C62.1995 114.261 62.4679 114.013 62.7294 113.752L63.7549 114.612C63.4933 114.881 63.2249 115.128 62.9565 115.369L61.9311 114.502ZM62.929 113.566C63.2249 113.263 63.5071 112.947 63.7893 112.623L64.8147 113.484C64.5326 113.814 64.2504 114.124 63.9545 114.426L62.929 113.566ZM63.9613 112.437C64.2297 112.114 64.4844 111.749 64.7253 111.453L65.7507 112.314C65.5098 112.644 65.2552 113.002 64.9868 113.298L63.9613 112.437ZM64.8904 111.226C65.1038 110.923 65.3103 110.614 65.4961 110.311L66.5284 111.171C66.3357 111.481 66.1361 111.784 65.9159 112.093L64.8904 111.226ZM65.6406 110.07C65.8058 109.788 65.9641 109.513 66.1086 109.237L67.1478 110.104C66.9964 110.38 66.8381 110.655 66.6729 110.937L65.6406 110.07ZM66.2394 108.983C66.3701 108.728 66.4802 108.48 66.5904 108.232L67.6296 109.106C67.5195 109.347 67.4025 109.602 67.2786 109.857L66.2394 108.983ZM66.6936 107.957C66.7899 107.723 66.8725 107.489 66.9482 107.269L68.0012 108.157C67.9255 108.384 67.836 108.611 67.7397 108.845L66.6936 107.957ZM67.0583 106.932C67.0614 106.893 67.0614 106.854 67.0583 106.815C67.1187 106.616 67.167 106.414 67.2029 106.209L68.2627 107.097C68.2146 107.331 68.1526 107.565 68.0769 107.785L67.0583 106.932ZM66.3701 103.002C67.1685 103.69 67.3336 105.012 66.8381 106.766C65.4316 110.858 62.5542 114.28 58.7652 116.367C57.9775 116.793 57.0938 117.011 56.1982 117C55.7538 116.99 55.3254 116.833 54.98 116.553C54.1817 115.865 54.0165 114.55 54.512 112.795C55.1756 110.751 56.2454 108.862 57.6572 107.241C59.0072 105.571 60.684 104.194 62.5849 103.195C64.1885 102.417 65.5305 102.348 66.3288 103.016L66.3701 103.002ZM62.055 116.161L61.0157 115.287C61.2635 115.099 61.5113 114.899 61.759 114.688L62.7914 115.555C62.5023 115.782 62.2408 115.982 62.0137 116.175L62.055 116.161Z" fill="white"/>
<path d="M58.9992 108.418L58.6276 111.907L61.0226 110.139L62.3715 107.455L59.0268 108.404L58.9992 108.418Z" fill="white"/>
<path d="M58.6207 112.258L61.993 111.019L62.6331 107.482L61.2016 110.352L58.6207 112.258Z" fill="white"/>
<path d="M30.2315 22.8786C24.1476 20.6075 21.8076 16.774 23.948 13.3329C26.0127 10.0226 30.5825 10.3323 34.8701 12.1767C40.4654 14.5924 42.1859 17.8683 41.305 20.8965C40.2176 24.6886 35.9713 25.0327 30.2315 22.8786Z" fill="#1B1D1C"/>
<path d="M26.5013 16.7739C27.886 18.147 29.5437 19.2138 31.3671 19.9053C33.1611 20.668 35.0959 21.0432 37.0449 21.0065C38.7448 20.917 39.8941 20.3183 40.2795 19.3754C40.665 18.4325 40.2383 17.2006 39.0683 15.9343C37.6862 14.5612 36.0307 13.4943 34.2094 12.8029C32.4106 12.0407 30.471 11.6678 28.5178 11.7086C26.8179 11.7981 25.6686 12.3968 25.2763 13.3397C24.884 14.2825 25.3382 15.5145 26.5013 16.7739ZM34.1199 13.0437C38.1529 14.6404 40.8508 17.4621 40.1144 19.2859C39.378 21.1097 35.4895 21.2955 31.4496 19.6782C27.4098 18.0609 24.7257 15.2392 25.4621 13.4085C26.1985 11.5778 30.087 11.3989 34.1199 13.0231V13.0437Z" fill="white" stroke="white" stroke-width="0.172056" stroke-miterlimit="10"/>
<path d="M41.5252 19.8851C41.8831 18.6876 41.4082 17.2424 40.1488 15.7971C38.5924 14.108 36.662 12.8069 34.5122 11.9981C32.4053 11.0972 30.1164 10.7036 27.8296 10.8488C25.9301 11.0346 24.588 11.7434 24.0168 12.8653L23.1084 15.1226L23.0327 15.3291C22.3238 17.7516 25.3795 21.1102 30.1145 23.0097C34.8495 24.9092 39.3849 24.6132 40.5411 22.3214L41.5321 19.8645L41.5252 19.8851ZM34.4503 12.2046C39.1853 14.1041 42.2479 17.6278 41.2775 20.0503C40.3071 22.4729 35.6547 22.9064 30.9541 21.0069C26.2536 19.1074 23.1565 15.5837 24.1269 13.1543C25.0973 10.7249 29.7153 10.2982 34.4503 12.2046ZM24.588 16.6092L23.8998 18.2609C23.7609 18.0553 23.6345 17.8416 23.5213 17.6209L24.2095 15.9691C24.3196 16.1825 24.4504 16.3958 24.588 16.6092ZM24.7119 16.795C24.8633 16.9946 25.0216 17.2011 25.2006 17.4075C25.2267 17.4429 25.2567 17.4752 25.29 17.5039L24.6018 19.1419C24.3975 18.9243 24.2068 18.6945 24.0306 18.4536L24.7119 16.795ZM25.4002 17.6622C25.5997 17.8755 25.8131 18.0889 26.0402 18.2953L25.3933 19.9127C25.1593 19.7062 24.9459 19.4997 24.7463 19.2864L25.4002 17.6622ZM26.1847 18.4261C26.4256 18.6394 26.6802 18.8528 26.9487 19.0524L26.3017 20.6559C26.0333 20.4564 25.7787 20.2499 25.5378 20.0434L26.1847 18.4261ZM27.1414 19.1625C27.4304 19.3827 27.7401 19.5892 28.0567 19.7888L27.4166 21.3855C27.0932 21.1859 26.7904 20.9794 26.4944 20.7661L27.1414 19.1625ZM28.215 19.892C28.566 20.1054 28.9032 20.3118 29.3024 20.5045L28.6692 22.0943C28.2838 21.9016 27.9191 21.6952 27.5749 21.4818L28.215 19.892ZM29.4676 20.5802C29.8874 20.7936 30.321 20.9863 30.7683 21.1721L30.1351 22.7619C29.6809 22.5761 29.2473 22.3765 28.8275 22.17L29.4676 20.5802ZM30.9404 21.2685C31.3808 21.4405 31.8213 21.5988 32.2617 21.7296L31.6286 23.3194C31.1881 23.1886 30.7477 23.0303 30.3003 22.8514L30.9404 21.2685ZM32.4407 21.7846C32.8467 21.9085 33.2528 22.0117 33.652 22.1012L32.9913 23.6566C32.5921 23.5671 32.186 23.4639 31.78 23.34L32.4407 21.7846ZM33.8171 22.1356C34.1888 22.209 34.5535 22.271 34.9114 22.3214L34.2714 23.925C33.9135 23.8768 33.5487 23.808 33.1771 23.7323L33.8171 22.1356ZM35.0972 22.3421C35.4345 22.3834 35.7854 22.404 36.0814 22.4178L35.4 24.0145C35.0835 24.0145 34.7531 23.9663 34.4228 23.925L35.0972 22.3421ZM36.2741 22.4247C36.5838 22.4247 36.8866 22.4247 37.1757 22.4247L36.4874 24.0558C36.1984 24.0558 35.9024 24.0558 35.5927 24.0558L36.2741 22.4247ZM37.3821 22.4247H37.5404C37.8019 22.4247 38.0497 22.3627 38.2906 22.3146L37.6024 23.9594C37.3043 24.0143 37.0033 24.0511 36.7008 24.0695L37.3821 22.4247ZM38.5039 22.2595C38.7365 22.2044 38.9662 22.1378 39.1922 22.0599L38.5039 23.7117C38.2787 23.7901 38.0489 23.8545 37.8157 23.9044L38.5039 22.2595ZM23.2804 15.1846L23.7002 14.0696C23.6963 14.2817 23.7124 14.4937 23.7484 14.7028L23.1084 16.2995C23.0679 15.9537 23.1055 15.6033 23.2185 15.274C23.2356 15.2419 23.2564 15.2119 23.2804 15.1846ZM23.191 16.6505L23.8792 15.0194C23.946 15.2672 24.0335 15.5089 24.1407 15.742L23.4525 17.3938C23.3418 17.1549 23.2542 16.906 23.191 16.6505ZM38.7792 23.5809L39.4674 21.9292C39.7065 21.8376 39.9368 21.7248 40.1557 21.5919L39.5019 23.223C39.2741 23.3671 39.0319 23.4871 38.7792 23.5809ZM40.4241 22.17C40.2629 22.5034 40.0275 22.7953 39.7359 23.0234L40.3759 21.4199C40.5626 21.2886 40.7335 21.1362 40.8852 20.9656L40.4378 22.0806C40.4361 22.1108 40.4315 22.1407 40.4241 22.17Z" fill="white" stroke="white" stroke-width="0.172056" stroke-miterlimit="10"/>
<path d="M34.4641 16.774C34.8564 16.774 35.1523 16.6777 35.2486 16.3129C35.3725 15.8174 34.8357 15.4114 34.0924 15.0604L34.3608 14.4066L33.7758 14.1657L33.5143 14.8057L33.0394 14.613L33.3354 14.0212L32.7504 13.7803L32.482 14.4272L32.1035 14.2827L31.2707 13.911L31.0987 14.3377L31.5254 14.5098C31.7593 14.6061 31.8006 14.7369 31.7938 14.8264L31.4841 15.5697H31.546H31.4841L31.0505 16.6089C31.0505 16.657 30.9472 16.719 30.7752 16.6502L30.3485 16.4781L30.0388 16.9048L30.8027 17.2145L31.2225 17.3866L30.9541 18.0748L31.5391 18.3157L31.8075 17.6619L32.2824 17.8546L32.014 18.5084L32.599 18.7492L32.8743 18.061C33.8791 18.4258 34.643 18.5359 34.9871 17.9509C35.3312 17.3659 34.994 17.1044 34.4641 16.774ZM32.8605 15.0879C33.1909 15.2255 34.237 15.5765 34.0718 16.0445C33.8928 16.4919 32.8674 16.0445 32.5302 15.8794L32.8605 15.0879ZM32.0071 17.1526L32.3719 16.2785C32.771 16.4437 34.0511 16.8773 33.8378 17.3866C33.6244 17.8959 32.4063 17.3246 32.0071 17.1595V17.1526Z" fill="white" stroke="white" stroke-width="0.172056" stroke-miterlimit="10"/>
<path d="M53.5003 69.1342C51.649 66.0578 51.9518 63.5871 54.0578 62.8369C56.1638 62.0868 57.9669 63.8142 59.1919 66.0853C60.7886 69.0516 60.4101 71.0681 58.9855 72.0798C57.2099 73.3392 55.2553 72.0385 53.5003 69.1342Z" fill="#1B1D1C"/>
<path d="M53.9821 65.1977C54.2891 67.3473 55.404 69.299 57.0997 70.6553C57.8706 71.199 58.5657 71.3435 59.0681 71.0545C59.5705 70.7654 59.7563 70.0978 59.715 69.1619C59.4079 67.0123 58.293 65.0606 56.5973 63.7042C55.8265 63.1605 55.1314 63.016 54.629 63.2982C54.1266 63.5804 53.9133 64.2617 53.9821 65.1977ZM58.5725 66.1956C59.7632 68.2603 59.949 70.4282 59.013 70.9719C58.077 71.5156 56.3221 70.2837 55.1245 68.1639C53.927 66.0442 53.7481 63.9314 54.6841 63.3877C55.6201 62.844 57.3819 64.1034 58.5794 66.1956H58.5725Z" fill="white" stroke="white" stroke-width="0.172056" stroke-miterlimit="10"/>
<path d="M59.4328 71.7152C59.7435 71.4393 59.9805 71.0903 60.1223 70.6997C60.2641 70.3092 60.3062 69.8894 60.2449 69.4784C60.1242 68.2162 59.7366 66.994 59.1078 65.8929C58.4789 64.7919 57.6232 63.837 56.5973 63.0917C56.2737 62.8288 55.8892 62.6514 55.4792 62.5756C55.0692 62.4999 54.6467 62.5283 54.2505 62.6581L53.0805 63.3464L52.9773 63.4083C51.828 64.2067 52.0069 66.7187 53.404 69.1687C54.8011 71.6188 56.8451 73.0503 58.1596 72.4653L59.4328 71.7358V71.7152ZM58.9992 65.9547C60.3757 68.4048 60.5202 70.9857 59.2608 71.7014C58.0013 72.4172 55.8196 71.0132 54.4432 68.5562C53.0668 66.0993 52.9222 63.5253 54.1817 62.8096C55.4411 62.0938 57.6021 63.4978 58.9992 65.9547ZM53.2113 64.4751L52.3579 64.9499C52.3651 64.8133 52.3836 64.6775 52.4129 64.5439L53.2939 64.069C53.2591 64.2028 53.2315 64.3383 53.2113 64.4751ZM53.2113 64.5989C53.2113 64.7366 53.2113 64.8811 53.2113 65.0325C53.2113 65.0325 53.2113 65.0807 53.2113 65.1013L52.3648 65.59C52.3546 65.4227 52.3546 65.2549 52.3648 65.0876L53.2113 64.5989ZM53.2113 65.2183C53.2113 65.3766 53.2457 65.5487 53.2663 65.7139L52.4336 66.1956C52.4336 66.0236 52.3785 65.8584 52.3648 65.7001L53.2113 65.2183ZM53.287 65.8171C53.3214 65.996 53.3558 66.175 53.404 66.3539L52.6056 66.8288C52.5575 66.6543 52.5185 66.4774 52.4886 66.2988L53.287 65.8171ZM53.4315 66.4571C53.4797 66.6498 53.5416 66.8425 53.6105 67.0421L52.7846 67.5101C52.7158 67.3174 52.6538 67.1178 52.5988 66.9251L53.4315 66.4571ZM53.6449 67.1454C53.7275 67.3587 53.81 67.5721 53.9064 67.7854L53.0874 68.2534C52.9842 68.0401 52.9016 67.8267 52.819 67.6134L53.6449 67.1454ZM53.9821 67.868C54.0922 68.1089 54.2161 68.3429 54.3468 68.5562L53.5279 69.0242C53.3902 68.7902 53.2732 68.5562 53.1631 68.336L53.9821 67.868ZM54.395 68.6595C54.5258 68.8866 54.6634 69.1068 54.8148 69.3477L53.9821 69.7675C53.8376 69.561 53.6999 69.3408 53.5692 69.0793L54.395 68.6595ZM54.8699 69.4027C55.0075 69.5954 55.1452 69.7813 55.2897 69.9533L54.4638 70.4282C54.3193 70.2493 54.1817 70.0634 54.044 69.8707L54.8699 69.4027ZM55.3517 70.0359C55.4893 70.1965 55.6269 70.3479 55.7646 70.4901L54.9318 70.965C54.7942 70.8205 54.6634 70.6691 54.5258 70.5039L55.3517 70.0359ZM55.8403 70.559C55.9711 70.6897 56.1018 70.8136 56.2395 70.9306L55.3998 71.4124C55.2691 71.2954 55.1383 71.1715 55.0075 71.0338L55.8403 70.559ZM56.3221 70.9994C56.4528 71.1095 56.5836 71.2128 56.7143 71.3022L55.8747 71.784C55.7439 71.6945 55.6132 71.5913 55.4824 71.4812L56.3221 70.9994ZM56.8107 71.3711L56.8864 71.4192C57.0034 71.4949 57.1273 71.5638 57.2443 71.6257L56.3909 72.1143C56.2532 72.0386 56.1087 71.9492 55.9642 71.8528L56.8107 71.3711ZM57.3544 71.6808C57.4783 71.7427 57.609 71.7978 57.7329 71.8459L56.8726 72.3346C56.7487 72.2841 56.6249 72.229 56.501 72.1694L57.3544 71.6808ZM53.17 63.4221L53.7412 63.0917C53.6692 63.1826 53.6047 63.2793 53.5485 63.3808L52.7226 63.8557C52.8246 63.6929 52.9608 63.5543 53.1218 63.4496L53.17 63.4221ZM52.6263 64.0277L53.4659 63.546C53.4108 63.6756 53.3648 63.809 53.3283 63.9451L52.4749 64.4338C52.5053 64.2901 52.5491 64.1495 52.6056 64.0139L52.6263 64.0277ZM57.0034 72.3896L57.8568 71.901C57.9946 71.94 58.1349 71.9698 58.2766 71.9905L57.4301 72.4722C57.2737 72.455 57.1192 72.4227 56.969 72.3759L57.0034 72.3896ZM58.2009 72.3415C58.0195 72.4329 57.819 72.48 57.6159 72.4791L58.4487 72.0042C58.5745 72.0181 58.7014 72.0181 58.8272 72.0042L58.2491 72.3346L58.2009 72.3415Z" fill="white" stroke="white" stroke-width="0.172056" stroke-miterlimit="10"/>
<path d="M57.4232 67.9435C57.4815 68.0159 57.5652 68.0634 57.6573 68.0762C57.7494 68.089 57.8429 68.0661 57.9187 68.0123C58.1459 67.8402 58.0495 67.4824 57.8499 67.0694L58.1871 66.8836L58.0151 66.5739L57.6847 66.7597L57.5471 66.5189L57.8774 66.333L57.7054 66.0233L57.3613 66.216C57.3269 66.1472 57.2856 66.0853 57.2512 66.0233L57.0172 65.6035L56.7901 65.7274C56.7901 65.7274 56.9208 65.9545 56.9208 65.9476C56.9896 66.0715 56.9621 66.1403 56.9208 66.1747L56.5354 66.395L55.9917 66.6978C55.9917 66.6978 55.9091 66.6978 55.8609 66.6221C55.8128 66.5464 55.7371 66.4019 55.7371 66.4019L55.4549 66.4776L55.6751 66.8767L55.799 67.097L55.4549 67.2897L55.627 67.5925L55.9711 67.4067C56.0192 67.4893 56.0605 67.5718 56.1087 67.6475L55.7646 67.8402L55.9435 68.1431L56.2876 67.9504C56.5973 68.4596 56.8864 68.7693 57.2374 68.6386C57.5884 68.5078 57.554 68.2601 57.4232 67.9435ZM57.3062 66.6634C57.4026 66.8354 57.7467 67.3516 57.4989 67.4893C57.2649 67.62 56.9896 67.0626 56.8933 66.8905L57.3062 66.6634ZM56.2257 67.2621L56.6799 67.0075C56.7969 67.214 57.2099 67.8471 56.9415 67.9917C56.6731 68.1362 56.3565 67.4686 56.2395 67.2621H56.2257Z" fill="white" stroke="white" stroke-width="0.172056" stroke-miterlimit="10"/>
<path d="M41.9038 92.0245C46.9362 92.0245 51.0159 87.9448 51.0159 82.9124C51.0159 77.8799 46.9362 73.8003 41.9038 73.8003C36.8713 73.8003 32.7917 77.8799 32.7917 82.9124C32.7917 87.9448 36.8713 92.0245 41.9038 92.0245Z" fill="#1DE9B6"/>
<path d="M46.7076 79.9048L40.7063 85.9199L37.1 82.3136" stroke="#1B1D1C" stroke-width="2.75289" stroke-linecap="round" stroke-linejoin="round"/>
</svg>
