<svg xmlns="http://www.w3.org/2000/svg" width="22" height="22" viewBox="0 0 22 22">
    <g fill="none" fill-rule="evenodd" stroke-linecap="round" stroke-linejoin="round">
        <g stroke="current">
            <g>
                <g>
                    <path d="M4.156 9.506c0-.226.09-.442.25-.602.16-.159.376-.248.602-.247l1.411.005c.47 0 .85.38.85.85v5.349c.158-.047.362-.098.586-.15.319-.076.545-.361.545-.69V7.387c0-.47.38-.85.849-.85h1.416c.468 0 .848.38.848.85v6.157s.355-.143.7-.29c.261-.11.432-.368.432-.653v-7.34c0-.47.38-.85.849-.85h1.414c.469 0 .848.38.848.85v6.045c1.227-.89 2.47-1.962 3.456-3.25.29-.38.372-.88.217-1.332C18.183 3.134 15.017.56 11.255.08 7.492-.4 3.783 1.295 1.679 4.457-.426 7.618-.561 11.7 1.327 14.996c.247.425.717.67 1.206.625.267-.023.6-.057.997-.103.357-.04.626-.343.627-.703V9.506M4.126 18.084c3.04 2.216 7.065 2.535 10.415.826 3.35-1.71 5.46-5.158 5.459-8.925 0-.231-.01-.459-.026-.686-3.652 5.457-10.395 8.008-15.848 8.785" transform="translate(-1035.000000, -665.000000) translate(1028.000000, 658.000000) translate(8.000000, 8.000000)"/>
                </g>
            </g>
        </g>
    </g>
</svg>
