<svg xmlns="http://www.w3.org/2000/svg" width="12" height="12" viewBox="0 0 12 12">
    <g fill="none" fill-rule="evenodd">
        <g>
            <g>
                <path stroke="current" stroke-linecap="round" stroke-linejoin="round" d="M5.702 6.743c.694.694.694 1.82 0 2.514-.694.695-1.82.695-2.515 0-.694-.694-.694-1.82 0-2.514.695-.695 1.82-.695 2.515 0M12.813 3.187c.694.695.694 1.82 0 2.515-.695.694-1.82.694-2.515 0-.694-.694-.694-1.82 0-2.515.694-.694 1.82-.694 2.515 0M12.813 10.298c.694.694.694 1.82 0 2.515-.695.694-1.82.694-2.515 0-.694-.695-.694-1.82 0-2.515.694-.694 1.82-.694 2.515 0M6.027 7.207L9.973 5.233M6.027 8.793L9.973 10.767" transform="translate(-114 -349) translate(112 347)"/>
            </g>
        </g>
    </g>
</svg>
