<svg xmlns="http://www.w3.org/2000/svg" width="24" height="24" viewBox="0 0 24 24">
    <g fill="none" fill-rule="evenodd">
        <g>
            <g>
                <g stroke="current" stroke-linecap="round" stroke-linejoin="round">
                    <path d="M8.984 11.09L6.919 13.1c-.358.347-.957.193-1.102-.285L4.44 8.285" transform="translate(-1012.000000, -203.000000) translate(1012.000000, 203.000000) translate(2.811204, 5.815929)"/>
                    <path d="M11.293 5.111s-2.59 2.336-3.917 3.535c-.397.358-.364.988.066 1.305l5.378 3.973c.529.391 1.285.104 1.422-.54L16.882.937c.129-.602-.462-1.105-1.036-.884L.33 6.037c-.457.176-.435.83.032.975L4.44 8.284" transform="translate(-1012.000000, -203.000000) translate(1012.000000, 203.000000) translate(2.811204, 5.815929)"/>
                </g>
            </g>
        </g>
    </g>
</svg>
