<svg xmlns="http://www.w3.org/2000/svg" width="24" height="24" viewBox="0 0 24 24">
    <g fill="none" fill-rule="evenodd">
        <g>
            <g>
                <path d="M0 0L24 0 24 24 0 24z" transform="translate(-1120.000000, -203.000000) translate(1120.000000, 203.000000)"/>
                <path stroke="#D0D4DD" stroke-linecap="round" stroke-linejoin="round" d="M18.204 5.762c-1.646-1.647-3.835-2.555-6.167-2.556-4.807 0-8.718 3.909-8.719 8.714-.002 1.529.399 3.032 1.163 4.357l-1.237 4.516 4.622-1.212c1.279.696 2.711 1.061 4.167 1.061h.004c4.805 0 8.716-3.91 8.718-8.715.001-2.328-.905-4.517-2.551-6.165z" transform="translate(-1120.000000, -203.000000) translate(1120.000000, 203.000000)"/>
                <g stroke="#D0D4DD" stroke-linecap="round" stroke-linejoin="round">
                    <path d="M5.595 6.06l.406-.404c.373-.37.963-.417 1.393-.115.416.292.792.554 1.142.798.556.386.623 1.178.144 1.656l-.359.36M.645.678l.36-.359c.477-.478 1.27-.41 1.655.144.243.35.505.726.798 1.142.302.43.256 1.02-.115 1.393l-.403.406M8.321 8.354c-1.48 1.474-3.97.222-5.935-1.744M2.388 6.613C.423 4.647-.829 2.16.645.678" transform="translate(-1120.000000, -203.000000) translate(1120.000000, 203.000000) translate(7.499933, 7.500592)"/>
                    <path d="M2.94 3.404c.32.503.728 1.001 1.19 1.463l.002.002c.462.462.96.871 1.463 1.19" transform="translate(-1120.000000, -203.000000) translate(1120.000000, 203.000000) translate(7.499933, 7.500592)"/>
                </g>
            </g>
        </g>
    </g>
</svg>
