<svg xmlns="http://www.w3.org/2000/svg" width="24" height="24" viewBox="0 0 24 24">
    <g fill="none" fill-rule="evenodd">
        <g>
            <g>
                <g>
                    <g stroke="current" stroke-linecap="round" stroke-linejoin="round">
                        <path d="M9 0c4.982 0 9 4.018 9 9s-4.018 9-9 9M9 18c-4.982 0-9-4.018-9-9s4.018-9 9-9" transform="translate(-1085.000000, -565.000000) translate(1079.000000, 559.000000) translate(6.000000, 6.000000) translate(3.000000, 3.000000)"/>
                        <path d="M7.168 1.06c-2.89 4.825-2.89 11.056 0 15.881.846 1.413 2.819 1.413 3.665 0 2.89-4.825 2.89-11.056 0-15.881-.847-1.413-2.819-1.413-3.665 0zM0 9L18 9" transform="translate(-1085.000000, -565.000000) translate(1079.000000, 559.000000) translate(6.000000, 6.000000) translate(3.000000, 3.000000)"/>
                    </g>
                </g>
            </g>
        </g>
    </g>
</svg>
