<svg width="24" height="24" viewBox="0 0 24 24" fill="none" xmlns="http://www.w3.org/2000/svg">
<rect width="24" height="24" rx="12" fill="#3A3E3C"/>
<path fill-rule="evenodd" clip-rule="evenodd" d="M16.7683 8.84752L11.9208 4L10.1782 5.74257L6.85146 9.06931L8.62889 10.8467L11.9556 7.52L15.0257 10.5901L16.7683 8.84752ZM18.2226 13.6982L20 11.9208L18.2574 10.1782L16.48 11.9556L18.2226 13.6982ZM11.9208 20L16.7683 15.1525L15.0257 13.4099L11.9556 16.48L8.62889 13.1533L6.85146 14.9307L10.1782 18.2574L11.7624 19.8416L11.9208 20ZM7.52 12.0444L5.74257 13.8218L4 12.0792L5.77743 10.3018L7.52 12.0444ZM11.9811 13.92L13.7585 12.1426L12.016 10.4L10.2385 12.1774L11.9811 13.92Z" fill="#FCB900"/>
</svg>
