<svg width="100" height="100" viewBox="0 0 100 100" fill="none" xmlns="http://www.w3.org/2000/svg">
<path opacity="0.3" d="M25.7371 28.7169L27.2012 31.2528" stroke="#1DE9B6" stroke-width="4" stroke-linecap="round" stroke-linejoin="round"/>
<path opacity="0.3" d="M18.3462 56.3003L29.0181 50.1388" stroke="#1DE9B6" stroke-width="4" stroke-linecap="round" stroke-linejoin="round"/>
<path opacity="0.3" d="M13 40.0858L20.9167 42.2071" stroke="#1DE9B6" stroke-width="4" stroke-linecap="round" stroke-linejoin="round"/>
<path opacity="0.3" d="M74.2629 71.2831L72.7988 68.7472" stroke="#1DE9B6" stroke-width="4" stroke-linecap="round" stroke-linejoin="round"/>
<path opacity="0.3" d="M81.6538 43.6997L73.7291 48.275" stroke="#1DE9B6" stroke-width="4" stroke-linecap="round" stroke-linejoin="round"/>
<path opacity="0.3" d="M87.0417 59.9253L79.25 57.8375" stroke="#1DE9B6" stroke-width="4" stroke-linecap="round" stroke-linejoin="round"/>
<path opacity="0.3" d="M28.7169 74.2628L31.2528 72.7987" stroke="#1DE9B6" stroke-width="4" stroke-linecap="round" stroke-linejoin="round"/>
<path opacity="0.3" d="M56.3003 81.6538L50.1998 71.0875" stroke="#1DE9B6" stroke-width="4" stroke-linecap="round" stroke-linejoin="round"/>
<path opacity="0.3" d="M40.1011 87.0264L42.1848 79.1666" stroke="#1DE9B6" stroke-width="4" stroke-linecap="round" stroke-linejoin="round"/>
<path opacity="0.3" d="M71.2831 25.7371L68.7472 27.2012" stroke="#1DE9B6" stroke-width="4" stroke-linecap="round" stroke-linejoin="round"/>
<path opacity="0.3" d="M43.6997 18.3462L49.8612 29.0181" stroke="#1DE9B6" stroke-width="4" stroke-linecap="round" stroke-linejoin="round"/>
<path opacity="0.3" d="M59.9405 12.9847L57.8152 20.8333" stroke="#1DE9B6" stroke-width="4" stroke-linecap="round" stroke-linejoin="round"/>
<path opacity="0.4" fill-rule="evenodd" clip-rule="evenodd" d="M42.4528 36.8219L63.2857 42.4041L57.7036 63.237L36.8706 57.6548L42.4528 36.8219Z" stroke="#FF6E40" stroke-width="4" stroke-linecap="round" stroke-linejoin="round"/>
</svg>
