<svg width="102" height="135" viewBox="0 0 102 135" fill="none" xmlns="http://www.w3.org/2000/svg">
<path opacity="0.1" d="M28.5 132.5H73.5" stroke="#1DE9B6" stroke-width="5" stroke-linecap="round"/>
<g opacity="0.4">
<path d="M84.7675 64.8578C90.3475 70.4378 90.3475 79.4848 84.7675 85.0649C79.1875 90.6449 70.1405 90.6449 64.5605 85.0649C58.9805 79.4849 58.9805 70.4379 64.5605 64.8578C70.1405 59.2779 79.1875 59.2779 84.7675 64.8578" stroke="#FF6E40" stroke-width="4" stroke-linecap="round" stroke-linejoin="round"/>
<path fill-rule="evenodd" clip-rule="evenodd" d="M90.3252 30.4L78.0087 42.7165C76.1472 44.578 73.1339 44.578 71.2724 42.7165L58.9559 30.4C57.0944 28.5385 57.0944 25.5253 58.9559 23.6638L71.2724 11.3473C73.1339 9.4858 76.1472 9.4858 78.0087 11.3473L90.3252 23.6638C92.1824 25.5253 92.1824 28.5385 90.3252 30.4V30.4Z" stroke="#1DE9B6" stroke-width="4" stroke-linecap="round" stroke-linejoin="round"/>
<path d="M37.142 17.2324C42.722 22.8124 42.722 31.8593 37.142 37.4394C31.562 43.0194 22.515 43.0194 16.935 37.4394C11.355 31.8594 11.355 22.8124 16.935 17.2324C22.515 11.6524 31.562 11.6524 37.142 17.2324" stroke="#FF6E40" stroke-width="4" stroke-linecap="round" stroke-linejoin="round"/>
<path fill-rule="evenodd" clip-rule="evenodd" d="M18.3514 61.7993H35.7679C38.3987 61.7993 40.5322 63.9328 40.5322 66.5636V83.9801C40.5322 86.6108 38.3987 88.7443 35.7679 88.7443H18.3514C15.7207 88.7443 13.5872 86.6108 13.5872 83.9801V66.5636C13.5872 63.9286 15.7207 61.7993 18.3514 61.7993V61.7993Z" stroke="#1DE9B6" stroke-width="4" stroke-linecap="round" stroke-linejoin="round"/>
</g>
</svg>
