<svg xmlns="http://www.w3.org/2000/svg" width="121" height="25" viewBox="0 0 121 25">
    <g fill="none" fill-rule="evenodd">
        <g>
            <g>
                <g>
                    <path fill="#FFF" fill-rule="nonzero" d="M42.435 10.5v1.873h.04c.489-1.366 1.39-1.872 2.662-1.872h4.154c.123 0 .23.08.267.198l1.81 5.968c.118.383.21.835.274 1.356h.04c.058-.383.166-.828.323-1.336l1.89-6.186h3.066l-4.075 10.946c-.98 2.633-2.455 3.95-4.427 3.95-.75 0-1.368-.087-1.85-.258v-2.494c.41.244.858.366 1.341.366.797 0 1.352-.38 1.665-1.138l.529-1.257-3.067-7.613h-2.498c-.605 0-1.091.202-1.458.603l-.118.142c-.378.496-.568 1.17-.568 2.025v4.818h-3.092v-10.09h3.092zm25.22-3.042V10.5h2.279v2.246h-2.28v4.188c0 1.055.42 1.583 1.26 1.583.33 0 .67-.096 1.02-.287v2.315c-.463.244-1.16.366-2.091.366-2.207 0-3.31-1.145-3.31-3.433v-4.732h-1.144v.002h-2.626c-.206 0-.401.018-.584.055-.183.036-.345.09-.484.16-.14.07-.25.16-.33.27-.08.11-.124.215-.124.354 0 .187.064.267.184.4s.276.248.47.345c.192.096.407.183.643.26.237.076.471.154.704.234.42.147.799.307 1.138.48.34.173.631.376.874.61.243.233.43.506.56.819.13.313.194.686.194 1.119 0 .606-.132 1.124-.394 1.553-.263.43-.613.78-1.049 1.05-.436.27-.938.466-1.508.59-.569.122-1.16.184-1.772.184-1.125 0-2.167-.173-3.125-.52v-2.557c.52.313 1.037.546 1.553.699.515.153 1.003.23 1.462.23.56 0 1-.077 1.323-.23.323-.153.485-.386.485-.7 0-.2-.074-.366-.22-.5-.147-.132-.335-.249-.564-.349-.23-.1-.481-.19-.754-.27-.273-.08-.536-.17-.789-.27-.406-.153-.764-.317-1.073-.494-.31-.176-.57-.381-.78-.614-.209-.234-.368-.503-.478-.81-.11-.306-.165-.67-.165-1.089 0-.573.125-1.066.374-1.479.25-.413.583-.75.999-1.014.416-.263.892-.456 1.428-.58.536-.122 1.093-.184 1.672-.184h3.9V8.348l3.121-.89zm15.254-2.082V17.83c0 .224.12.414.31.414.33 0 .485 0 .883-.052h.087v2.565c-.416.12-.796.155-1.332.155-2.041 0-2.993-.947-2.993-2.737v-12.8h3.045zm-7.834 4.805c2.788 0 4.223 1.35 4.305 4.051l.004.25v6.023h-2.942V19.06h-.04l-.122.193c-.671 1-1.63 1.5-2.878 1.5-.977 0-1.746-.278-2.307-.832-.56-.555-.84-1.295-.84-2.22 0-1.885 1.076-3.002 3.228-3.35l.244-.036 2.735-.364-.005-.17c-.06-.989-.655-1.483-1.786-1.483-1.1 0-2.15.3-3.151.901l-.272.172v-2.343l.17-.082c.413-.19.949-.36 1.606-.508.75-.171 1.434-.256 2.05-.256zM31.88 1.69v13.486h.039l2.797-4.334 1.08-1.472h3.688l-1.12 1.478-3.367 4.407 3.865 5.335h-3.727L31.919 15.6h-.04v4.991h-3.107V2.493l3.108-.801zm44.582 14.04l-1.83.237-.183.028c-.888.161-1.332.608-1.332 1.34 0 .354.123.645.369.871.246.227.579.34.999.34.583 0 1.059-.202 1.426-.606.326-.358.508-.801.544-1.328l.007-.202v-.68z" transform="translate(-17.000000, -15.000000) translate(17.000000, 15.000000) translate(0.060727, 0.000000)"/>
                    <path fill="#1DE9B6" d="M12.924 14.416c.266-.005.484.206.49.471l.15 8.201c.005.233-.157.434-.385.48l-3.304.664c-.085.017-.174.01-.256-.019-.25-.089-.38-.363-.291-.613l3.153-8.865c.067-.188.244-.316.443-.32zm1.71.394c.195-.18.5-.167.679.028l5.18 5.633c.062.067.103.15.12.238.047.261-.126.511-.386.56l-5.06.929c-.025.005-.05.007-.077.008-.265.005-.484-.206-.489-.472l-.122-6.562c-.002-.137.054-.269.155-.362zm-2.898-.994c.024.093.02.19-.012.281l-2.498 7.055c-.088.25-.363.38-.613.292-.065-.023-.125-.06-.174-.108l-5.19-5.048c-.19-.185-.194-.49-.01-.68.062-.062.139-.107.223-.13l7.688-2.006c.256-.067.519.087.586.344zm4.497-1.101l7.87 1.621c.247.051.413.285.378.536l-.839 6.1c-.036.262-.278.446-.541.41-.111-.015-.214-.07-.29-.152l-7.03-7.722c-.179-.196-.165-.5.032-.678.113-.104.27-.146.42-.115zM.596 7.465c.095-.249.372-.373.62-.278l10.796 4.128c.145.055.254.178.293.328.067.256-.088.519-.344.585L.593 15.182c-.052.014-.106.018-.16.014-.264-.021-.46-.253-.44-.517l.573-7.082c.003-.045.014-.09.03-.133zm20.838-3.653c.088.07.149.17.17.28l1.63 8.145c.053.26-.116.513-.376.565-.063.013-.128.013-.19 0l-7.002-1.437c-.26-.054-.427-.308-.374-.567.016-.075.048-.145.096-.204l5.371-6.707c.166-.207.468-.24.675-.075zm-8-1.404c.042.073.065.156.065.24v7.414c0 .265-.215.48-.48.48-.06 0-.117-.01-.172-.032L5.159 7.564c-.248-.095-.371-.373-.277-.62.04-.103.113-.188.208-.244l7.687-4.466c.23-.134.523-.056.657.174zm1.05-2.119c.088-.25.363-.38.613-.291l5.128 1.823c.05.018.098.045.14.078.207.166.24.468.074.675l-5.129 6.4c-.09.114-.228.18-.374.18-.265 0-.48-.215-.48-.48V.45c0-.055.009-.109.027-.16z" transform="translate(-17.000000, -15.000000) translate(17.000000, 15.000000) translate(0.060727, 0.000000)"/>
                    <path fill="#FFF" fill-opacity=".7" d="M117.129 5.833c1.552 0 2.81 1.259 2.81 2.811v9.379c0 1.552-1.258 2.81-2.81 2.81h-27.19V8.644c0-1.552 1.259-2.81 2.811-2.81h24.379zM94.94 8.141c-.103 0-.193.038-.27.113-.058.057-.094.124-.108.203l-.007.083v5.84c0 .416.075.804.225 1.163.15.36.357.676.623.95.265.276.572.49.919.646.347.155.721.233 1.124.233.394 0 .767-.078 1.118-.233.351-.155.66-.37.925-.645.266-.275.474-.592.624-.951.15-.36.224-.747.224-1.164 0-.408-.075-.794-.224-1.157-.15-.364-.358-.683-.624-.958-.265-.275-.574-.49-.925-.645-.351-.155-.724-.233-1.118-.233-.231 0-.463.031-.694.094-.231.062-.45.15-.655.266-.226.12-.439.278-.638.472l-.146.153V8.54c0-.116-.037-.212-.11-.287-.072-.075-.16-.113-.263-.113zm8.97 3.232c-.12 0-.238.009-.354.027-.115.017-.233.04-.353.066-.66.169-1.19.506-1.593 1.011-.403.514-.613 1.126-.63 1.836-.017.7.167 1.32.553 1.862.376.532.895.89 1.554 1.077.266.08.54.12.823.12.505 0 .972-.129 1.4-.386.438-.266.789-.638 1.054-1.117.052-.098.065-.197.039-.3-.026-.101-.086-.179-.18-.232-.043-.036-.103-.053-.18-.053-.154 0-.266.066-.334.2-.137.238-.287.431-.45.578-.163.146-.325.257-.488.332-.163.076-.321.127-.476.153-.154.027-.287.04-.398.04-.223 0-.424-.031-.604-.093-.06-.018-.15-.051-.27-.1-.12-.049-.25-.122-.392-.22-.141-.097-.278-.221-.411-.372-.1-.113-.186-.246-.259-.399l-.069-.16 4.331-1.702c.009-.009.017-.013.026-.013.008 0 .013-.005.013-.013l.05-.027c.01-.009.018-.016.027-.02.008-.004.017-.016.025-.033.017-.01.026-.018.026-.027l.003-.013.01-.013.013-.014.006-.026.02-.027v-.013c.008-.01.012-.031.012-.067.009-.009.013-.03.013-.066l-.001-.024-.005-.016c-.005-.009-.007-.022-.007-.04 0-.027-.004-.044-.013-.053l-.003-.014-.01-.013v-.026c-.256-.506-.606-.9-1.047-1.184-.44-.284-.931-.426-1.471-.426zm3.83-3.232c-.103 0-.193.038-.27.113-.058.057-.094.122-.109.196l-.007.077v5.852c0 .337.047.676.141 1.018.094.341.227.65.399.924.188.32.424.568.706.745.317.204.656.306 1.016.306.11 0 .203-.038.276-.113.073-.076.109-.171.109-.286 0-.107-.036-.198-.11-.273-.072-.075-.164-.113-.275-.113-.292 0-.527-.08-.707-.24-.18-.159-.317-.327-.411-.505-.12-.204-.215-.434-.283-.691-.052-.193-.084-.386-.097-.579l-.006-.193v-2.208h1.504c.11 0 .203-.038.276-.113.073-.075.109-.166.109-.273 0-.115-.036-.21-.11-.286-.054-.056-.12-.091-.196-.106l-.08-.007h-1.503v-2.86c0-.106-.036-.197-.11-.272-.072-.075-.16-.113-.263-.113zm5.846 3.245c-.402 0-.777.078-1.124.233-.347.155-.653.37-.919.645-.265.275-.473.594-.623.958-.15.363-.225.75-.225 1.157 0 .417.075.805.225 1.164.15.36.358.676.623.95.266.276.572.49.919.646.347.155.722.233 1.124.233.24 0 .474-.031.7-.093.228-.062.444-.151.65-.266.246-.135.463-.295.65-.481l.134-.144v.585c0 .106.036.2.109.28.073.079.16.119.263.119.112 0 .204-.04.277-.12.054-.06.088-.127.102-.202l.007-.077v-2.594c0-.408-.075-.794-.225-1.157-.15-.364-.358-.683-.623-.958-.266-.275-.574-.49-.926-.645-.35-.155-.724-.233-1.118-.233zm-16.14.785c.291 0 .568.058.829.173.261.115.488.273.681.472.193.2.345.435.456.705.112.27.167.557.167.858 0 .31-.055.599-.167.865-.111.266-.263.498-.456.698-.193.2-.42.357-.681.472-.261.115-.538.173-.829.173-.291 0-.568-.058-.829-.173-.261-.115-.488-.273-.68-.472-.194-.2-.346-.432-.457-.698-.111-.266-.167-.555-.167-.865 0-.301.056-.587.167-.858.111-.27.263-.505.456-.705.193-.2.42-.357.681-.472.261-.115.538-.173.829-.173zm16.14 0c.292 0 .568.058.83.173.26.115.488.273.68.472.193.2.345.435.456.705.112.27.168.557.168.858 0 .302-.056.588-.168.858-.11.27-.263.505-.456.705-.192.2-.42.357-.68.472-.262.115-.538.173-.83.173-.29 0-.567-.058-.829-.173-.26-.115-.488-.273-.68-.472-.193-.2-.345-.435-.457-.705-.111-.27-.167-.556-.167-.858 0-.301.056-.587.167-.858.112-.27.264-.505.456-.705.193-.2.42-.357.681-.472.262-.115.538-.173.83-.173zm-9.702 0c.103 0 .22.009.354.027.132.018.272.055.417.113.146.057.294.14.444.246.112.08.218.18.319.3l.098.126-3.778 1.49v-.147c.009-.32.064-.599.167-.838.103-.24.231-.446.386-.619.154-.172.327-.312.52-.419.193-.106.384-.181.572-.226.077-.017.158-.03.244-.04.086-.008.172-.013.257-.013z" opacity=".4" transform="translate(-17.000000, -15.000000) translate(17.000000, 15.000000) translate(0.060727, 0.000000)"/>
                </g>
            </g>
        </g>
    </g>
</svg>
