<svg width="25" height="25" xmlns="http://www.w3.org/2000/svg">

 <g>
  <title>Layer 1</title>
  <g id="svg_1" fill-rule="evenodd" fill="none">
   <g id="svg_2">
    <g id="svg_3">
     <g id="svg_4">
      <path id="svg_5" transform="translate(17 15) translate(0.060727 0)" d="m-4.076,-0.584c0.266,-0.005 0.484,0.206 0.49,0.471l0.15,8.201c0.005,0.233 -0.157,0.434 -0.385,0.48l-3.304,0.664c-0.085,0.017 -0.174,0.01 -0.256,-0.019c-0.25,-0.089 -0.38,-0.363 -0.291,-0.613l3.153,-8.865c0.067,-0.188 0.244,-0.316 0.443,-0.32l0,0.001zm1.71,0.394c0.195,-0.18 0.5,-0.167 0.679,0.028l5.18,5.633c0.062,0.067 0.103,0.15 0.12,0.238c0.047,0.261 -0.126,0.511 -0.386,0.56l-5.06,0.929c-0.025,0.005 -0.05,0.007 -0.077,0.008c-0.265,0.005 -0.484,-0.206 -0.489,-0.472l-0.122,-6.562c-0.002,-0.137 0.054,-0.269 0.155,-0.362zm-2.898,-0.994c0.024,0.093 0.02,0.19 -0.012,0.281l-2.498,7.055c-0.088,0.25 -0.363,0.38 -0.613,0.292c-0.065,-0.023 -0.125,-0.06 -0.174,-0.108l-5.19,-5.048c-0.19,-0.185 -0.194,-0.49 -0.01,-0.68c0.062,-0.062 0.139,-0.107 0.223,-0.13l7.688,-2.006c0.256,-0.067 0.519,0.087 0.586,0.344zm4.497,-1.101l7.87,1.621c0.247,0.051 0.413,0.285 0.378,0.536l-0.839,6.1c-0.036,0.262 -0.278,0.446 -0.541,0.41c-0.111,-0.015 -0.214,-0.07 -0.29,-0.152l-7.03,-7.722c-0.179,-0.196 -0.165,-0.5 0.032,-0.678c0.113,-0.104 0.27,-0.146 0.42,-0.115zm-15.637,-5.25c0.095,-0.249 0.372,-0.373 0.62,-0.278l10.796,4.128c0.145,0.055 0.254,0.178 0.293,0.328c0.067,0.256 -0.088,0.519 -0.344,0.585l-11.368,2.954c-0.052,0.014 -0.106,0.018 -0.16,0.014c-0.264,-0.021 -0.46,-0.253 -0.44,-0.517l0.573,-7.082c0.003,-0.045 0.014,-0.09 0.03,-0.133l0,0.001zm20.838,-3.653c0.088,0.07 0.149,0.17 0.17,0.28l1.63,8.145c0.053,0.26 -0.116,0.513 -0.376,0.565c-0.063,0.013 -0.128,0.013 -0.19,0l-7.002,-1.437c-0.26,-0.054 -0.427,-0.308 -0.374,-0.567c0.016,-0.075 0.048,-0.145 0.096,-0.204l5.371,-6.707c0.166,-0.207 0.468,-0.24 0.675,-0.075zm-8,-1.404c0.042,0.073 0.065,0.156 0.065,0.24l0,7.414c0,0.265 -0.215,0.48 -0.48,0.48c-0.06,0 -0.117,-0.01 -0.172,-0.032l-7.688,-2.946c-0.248,-0.095 -0.371,-0.373 -0.277,-0.62c0.04,-0.103 0.113,-0.188 0.208,-0.244l7.687,-4.466c0.23,-0.134 0.523,-0.056 0.657,0.174zm1.05,-2.119c0.088,-0.25 0.363,-0.38 0.613,-0.291l5.128,1.823c0.05,0.018 0.098,0.045 0.14,0.078c0.207,0.166 0.24,0.468 0.074,0.675l-5.129,6.4c-0.09,0.114 -0.228,0.18 -0.374,0.18c-0.265,0 -0.48,-0.215 -0.48,-0.48l0,-8.224c0,-0.055 0.009,-0.109 0.027,-0.16l0.001,-0.001z" fill="#1DE9B6"/>
     </g>
    </g>
   </g>
  </g>
 </g>
</svg>