<svg width="111" height="32" viewBox="0 0 111 32" fill="none" xmlns="http://www.w3.org/2000/svg">
<path fill-rule="evenodd" clip-rule="evenodd" d="M41.4336 25.6448V19.0497H41.4856L45.7349 25.6448H50.6599L45.553 18.5953L50.0004 12.7718L51.4817 10.8191H46.6087L45.182 12.7643L41.4856 18.4914H41.4336V0.672546L37.3273 1.73069V25.6448H41.4336ZM55.3814 25.6448V19.278C55.3814 18.1496 55.6314 17.2577 56.1315 16.6023C56.6315 15.947 57.3255 15.6193 58.2135 15.6193H61.5154L65.5669 25.6773L64.868 27.3381C64.4539 28.3407 63.7206 28.842 62.668 28.842C62.0296 28.842 61.4386 28.6808 60.895 28.3582V31.6537C61.5335 31.8804 62.3488 31.9937 63.3409 31.9937C65.9465 31.9937 67.8963 30.2544 69.1904 26.7758L74.574 12.3122H70.5234L68.0257 20.4856C67.8187 21.1569 67.6763 21.7454 67.5987 22.251H67.5469C67.4606 21.5623 67.3398 20.9651 67.1845 20.4594L64.8039 12.6126C64.7497 12.4342 64.5853 12.3122 64.3988 12.3122H63.3577H60.1833H58.9516C57.2705 12.3122 56.0797 12.9806 55.4331 14.786H55.3814V12.3122H51.2949V25.6448H55.3814ZM77.6454 26.4913C78.4545 26.4913 79.2351 26.4099 79.9871 26.2471C80.7392 26.0843 81.4032 25.8246 81.9793 25.4682C82.5554 25.1117 83.0172 24.6496 83.3646 24.0819C83.712 23.5142 83.8857 22.8299 83.8857 22.029C83.8857 21.4569 83.8 20.964 83.6285 20.5504C83.4569 20.1367 83.2107 19.7758 82.8896 19.4678C82.5686 19.1597 82.1838 18.8913 81.7352 18.6624C81.2867 18.4336 80.7853 18.2224 80.2312 18.0287C79.9234 17.9231 79.6133 17.8197 79.3011 17.7185C78.9889 17.6173 78.7052 17.5028 78.4501 17.3752C78.1951 17.2476 77.9884 17.0958 77.8301 16.9198C77.6717 16.7437 77.587 16.6382 77.587 16.3918C77.587 16.2069 77.6454 16.0677 77.7509 15.9224C77.8564 15.7772 78.0016 15.6584 78.1863 15.566C78.371 15.4736 78.5843 15.4031 78.8261 15.3547C79.068 15.3063 79.3253 15.2821 79.5979 15.2821H83.0677V15.2802H84.5784V21.5324C84.5784 24.5562 86.0365 26.0681 88.9527 26.0681C90.1838 26.0681 91.1049 25.9069 91.7161 25.5844V22.5258C91.2533 22.7785 90.8037 22.9048 90.3671 22.9048C89.2583 22.9048 88.7039 22.2077 88.7039 20.8134V15.2802H91.7161V12.3122H88.7039V8.29123L84.5784 9.46764V12.3122H82.4044L79.4264 12.3122C78.6612 12.3122 77.9246 12.3936 77.2166 12.5564C76.5085 12.7193 75.8797 12.9745 75.33 13.3222C74.7802 13.6698 74.3405 14.1165 74.0106 14.6622C73.6808 15.2079 73.5159 15.8592 73.5159 16.6161C73.5159 17.1706 73.5885 17.6503 73.7336 18.0551C73.8787 18.46 74.0898 18.8165 74.3669 19.1245C74.6439 19.4326 74.9869 19.7032 75.3959 19.9365C75.8049 20.1697 76.2777 20.3875 76.8142 20.59C77.1484 20.722 77.4958 20.8408 77.8564 20.9464C78.2171 21.052 78.5491 21.1709 78.8525 21.3029C79.156 21.4349 79.4044 21.5889 79.5979 21.765C79.7914 21.941 79.8882 22.161 79.8882 22.4251C79.8882 22.8387 79.6749 23.1468 79.2483 23.3492C78.8217 23.5517 78.239 23.6529 77.5002 23.6529C76.8933 23.6529 76.2491 23.5517 75.5674 23.3492C74.8858 23.1468 74.2019 22.8387 73.5159 22.4251V25.8048C74.7824 26.2625 76.1589 26.4913 77.6454 26.4913ZM100.263 23.6196C99.3709 25.1108 98.0494 25.8565 96.2989 25.8565C95.0077 25.8565 93.9916 25.4902 93.2507 24.7575C92.5097 24.0249 92.1393 23.0474 92.1393 21.8249C92.1393 19.2412 93.6688 17.7499 96.7278 17.3511L100.341 16.8699C100.341 15.4133 99.5529 14.6851 97.9757 14.6851C96.3899 14.6851 94.882 15.1576 93.4521 16.1026V13.0074C94.0241 12.7126 94.8062 12.4525 95.7984 12.2271C96.7907 12.0017 97.6941 11.889 98.5087 11.889C102.304 11.889 104.202 13.7834 104.202 17.5722V25.5313H100.315V23.6196H100.263ZM96.4094 22.4947C96.7344 22.7938 97.1742 22.9434 97.7288 22.9434C98.5001 22.9434 99.1283 22.6767 99.6136 22.1435C100.099 21.6103 100.342 20.9362 100.342 20.1212V19.2239L97.9238 19.536C96.5892 19.7094 95.922 20.312 95.922 21.3437C95.922 21.8119 96.0845 22.1956 96.4094 22.4947ZM110.551 25.8634C110.002 26.0226 109.5 26.0681 108.791 26.0681C106.094 26.0681 104.837 24.8172 104.837 22.4518V5.54006H108.86V21.9969C108.86 22.2926 109.02 22.5428 109.271 22.5428C109.705 22.5428 109.911 22.5428 110.437 22.4746H110.551V25.8634Z" fill="white"/>
<path fill-rule="evenodd" clip-rule="evenodd" d="M19.1825 0.73026C19.1825 0.226123 19.6815 -0.126113 20.1565 0.0427746L26.6802 2.36224C27.1529 2.53033 27.3189 3.11443 27.0051 3.506L20.4815 11.6468C20.0504 12.1848 19.1825 11.88 19.1825 11.1905V0.73026ZM6.97896 8.75394C6.44887 9.06194 6.51195 9.84675 7.08442 10.0661L16.9274 13.8384C17.4052 14.0215 17.9181 13.6687 17.9181 13.1571V3.66564C17.9181 3.10307 17.3083 2.75213 16.8219 3.03476L6.97896 8.75394ZM0.00245554 18.9575C-0.03797 19.4579 0.427318 19.8487 0.913229 19.7225L15.5164 15.928C16.2037 15.7495 16.2568 14.7939 15.5935 14.5403L1.72521 9.23771C1.27064 9.0639 0.776538 9.37539 0.737351 9.86049L0.00245554 18.9575ZM15.4288 18.5445C15.6242 17.9928 15.1231 17.4472 14.5568 17.595L4.7361 20.158C4.18621 20.3015 4.00423 20.9908 4.41161 21.387L11.0417 27.836C11.4232 28.207 12.0607 28.0581 12.2383 27.5564L15.4288 18.5445ZM20.9345 15.048C20.4004 14.9383 20.1709 14.3028 20.5117 13.8771L27.3838 5.29557C27.7712 4.81181 28.5472 5.00076 28.6688 5.60847L30.7543 16.0289C30.8568 16.5411 30.4037 16.9919 29.8921 16.8869L20.9345 15.048ZM21.8172 16.8072C21.1252 16.6647 20.6547 17.4907 21.1304 18.0131L30.0863 27.8489C30.5029 28.3064 31.2643 28.0702 31.3486 27.4571L32.4177 19.6869C32.47 19.3063 32.2183 18.9503 31.8421 18.8728L21.8172 16.8072ZM17.815 20.1937C17.8001 19.3821 16.6701 19.1979 16.3981 19.9627L12.4635 31.0253C12.2735 31.5595 12.7388 32.0968 13.2946 31.9852L17.418 31.1572C17.7637 31.0878 18.0104 30.781 18.0038 30.4284L17.815 20.1937ZM19.2182 20.2988C19.2057 19.6274 20.0302 19.2971 20.4848 19.7913L27.0435 26.9225C27.4322 27.3451 27.2031 28.0303 26.6383 28.1341L20.2339 29.3107C19.7911 29.3921 19.3809 29.0568 19.3726 28.6066L19.2182 20.2988Z" fill="#1DE9B6"/>
</svg>
