<svg width="416" height="155" viewBox="0 0 416 155" fill="none" xmlns="http://www.w3.org/2000/svg">
   <path fill-rule="evenodd" clip-rule="evenodd"
      d="M295.926 87.9004V145.541H303.038V78.6035L295.926 87.9004ZM313.902 145.541V87.9004L321.014 78.6035V145.541H313.902ZM408.001 138.424C395.2 138.424 394.196 137.671 394.196 123.028V108.971H407.834V101.859H394.196V85.2921L387.083 94.5889V101.859H377.963V108.971H387.083V123.028C387.083 140.683 388.59 145.536 408.001 145.536V138.424ZM351.351 139.682C343.486 139.682 337.713 134.578 336.625 126.546H372.855C373.691 112.405 365.157 100.942 351.351 100.942C338.633 100.942 329.345 111.234 329.345 123.785C329.345 136.587 338.633 146.795 351.351 146.795C359.384 146.795 366.161 142.946 370.01 136.168L364.739 132.403C361.81 137.172 357.041 139.682 351.351 139.682ZM336.709 120.856C337.88 113.242 343.57 107.971 351.351 107.971C359.3 107.971 364.739 112.991 365.826 120.856H336.709ZM264.599 101.025C277.735 101.025 284.178 109.058 284.178 119.684V145.539H277.233L278.488 132.235H277.066C274.556 142.192 268.615 146.71 260.833 146.71C249.287 146.71 245.019 140.602 245.019 133.657C245.019 122.696 253.889 118.847 268.699 118.847H277.4C277.066 112.07 271.794 108.221 264.599 108.221C258.24 108.221 254.976 111.401 252.132 116.17L255.571 104.93C255.571 104.93 257.854 101.845 264.599 101.025ZM261.335 139.514C270.539 139.514 275.476 132.821 276.898 124.621H268.699C257.654 124.621 252.048 126.964 252.048 132.904C252.048 136.837 255.06 139.514 261.335 139.514ZM240.227 101.87H232.696L224.413 140.61H219.727L210.607 101.87H203.077L194.793 140.61H190.024L180.987 101.87H173.457L183.665 145.547H201.236L204.415 128.478L207.009 117.349L209.854 128.561L213.368 145.547H230.856L240.227 101.87Z"
      fill="#1DE9B6" />
   <path fill-rule="evenodd" clip-rule="evenodd"
      d="M250.921 15.2699C237.868 15.2699 237.45 17.1944 237.45 31.8369H250.921V38.949H237.45V75.5136H230.338V38.949H221.05V31.8369H230.254C230.338 14.7679 232.011 8.57617 250.921 8.57617V15.2699ZM275.523 52.9968C275.523 67.6394 276.527 68.3924 289.329 68.3924V75.5045C269.917 75.5045 268.411 70.6515 268.411 52.9968V38.9399H259.291V31.8278H268.411V24.5577L275.523 15.2608V31.8278H289.162V38.9399H275.523V52.9968ZM212.667 50.8426C212.667 36.8694 206.308 30.6777 195.179 30.6777C186.812 30.6777 181.541 35.196 179.616 44.9019H177.943L180.118 31.8491L172.923 41.146V75.5258H180.118V54.5242C180.118 42.8938 186.812 37.8735 194.175 37.8735C201.12 37.8735 205.555 41.9734 205.555 50.8426V75.5258H212.667V50.8426Z"
      fill="#1DE9B6" />
   <path fill-rule="evenodd" clip-rule="evenodd"
      d="M56.6427 56.0016H90.3438L90.3438 146.826H135.666V8.53516H85.6954L56.6427 56.0016ZM8.00071 8.55764H55.4671V56.024H8.00071V8.55764ZM8 99.1562H55.4665V146.623H8V99.1562Z"
      fill="url(#paint0_linear_105_3802)" />
   <path fill-rule="evenodd" clip-rule="evenodd"
      d="M56.6427 56.0016H90.3438L90.3438 146.826H135.666V8.53516H85.6954L56.6427 56.0016ZM8.00071 8.55764H55.4671V56.024H8.00071V8.55764ZM8 99.1562H55.4665V146.623H8V99.1562Z"
      fill="#1DE9B6" />
   <defs>
      <linearGradient id="paint0_linear_105_3802" x1="133.141" y1="8.42874" x2="-10.7964"
         y2="136.132" gradientUnits="userSpaceOnUse">
         <stop stop-color="#002119" />
         <stop offset="1" stop-color="#1DE9B6" />
      </linearGradient>
   </defs>
</svg>