<svg width="206" height="56" viewBox="0 0 206 56" fill="none" xmlns="http://www.w3.org/2000/svg">
<circle cx="1.23017" cy="1.07685" r="0.769231" fill="#1DE9B6" fill-opacity="0.5"/>
<circle cx="55.0765" cy="1.07685" r="0.769231" transform="rotate(90 55.0765 1.07685)" fill="#1DE9B6" fill-opacity="0.5"/>
<circle cx="8.92255" cy="1.07685" r="0.769231" fill="#1DE9B6" fill-opacity="0.5"/>
<circle cx="8.92255" cy="54.9226" r="0.769231" fill="#1DE9B6" fill-opacity="0.5"/>
<circle cx="1.23077" cy="8.76923" r="0.769231" transform="rotate(90 1.23077 8.76923)" fill="#1DE9B6" fill-opacity="0.5"/>
<circle cx="9.69201" cy="9.53846" r="1.53846" transform="rotate(90 9.69201 9.53846)" fill="#1DE9B6" fill-opacity="0.75"/>
<circle cx="46.6149" cy="9.53846" r="1.53846" transform="rotate(90 46.6149 9.53846)" fill="#1DE9B6" fill-opacity="0.75"/>
<circle cx="55.0765" cy="8.76923" r="0.769231" transform="rotate(90 55.0765 8.76923)" fill="#1DE9B6" fill-opacity="0.5"/>
<circle cx="16.6149" cy="1.07685" r="0.769231" fill="#1DE9B6" fill-opacity="0.5"/>
<circle cx="17.3842" cy="9.53846" r="1.53846" fill="#1DE9B6" fill-opacity="0.75"/>
<circle cx="17.3842" cy="47.9994" r="1.53846" fill="#1DE9B6" fill-opacity="0.75"/>
<circle cx="16.6149" cy="54.9226" r="0.769231" fill="#1DE9B6" fill-opacity="0.5"/>
<circle cx="1.23077" cy="16.4616" r="0.769231" transform="rotate(90 1.23077 16.4616)" fill="#1DE9B6" fill-opacity="0.5"/>
<circle cx="9.69201" cy="17.2308" r="1.53846" transform="rotate(90 9.69201 17.2308)" fill="#1DE9B6" fill-opacity="0.75"/>
<circle cx="46.6149" cy="17.2308" r="1.53846" transform="rotate(90 46.6149 17.2308)" fill="#1DE9B6" fill-opacity="0.75"/>
<circle cx="39.6923" cy="18.0001" r="2.30769" transform="rotate(90 39.6923 18.0001)" fill="#1DE9B6"/>
<circle cx="31.9999" cy="18.0001" r="2.30769" transform="rotate(90 31.9999 18.0001)" fill="#1DE9B6"/>
<circle cx="31.9999" cy="41.0772" r="2.30769" transform="rotate(90 31.9999 41.0772)" fill="#1DE9B6"/>
<circle cx="24.3075" cy="18.0001" r="2.30769" transform="rotate(90 24.3075 18.0001)" fill="#1DE9B6"/>
<circle cx="24.3075" cy="41.0772" r="2.30769" transform="rotate(90 24.3075 41.0772)" fill="#1DE9B6"/>
<circle cx="16.6152" cy="18.0001" r="2.30769" transform="rotate(90 16.6152 18.0001)" fill="#1DE9B6"/>
<circle cx="55.0765" cy="16.4616" r="0.769231" transform="rotate(90 55.0765 16.4616)" fill="#1DE9B6" fill-opacity="0.5"/>
<circle cx="24.3073" cy="1.07685" r="0.769231" fill="#1DE9B6" fill-opacity="0.5"/>
<circle cx="24.3073" cy="25.6921" r="0.769231" fill="#1DE9B6" fill-opacity="0.5"/>
<circle cx="24.3073" cy="33.3845" r="0.769231" fill="#1DE9B6" fill-opacity="0.5"/>
<circle cx="25.0765" cy="9.53846" r="1.53846" fill="#1DE9B6" fill-opacity="0.75"/>
<circle cx="25.0765" cy="47.9994" r="1.53846" fill="#1DE9B6" fill-opacity="0.75"/>
<circle cx="24.3073" cy="54.9226" r="0.769231" fill="#1DE9B6" fill-opacity="0.5"/>
<circle cx="1.23077" cy="24.154" r="0.769231" transform="rotate(90 1.23077 24.154)" fill="#1DE9B6" fill-opacity="0.5"/>
<circle cx="9.69201" cy="24.9232" r="1.53846" transform="rotate(90 9.69201 24.9232)" fill="#1DE9B6" fill-opacity="0.75"/>
<circle cx="46.6149" cy="24.9232" r="1.53846" transform="rotate(90 46.6149 24.9232)" fill="#1DE9B6" fill-opacity="0.75"/>
<circle cx="39.6923" cy="25.6925" r="2.30769" transform="rotate(90 39.6923 25.6925)" fill="#1DE9B6"/>
<circle cx="16.6152" cy="25.6925" r="2.30769" transform="rotate(90 16.6152 25.6925)" fill="#1DE9B6"/>
<circle cx="55.0765" cy="24.154" r="0.769231" transform="rotate(90 55.0765 24.154)" fill="#1DE9B6" fill-opacity="0.5"/>
<circle cx="31.9997" cy="1.07685" r="0.769231" fill="#1DE9B6" fill-opacity="0.5"/>
<circle cx="31.9997" cy="25.6921" r="0.769231" fill="#1DE9B6" fill-opacity="0.5"/>
<circle cx="31.9997" cy="33.3845" r="0.769231" fill="#1DE9B6" fill-opacity="0.5"/>
<circle cx="32.7689" cy="9.53846" r="1.53846" fill="#1DE9B6" fill-opacity="0.75"/>
<circle cx="32.7689" cy="47.9994" r="1.53846" fill="#1DE9B6" fill-opacity="0.75"/>
<circle cx="31.9997" cy="54.9226" r="0.769231" fill="#1DE9B6" fill-opacity="0.5"/>
<circle cx="1.23077" cy="31.8464" r="0.769231" transform="rotate(90 1.23077 31.8464)" fill="#1DE9B6" fill-opacity="0.5"/>
<circle cx="9.69201" cy="32.6156" r="1.53846" transform="rotate(90 9.69201 32.6156)" fill="#1DE9B6" fill-opacity="0.75"/>
<circle cx="46.6149" cy="32.6156" r="1.53846" transform="rotate(90 46.6149 32.6156)" fill="#1DE9B6" fill-opacity="0.75"/>
<circle cx="39.6923" cy="33.3848" r="2.30769" transform="rotate(90 39.6923 33.3848)" fill="#1DE9B6"/>
<circle cx="16.6152" cy="33.3848" r="2.30769" transform="rotate(90 16.6152 33.3848)" fill="#1DE9B6"/>
<circle cx="55.0765" cy="31.8464" r="0.769231" transform="rotate(90 55.0765 31.8464)" fill="#1DE9B6" fill-opacity="0.5"/>
<circle cx="39.6921" cy="1.07685" r="0.769231" fill="#1DE9B6" fill-opacity="0.5"/>
<circle cx="40.4613" cy="9.53846" r="1.53846" fill="#1DE9B6" fill-opacity="0.75"/>
<circle cx="40.4613" cy="47.9994" r="1.53846" fill="#1DE9B6" fill-opacity="0.75"/>
<circle cx="39.6921" cy="54.9226" r="0.769231" fill="#1DE9B6" fill-opacity="0.5"/>
<circle cx="1.23077" cy="39.5388" r="0.769231" transform="rotate(90 1.23077 39.5388)" fill="#1DE9B6" fill-opacity="0.5"/>
<circle cx="9.69201" cy="40.308" r="1.53846" transform="rotate(90 9.69201 40.308)" fill="#1DE9B6" fill-opacity="0.75"/>
<circle cx="46.6149" cy="40.308" r="1.53846" transform="rotate(90 46.6149 40.308)" fill="#1DE9B6" fill-opacity="0.75"/>
<circle cx="39.6923" cy="41.0772" r="2.30769" transform="rotate(90 39.6923 41.0772)" fill="#1DE9B6"/>
<circle cx="16.6152" cy="41.0772" r="2.30769" transform="rotate(90 16.6152 41.0772)" fill="#1DE9B6"/>
<circle cx="55.0765" cy="39.5388" r="0.769231" transform="rotate(90 55.0765 39.5388)" fill="#1DE9B6" fill-opacity="0.5"/>
<circle cx="47.3845" cy="1.07685" r="0.769231" fill="#1DE9B6" fill-opacity="0.5"/>
<circle cx="47.3845" cy="54.9226" r="0.769231" fill="#1DE9B6" fill-opacity="0.5"/>
<circle cx="1.23077" cy="47.2311" r="0.769231" transform="rotate(90 1.23077 47.2311)" fill="#1DE9B6" fill-opacity="0.5"/>
<circle cx="9.69201" cy="47.9994" r="1.53846" transform="rotate(90 9.69201 47.9994)" fill="#1DE9B6" fill-opacity="0.75"/>
<circle cx="46.6149" cy="47.9994" r="1.53846" transform="rotate(90 46.6149 47.9994)" fill="#1DE9B6" fill-opacity="0.75"/>
<circle cx="55.0765" cy="47.2302" r="0.769231" transform="rotate(90 55.0765 47.2302)" fill="#1DE9B6" fill-opacity="0.5"/>
<circle cx="1.23077" cy="54.9226" r="0.769231" transform="rotate(90 1.23077 54.9226)" fill="#1DE9B6" fill-opacity="0.5"/>
<circle cx="55.0765" cy="54.9226" r="0.769231" transform="rotate(90 55.0765 54.9226)" fill="#1DE9B6" fill-opacity="0.5"/>
<path d="M82.5291 19.8462H85.5061V36H81.7907L75.1215 23.6538V36H72.1445V19.8462H76.183L82.5291 31.6385V19.8462ZM99.552 22.5923H91.8904V27.2769H98.6058V30H91.8904V36H88.8212V19.8462H99.552V22.5923ZM114.719 19.8462V22.5923H109.273V36H106.204V22.5923H100.758V19.8462H114.719ZM135.943 19.8462H137.42L132.666 36H130.866L126.505 21.5077L122.051 36H120.251L115.497 19.8462H117.043L121.266 34.2692L125.513 19.8462H127.451L131.813 34.3385L135.943 19.8462ZM150.875 36L149.191 31.8H140.86L139.175 36H137.606L144.206 19.8462H145.845L152.422 36H150.875ZM141.345 30.5538H148.683L145.014 21.4154L141.345 30.5538ZM156.313 34.7538H164.713V36H154.836V19.8462H156.313V34.7538ZM168.956 34.7538H177.356V36H167.479V19.8462H168.956V34.7538ZM181.599 34.7538H190.645V36H180.122V19.8462H190.46V21.0923H181.599V27.0692H189.63V28.3154H181.599V34.7538ZM205.733 19.8462V21.0923H199.733V36H198.256V21.0923H192.256V19.8462H205.733Z" fill="#1DE9B6"/>
</svg>
