<svg xmlns="http://www.w3.org/2000/svg" width="20" height="20" viewBox="0 0 20 20">
    <g fill="none" fill-rule="evenodd" opacity=".5">
        <g>
            <g>
                <g>
                    <path d="M0 0L24 0 24 24 0 24z" transform="translate(-347.000000, -601.000000) translate(328.000000, 577.000000) translate(17.000000, 22.000000)"/>
                    <path stroke="#FFF" stroke-linecap="round" stroke-linejoin="round" stroke-opacity=".95" d="M12 21h0c-4.971 0-9-4.029-9-9h0c0-4.971 4.029-9 9-9h0c4.971 0 9 4.029 9 9h0c0 4.971-4.029 9-9 9zM12 9L12 15" transform="translate(-347.000000, -601.000000) translate(328.000000, 577.000000) translate(17.000000, 22.000000)"/>
                    <path stroke="#FFF" stroke-linecap="round" stroke-linejoin="round" stroke-opacity=".95" d="M9.5 12.5L12 15 14.5 12.5" transform="translate(-347.000000, -601.000000) translate(328.000000, 577.000000) translate(17.000000, 22.000000)"/>
                </g>
            </g>
        </g>
    </g>
</svg>
