<svg width="54" height="54" viewBox="0 0 54 54" xmlns="http://www.w3.org/2000/svg">
    <g fill="none" fill-rule="evenodd" stroke-linecap="round" stroke-linejoin="round">
        <g stroke="current" stroke-opacity=".95" stroke-width="1.5">
            <path d="M28.017 7.55a7.566 7.566 0 1 1-10.7 10.7 7.566 7.566 0 0 1 10.7-10.7M32.12 28.725c-2.815-1.125-6.117-1.744-9.453-1.744-8.771 0-17.334 4.261-17.334 10.816v2.166c0 1.196.971 2.167 2.167 2.167h20.395"/>
            <path d="M37.833 48.667C31.851 48.667 27 43.817 27 37.833c0-5.858 4.983-10.84 10.842-10.833 5.98.004 10.825 4.853 10.825 10.833 0 5.983-4.85 10.834-10.834 10.834M37.833 33.5v8.666M42.166 37.833H33.5"/>
        </g>
    </g>
</svg>
