<svg width="54" height="54" viewBox="0 0 54 54" xmlns="http://www.w3.org/2000/svg">
    <g fill="none" fill-rule="evenodd" stroke-linecap="round" stroke-linejoin="round">
        <path d="M20.433 16.72a9.285 9.285 0 0 1 13.131 0 9.285 9.285 0 0 1 0 13.132 9.285 9.285 0 0 1-13.131 0 9.285 9.285 0 0 1 0-13.132M16.45 38.22l4.135.553 2.591 1.979-5.496 9.52-1.722-4.446-4.712.732 4.85-8.398c.117.024.235.044.354.06zM37.903 38.162l4.848 8.396-4.712-.732-1.721 4.446-5.497-9.52 2.594-1.982h-.004l4.127-.546c.123-.016.245-.037.365-.062z" stroke-opacity=".95" stroke="current" stroke-width="1.5"/>
        <path d="m8.982 26.387 2.531 3.314.547 4.125a5.109 5.109 0 0 0 4.39 4.394l4.135.553 3.311 2.53a5.108 5.108 0 0 0 6.206 0l3.313-2.533h-.004l4.127-.546a5.109 5.109 0 0 0 4.394-4.39l.55-4.135c0 .002 1.28-1.674 2.532-3.312a5.111 5.111 0 0 0 0-6.205l-2.527-3.313-.547-4.125a5.109 5.109 0 0 0-4.39-4.394l-4.137-.551-3.311-2.53a5.108 5.108 0 0 0-6.206 0L20.583 7.8h.004l-4.127.549a5.109 5.109 0 0 0-4.394 4.39l-.553 4.135c0-.002-1.28 1.673-2.531 3.311a5.111 5.111 0 0 0 0 6.203h0z" stroke-opacity=".95" stroke="current" stroke-width="1.5"/>
    </g>
</svg>
