<svg xmlns="http://www.w3.org/2000/svg" width="24" height="24" viewBox="0 0 24 24">
    <g fill="none" fill-rule="evenodd">
        <g>
            <g>
                <g>
                    <g>
                        <path fill="#070A0E" fill-rule="nonzero" d="M12 24c6.628 0 12-5.372 12-12S18.628 0 12 0 0 5.372 0 12s5.372 12 12 12z" transform="translate(-650 -412) translate(588 357) translate(19 46) translate(43 9)"/>
                        <path fill="#00D395" d="M6.932 16.024c-.358-.22-.578-.61-.578-1.03v-2.345c0-.278.227-.504.505-.503.089 0 .177.024.253.069l5.291 3.085c.31.18.5.511.5.87v2.429c.002.333-.268.605-.602.605-.111 0-.222-.032-.317-.09l-5.052-3.09zm7.887-4.451c.31.18.499.512.5.87v4.93c0 .145-.078.279-.205.35l-1.158.651c-.014.009-.03.015-.047.02v-2.738c0-.354-.186-.682-.49-.865l-4.647-2.779v-3.09c0-.278.227-.504.505-.503.089 0 .177.024.253.069l5.289 3.085zm2.316-3.641c.31.18.501.512.501.871v7.2c0 .148-.082.283-.212.354l-1.098.593v-5.012c0-.354-.186-.682-.488-.864l-4.75-2.85v-2.93c0-.088.024-.176.067-.253.14-.24.449-.321.689-.182l5.29 3.073z" transform="translate(-650 -412) translate(588 357) translate(19 46) translate(43 9)"/>
                    </g>
                </g>
            </g>
        </g>
    </g>
</svg>
