<?xml version="1.0" encoding="UTF-8"?>
<svg width="40px" height="40px" viewBox="0 0 40 40" version="1.1" xmlns="http://www.w3.org/2000/svg" xmlns:xlink="http://www.w3.org/1999/xlink">
    <title>DAB69019-8A2D-4B91-8785-1A1D5BA20A84</title>
    <defs>
        <linearGradient x1="50%" y1="0%" x2="50%" y2="100%" id="linearGradient-1">
            <stop stop-color="#FCBF3F" offset="0%"></stop>
            <stop stop-color="#FFB41F" offset="100%"></stop>
        </linearGradient>
    </defs>
    <g id="Landing-Page" stroke="none" stroke-width="1" fill="none" fill-rule="evenodd">
        <g id="Krystal_Landing_page" transform="translate(-1118.000000, -4015.000000)" fill-rule="nonzero">
            <g id="Group" transform="translate(1118.000000, 4015.000000)">
                <g id="V" fill="url(#linearGradient-1)">
                    <path d="M20,40 C8.95440002,40 0,31.0456 0,20 C0,8.95420001 8.95440002,0 20,0 C31.0458,0 40,8.95420001 40,20 C40,31.0456 31.0458,40 20,40 Z" id="Mask"></path>
                </g>
                <path d="M30.8923077,21.2592554 C31.5040693,21.2592554 32,21.8304198 32,22.5349867 C32,23.2143906 31.5388603,23.7697504 30.957393,23.8085524 L30.8923077,23.810718 L24.379,23.81 L20.8561949,33.2697973 L20.8312452,33.3313676 C20.6537387,33.7358659 20.2681632,33.98621 19.8554564,33.9994475 L19.8113217,33.9999476 C19.796395,33.9998228 19.7813698,33.9993742 19.766326,33.9986072 C19.3535481,33.98621 18.9679726,33.7358659 18.7904661,33.3313676 L18.7655164,33.2697973 L15.241,23.81 L9.10769231,23.810718 C8.49593074,23.810718 8,23.2395537 8,22.5349867 C8,21.8555829 8.46113968,21.300223 9.04260697,21.261421 L9.10769231,21.2592554 L30.8923077,21.2592554 Z M22.008,23.81 L17.612,23.81 L19.8106868,29.711 L22.008,23.81 Z M29.0567513,8.07474635 C29.5902471,8.28303938 29.875521,8.86775565 29.7339469,9.42055664 L29.6970111,9.53837669 L27.02,16.723 L30.8923077,16.7233218 C31.5040693,16.7233218 32,17.2944861 32,17.9990531 C32,18.678457 31.5388603,19.2338168 30.957393,19.2726188 L30.8923077,19.2747844 L9.10769231,19.2747844 C8.49593074,19.2747844 8,18.7036201 8,17.9990531 C8,17.3196492 8.46113968,16.7642894 9.04260697,16.7254874 L9.10769231,16.7233218 L12.6,16.723 L9.92470022,9.53837669 C9.70670329,8.95320707 9.99335733,8.29791745 10.5649599,8.07474635 C11.1161482,7.85954565 11.7310256,8.12473073 11.9697068,8.6686324 L11.9946564,8.73020265 L14.971,16.723 L24.649,16.723 L27.6270549,8.73020265 L27.6520045,8.6686324 C27.8906856,8.12473073 28.5055631,7.85954565 29.0567513,8.07474635 Z" id="Combined-Shape" fill="#FFFFFF"></path>
            </g>
        </g>
    </g>
</svg>