<svg width="64" height="54" xmlns="http://www.w3.org/2000/svg">
    <g fill-rule="nonzero" fill="none">
        <ellipse fill="#F2BE37" cx="32.233" cy="22.178" rx="22.342" ry="22.178"/>
        <g fill="#0F0F0F">
            <path d="M24.896 24V13.768h-1.184c-.32.245-.644.433-.972.564-.328.13-.665.217-1.012.26v1.472c.277-.01.555-.057.832-.14.277-.083.55-.201.816-.356V24h1.52zm6.52.208c.827 0 1.528-.127 2.104-.38.576-.253 1.013-.601 1.312-1.044.299-.443.448-.952.448-1.528 0-.683-.208-1.245-.624-1.688-.416-.443-.995-.795-1.736-1.056l-2.16-.792c-.459-.16-.796-.339-1.012-.536-.216-.197-.324-.461-.324-.792 0-.4.17-.732.512-.996.341-.264.816-.396 1.424-.396.63 0 1.11.128 1.444.384a1.6 1.6 0 0 1 .612 1.04h1.496c-.085-.864-.428-1.547-1.028-2.048-.6-.501-1.441-.752-2.524-.752-1.141 0-2.027.252-2.656.756-.63.504-.944 1.159-.944 1.964 0 .71.213 1.263.64 1.66.427.397 1.048.748 1.864 1.052l1.896.704c.49.165.856.367 1.096.604.24.237.36.55.36.94 0 .288-.092.544-.276.768-.184.224-.444.403-.78.536s-.723.2-1.16.2c-.432 0-.827-.068-1.184-.204a1.91 1.91 0 0 1-.86-.628c-.216-.283-.324-.645-.324-1.088h-1.488c.016.736.201 1.35.556 1.84.355.49.823.86 1.404 1.108a4.823 4.823 0 0 0 1.912.372zM41.232 24v-8.88h3.256v-1.312h-8.032v1.312h3.256V24h1.52zM23.672 33v-1.888h.88c.584 0 1.04-.144 1.366-.432.327-.288.49-.693.49-1.216 0-.528-.163-.936-.49-1.224-.327-.288-.782-.432-1.366-.432H22.72V33h.952zm.88-2.712h-.88v-1.664h.88c.293 0 .515.079.664.236.15.157.224.359.224.604 0 .24-.075.437-.224.592-.15.155-.37.232-.664.232zM28.332 33v-2.024h.719L30.196 33h1.232l-1.386-2.107c.225-.059.418-.146.58-.26l.116-.091c.332-.29.498-.67.498-1.142 0-.48-.166-.865-.498-1.156-.332-.29-.809-.436-1.43-.436h-1.92V33h.944zm.88-2.656h-.88v-1.72h.976c.315 0 .553.08.716.238.163.159.244.367.244.626 0 .253-.09.46-.268.618-.179.159-.441.238-.788.238zM33.48 33v-5.192h-.944V33h.944zm5.26 0v-.864l-2.739-.008 2.739-3.512v-.808h-3.928v.864l2.747.007-2.747 3.505V33h3.928zm4.588 0v-.824h-2.392v-1.368h2.248v-.816h-2.248v-1.368h2.392v-.816h-3.336V33h3.336z"/>
        </g>
        <path d="m32 47.07 1.079 2.28 2.412.367-1.746 1.775.413 2.508L32 52.818 29.843 54l.412-2.508-1.746-1.775 2.412-.367L32 47.07zm7.564.577.899 1.71 2.01.276-1.455 1.331.343 1.88-1.797-.887-1.798.888.344-1.88-1.455-1.332 2.01-.276.899-1.71zm-15.128 0 .9 1.71 2.01.276-1.456 1.331.344 1.88-1.798-.887-1.797.888.343-1.88-1.455-1.332 2.01-.276.9-1.71zm35.032-26.5s.402.28.847.814c.42.534.996 1.322 1.016 2.272a4.422 4.422 0 0 1-.312 1.894 5.284 5.284 0 0 1-.771 1.192l-.036.867c-.01.215-.018.431-.027.593-.01.163-.032.27-.032.27.21-.517.435-1.06.842-1.5.572-.634 1.322-.946 1.932-1.089a4.36 4.36 0 0 1 .93-.116h.106l.038.002v.033a9.098 9.098 0 0 1-.141 1.4c-.074.4-.185.843-.346 1.264-.185.42-.46.814-.777 1.128-1.016.986-2.35.863-2.874.79l-.095.596-.346 1.279c-.127.466-.254.931-.348 1.282-.082.352-.185.571-.185.571.376-.551.772-1.145 1.373-1.562.792-.571 1.704-.744 2.415-.764.712-.02 1.222.12 1.222.12s-.156.709-.521 1.577a8.026 8.026 0 0 1-.707 1.34c-.29.435-.717.805-1.149 1.08-1.414.869-2.882.354-3.419.144 0 0-.088.215-.218.54-.156.314-.393.718-.617 1.128l-.62 1.125a47.23 47.23 0 0 1-.206.373l-.096.128c.548-.545 1.185-1.123 1.991-1.458a4.707 4.707 0 0 1 1.517-.352c.465-.043.91-.009 1.296.056.77.132 1.297.404 1.297.404s-.07.196-.212.507c-.146.305-.413.704-.728 1.144-.644.871-1.517 1.883-2.676 2.236-1.812.612-3.28-.37-3.786-.726 0 0-.127.189-.339.453-.23.253-.535.587-.844.922l-.841.92c-.222.26-.408.395-.408.395.765-.46 1.628-.967 2.636-1.138a6.387 6.387 0 0 1 1.702-.046c.519.064.995.202 1.397.364.807.319 1.309.735 1.309.735s-.13.197-.367.501c-.118.152-.26.334-.43.529-.19.183-.4.377-.635.578-.938.794-2.164 1.69-3.517 1.786-2.155.22-3.457-1.263-3.886-1.763 0 0-.066.066-.194.159l-.547.368-1.656 1.118c-1.284.69-2.587 1.345-2.587 1.345l-.191-.416 1.817-.933c.225-.119.452-.236.666-.346l.54-.367c.316-.216.527-.357.527-.357-.388-.54-1.324-2.255-1.106-3.93a4.34 4.34 0 0 1 .372-1.45c.183-.433.453-.767.637-1.13.403-.68.833-1.087.833-1.087s.528.386 1.073 1.03c.542.647 1.092 1.566 1.075 2.708.02.967-.514 1.756-1.021 2.476 0 0 .676-.584 1.354-1.167.619-.638 1.212-1.303 1.212-1.303-.486-.415-1.646-1.673-1.828-3.212-.163-.983.129-1.843.387-2.523a5.428 5.428 0 0 1 .498-1.135l.02-.033s.542.238 1.152.709c.609.472 1.282 1.185 1.504 2.204.19.804-.075 1.58-.35 2.295 0 0 .534-.75 1.07-1.496l.886-1.608c-.526-.268-1.776-1.105-2.253-2.409-.33-.83-.291-1.677-.154-2.325.079-.668.223-1.155.223-1.155s.517.108 1.143.408c.625.305 1.36.812 1.762 1.664.241.613.246 1.322.157 1.966 0 0 .356-.878.709-1.759l.494-1.828c-.517-.134-1.763-.601-2.385-1.622-.454-.66-.591-1.417-.605-2.02.004-.298-.014-.563-.016-.753-.002-.188.01-.303.01-.303h.037c.123.004.53.024 1.028.15.582.152 1.358.465 1.807 1.123.314.458.463 1.026.527 1.569l.248-1.637c.069-.822.088-1.646.088-1.646a7.026 7.026 0 0 1-.687-1.155c-.274-.489-.505-1.06-.543-1.683-.011-.844.118-1.633.389-2.264.247-.621.524-1.057.524-1.057zm-54.936 0s.277.437.524 1.058c.27.63.4 1.42.389 2.264-.038.622-.269 1.194-.543 1.683-.233.49-.494.898-.687 1.155 0 0 .02.824.088 1.646l.248 1.637c.064-.543.213-1.11.527-1.569.45-.658 1.225-.971 1.807-1.123a4.953 4.953 0 0 1 1.028-.15h.037s.012.115.01.303c-.002.19-.02.455-.016.754-.014.602-.151 1.358-.605 2.02-.622 1.02-1.868 1.487-2.385 1.62l.494 1.83c.353.88.71 1.758.71 1.758-.09-.644-.085-1.353.156-1.966.403-.852 1.137-1.359 1.762-1.664.626-.3 1.143-.408 1.143-.408s.144.487.223 1.155c.137.648.177 1.494-.154 2.325-.477 1.304-1.727 2.14-2.253 2.409l.886 1.608c.536.746 1.07 1.496 1.07 1.496-.275-.715-.54-1.49-.35-2.295.222-1.019.895-1.732 1.504-2.204.61-.47 1.152-.709 1.152-.709l.02.033c.07.116.313.54.498 1.135.258.68.55 1.54.387 2.523-.182 1.539-1.342 2.797-1.828 3.212 0 0 .593.665 1.212 1.303.678.583 1.354 1.167 1.354 1.167-.507-.72-1.041-1.51-1.02-2.476-.018-1.142.532-2.06 1.074-2.707.545-.645 1.073-1.03 1.073-1.03s.43.407.833 1.086c.184.363.454.697.637 1.13.191.424.33.912.372 1.45.218 1.675-.718 3.39-1.106 3.93 0 0 .21.141.527.357l.54.367c.214.11.44.227.666.346l1.817.933-.191.416s-1.303-.656-2.587-1.345l-1.656-1.118-.547-.368c-.128-.093-.194-.159-.194-.159-.43.5-1.731 1.982-3.886 1.763-1.353-.097-2.579-.992-3.517-1.786-.234-.2-.446-.395-.635-.578-.17-.195-.312-.377-.43-.529-.238-.304-.367-.501-.367-.501s.502-.416 1.31-.735c.4-.162.877-.3 1.396-.364a6.387 6.387 0 0 1 1.702.046c1.008.171 1.87.678 2.636 1.138 0 0-.186-.134-.408-.395l-.841-.92c-.309-.335-.615-.669-.844-.922-.212-.264-.34-.453-.34-.453-.505.356-1.973 1.338-3.785.726-1.16-.353-2.032-1.365-2.676-2.236-.315-.44-.582-.839-.728-1.144a7.58 7.58 0 0 1-.212-.507s.528-.272 1.297-.404c.385-.065.83-.1 1.296-.056a4.707 4.707 0 0 1 1.517.352c.806.335 1.443.913 1.991 1.458l-.096-.128a47.23 47.23 0 0 1-.206-.373l-.62-1.125c-.224-.41-.46-.814-.617-1.127-.13-.326-.218-.541-.218-.541-.537.21-2.005.725-3.419-.144-.432-.275-.859-.645-1.15-1.08a8.026 8.026 0 0 1-.706-1.34 10.205 10.205 0 0 1-.52-1.576s.51-.142 1.221-.121c.711.02 1.623.193 2.415.764.6.417.997 1.01 1.373 1.562 0 0-.103-.22-.185-.571-.094-.351-.221-.816-.348-1.282l-.346-1.279-.095-.596c-.523.073-1.858.196-2.874-.79a3.757 3.757 0 0 1-.777-1.128A7.257 7.257 0 0 1 .14 27.78 9.18 9.18 0 0 1 0 26.418v-.072s.467-.03 1.073.113c.61.143 1.36.455 1.932 1.09.408.44.633.983.843 1.499 0 0-.022-.107-.032-.27-.01-.161-.018-.378-.027-.593l-.036-.866a5.284 5.284 0 0 1-.772-1.192 4.422 4.422 0 0 1-.311-1.895c.02-.95.596-1.738 1.016-2.272.444-.532.846-.812.846-.812z" fill="#F2BE37"/>
    </g>
</svg>
