<svg xmlns="http://www.w3.org/2000/svg" width="48" height="41" viewBox="0 0 48 41">
    <g fill="none" fill-rule="evenodd">
        <g>
            <g>
                <g>
                    <g transform="translate(-769.000000, -820.000000) translate(328.000000, 555.000000) translate(157.000000, 124.000000) translate(284.000000, 141.499628)">
                        <ellipse cx="24.174" cy="16.428" fill="#A9AEAD" fill-rule="nonzero" rx="16.756" ry="16.428"/>
                        <g fill="#0F0F0F">
                            <text font-family="Karla-Medium, Karla" font-size="10" font-weight="400" transform="translate(14.749858, 8.074129)">
                                <tspan x="0" y="9">3RD</tspan>
                            </text>
                            <text font-family="Karla-Bold, Karla" font-size="6" font-weight="bold" transform="translate(14.749858, 8.074129)">
                                <tspan x="1.75" y="15.127">PRIZE</tspan>
                            </text>
                        </g>
                        <path fill="#A9AEAD" fill-rule="nonzero" d="M24 35.302l.809 1.71 1.809.275-1.31 1.332.31 1.88L24 39.614l-1.618.887.31-1.881-1.31-1.332 1.809-.275.809-1.71zm5.672.433l.675 1.282 1.507.208-1.091.998.257 1.41-1.348-.666-1.348.666.258-1.41-1.091-.998 1.507-.208.674-1.282zm-11.345 0l.674 1.282 1.508.208-1.091.998.257 1.41-1.348-.666-1.348.666.258-1.41-1.092-.998 1.508-.208.674-1.282zM44.6 15.861l.029.02c.082.062.334.262.607.59.315.4.747.991.762 1.704.035.524-.076 1.02-.234 1.42-.184.403-.424.71-.579.894l-.027.65c-.007.161-.013.324-.02.445-.008.122-.024.202-.024.202.157-.387.326-.794.632-1.125.429-.475.992-.71 1.449-.816.455-.107.805-.086.805-.086v.038c-.002.123-.016.535-.106 1.037-.055.3-.138.632-.26.948-.138.314-.344.61-.581.846-.763.74-1.764.647-2.156.592l-.072.448-.26.959c-.094.349-.19.698-.26.961-.061.264-.139.429-.139.429.282-.414.58-.86 1.03-1.172.594-.428 1.278-.558 1.811-.573.534-.016.917.09.917.09s-.117.532-.39 1.183c-.138.325-.313.68-.531 1.005-.218.326-.538.603-.862.81-1.06.651-2.162.265-2.564.107l-.164.406c-.117.235-.294.538-.462.846l-.466.844-.154.279-.072.097c.411-.41.89-.843 1.493-1.094.385-.163.774-.24 1.138-.264.35-.033.683-.007.972.042.48.082.836.238.94.287l.032.016s-.052.147-.158.38c-.11.229-.31.528-.546.858-.483.653-1.138 1.412-2.007 1.677-1.359.459-2.46-.278-2.84-.545 0 0-.095.142-.254.34-.172.19-.401.44-.633.692l-.631.69c-.118.14-.224.23-.274.271l-.031.025c.573-.345 1.22-.725 1.976-.854.467-.073.896-.077 1.277-.034.389.048.746.152 1.047.273.42.166.729.366.88.474l.096.072c.006.005-.09.153-.269.381-.088.114-.195.25-.323.397-.141.137-.3.283-.475.433-.704.596-1.624 1.267-2.639 1.34-1.615.164-2.592-.948-2.914-1.322 0 0-.05.049-.145.118l-.41.277-1.243.838c-.802.43-1.614.844-1.863.97l-.068.034-.009.005-.143-.312 1.363-.7.499-.26c.148-.1.288-.194.405-.275l.395-.267c-.29-.405-.992-1.691-.83-2.947.032-.404.136-.77.28-1.088.137-.325.34-.575.478-.847.251-.425.518-.708.6-.79l.025-.026s.395.29.804.773c.407.485.82 1.174.806 2.03.016.725-.385 1.317-.766 1.858l1.016-.876c.464-.478.909-.977.909-.977-.364-.311-1.234-1.255-1.371-2.409-.122-.737.097-1.382.29-1.892.164-.527.389-.876.389-.876s.406.178.864.531c.457.354.961.89 1.128 1.654.142.603-.056 1.184-.263 1.72l.803-1.121.665-1.206c-.395-.201-1.333-.829-1.69-1.807-.248-.623-.219-1.258-.116-1.744.06-.5.167-.866.167-.866l.037.008c.107.026.436.114.82.298.47.23 1.02.61 1.322 1.248.18.46.184.991.118 1.475 0 0 .267-.66.531-1.32l.371-1.371c-.388-.1-1.322-.45-1.789-1.216-.34-.496-.443-1.063-.453-1.515.003-.224-.011-.422-.013-.565 0-.14.008-.227.008-.227h.04l.112.007c.145.01.378.038.647.105.436.114 1.018.35 1.355.843.236.343.347.769.395 1.176l.187-1.227c.05-.617.065-1.235.065-1.235-.144-.193-.34-.498-.515-.866-.206-.367-.379-.796-.407-1.262-.009-.634.089-1.225.292-1.698.185-.466.392-.793.392-.793zm-41.2 0s.207.327.392.793c.203.473.3 1.064.291 1.698-.028.466-.2.895-.406 1.262-.175.368-.371.673-.516.866 0 0 .015.618.066 1.235l.186 1.227c.048-.407.16-.833.396-1.176.336-.494.918-.729 1.355-.843.268-.067.502-.094.646-.105l.112-.006.04-.001s.01.086.008.227c-.001.143-.015.341-.012.565-.01.452-.113 1.02-.454 1.515-.467.766-1.4 1.116-1.789 1.216l.371 1.371.532 1.32c-.067-.484-.063-1.015.117-1.475.302-.639.853-1.019 1.322-1.248.47-.225.858-.306.858-.306s.107.365.167.866c.102.486.132 1.121-.116 1.744-.358.978-1.296 1.606-1.69 1.807l.665 1.206.17.238c.338.47.632.884.632.884-.206-.537-.404-1.118-.262-1.721.167-.765.67-1.3 1.128-1.654.458-.353.864-.531.864-.531s.224.35.388.876c.194.51.413 1.155.29 1.892-.136 1.154-1.006 2.098-1.37 2.409 0 0 .444.499.908.977l1.016.876c-.38-.54-.781-1.133-.766-1.858-.013-.856.4-1.545.806-2.03.41-.484.805-.773.805-.773s.323.306.625.816c.138.272.34.522.478.847.143.318.247.684.279 1.088.163 1.256-.54 2.542-.83 2.947l.395.267.406.275.499.26 1.363.7-.144.312-.008-.005-.068-.034c-.216-.11-.855-.434-1.544-.8l-.32-.17-1.242-.838-.41-.277c-.096-.069-.146-.118-.146-.118-.321.374-1.298 1.486-2.914 1.322-1.014-.073-1.934-.744-2.638-1.34-.176-.15-.334-.296-.476-.433-.128-.147-.234-.283-.323-.397-.178-.228-.275-.376-.275-.376s.377-.312.982-.551c.301-.121.659-.225 1.048-.273.38-.043.81-.04 1.276.034.756.129 1.403.509 1.977.854 0 0-.14-.1-.305-.296l-.632-.69c-.139-.15-.277-.301-.402-.439l-.23-.253c-.16-.198-.255-.34-.255-.34-.38.267-1.48 1.004-2.84.545-.869-.265-1.523-1.024-2.007-1.677-.235-.33-.436-.63-.546-.858-.105-.233-.158-.38-.158-.38l.032-.016c.105-.05.46-.205.94-.287.29-.049.623-.075.973-.042.363.025.753.101 1.137.264.604.251 1.082.684 1.494 1.094l-.072-.097-.155-.28-.465-.843c-.168-.308-.345-.611-.463-.846l-.163-.406c-.403.158-1.504.544-2.565-.107-.323-.207-.644-.484-.861-.81-.219-.325-.393-.68-.53-1.005-.274-.651-.391-1.182-.391-1.182s.383-.107.916-.09c.534.014 1.218.144 1.811.572.45.312.748.758 1.03 1.172 0 0-.077-.165-.138-.429l-.261-.961-.26-.96-.071-.447c-.393.055-1.394.148-2.156-.592-.237-.236-.443-.532-.582-.846-.122-.316-.204-.648-.26-.948-.09-.502-.103-.914-.105-1.037v-.038s.35-.022.805.085c.457.107 1.02.341 1.449.817.306.33.475.738.632 1.125 0 0-.016-.08-.024-.202-.007-.122-.013-.284-.02-.445l-.027-.65c-.155-.184-.395-.492-.58-.894-.157-.4-.268-.897-.233-1.42.015-.713.447-1.305.762-1.705.333-.4.635-.61.635-.61z"/>
                    </g>
                </g>
            </g>
        </g>
    </g>
</svg>
