<svg xmlns="http://www.w3.org/2000/svg" width="24" height="24" viewBox="0 0 24 24">
    <g fill="none" fill-rule="evenodd">
        <g>
            <g>
                <g transform="translate(-128.000000, -62.000000) translate(124.000000, 58.000000) translate(4.000000, 4.000000)">
                    <g>
                        <path d="M0 0L24 0 24 24 0 24z"/>
                        <g stroke="#FFF" stroke-linecap="round" stroke-linejoin="round" stroke-opacity=".95">
                            <path d="M4.958 15.344v.365C4.958 16.974 5.984 18 7.25 18h0c1.266 0 2.292-1.026 2.292-2.292v-.365M9.083 2.751v-.918C9.083.821 8.263 0 7.25 0h0C6.237 0 5.417.821 5.417 1.833v.918" transform="translate(4.750000, 3.000000)"/>
                            <path d="M1.813 7.188h0c0-2.503 2.029-4.531 4.531-4.531h1.813c2.503 0 4.531 2.029 4.531 4.531h0v2.797c0 .53.211 1.039.586 1.414l.641.641c.375.375.586.884.586 1.414h0c0 1.044-.846 1.89-1.89 1.89H1.89c-1.044 0-1.89-.846-1.89-1.89h0c0-.53.211-1.039.586-1.414l.641-.641c.375-.375.586-.884.586-1.414V7.188z" transform="translate(4.750000, 3.000000)"/>
                        </g>
                    </g>
                    <circle cx="19.5" cy="2.5" r="2.5" fill="#FA6566"/>
                </g>
            </g>
        </g>
    </g>
</svg>
