<svg width="22" height="18" viewBox="0 0 22 18" fill="none" xmlns="http://www.w3.org/2000/svg">
<path d="M9.091 5.15901C9.96968 6.03769 9.96968 7.46231 9.091 8.34099C8.21232 9.21967 6.7877 9.21967 5.90902 8.34099C5.03034 7.46231 5.03034 6.03769 5.90902 5.15901C6.7877 4.28033 8.21232 4.28033 9.091 5.15901" stroke="white" stroke-opacity="0.95" stroke-linecap="round" stroke-linejoin="round"/>
<path fill-rule="evenodd" clip-rule="evenodd" d="M1 15.5V2.541C1 1.414 1.914 0.5 3.041 0.5H19C20.105 0.5 21 1.395 21 2.5V15.5C21 16.605 20.105 17.5 19 17.5H3C1.895 17.5 1 16.605 1 15.5Z" stroke="white" stroke-opacity="0.95" stroke-linecap="round" stroke-linejoin="round"/>
<path d="M14 6.5H18" stroke="white" stroke-opacity="0.95" stroke-linecap="round" stroke-linejoin="round"/>
<path d="M16.4 10.5H14" stroke="white" stroke-opacity="0.95" stroke-linecap="round" stroke-linejoin="round"/>
<path d="M11.095 13.5C10.92 13.061 10.65 12.667 10.303 12.346V12.346C9.716 11.802 8.946 11.5 8.146 11.5H6.854C6.054 11.5 5.284 11.802 4.697 12.346V12.346C4.35 12.667 4.08 13.061 3.905 13.5" stroke="white" stroke-opacity="0.95" stroke-linecap="round" stroke-linejoin="round"/>
</svg>
