<svg xmlns="http://www.w3.org/2000/svg" width="152" height="88" viewBox="0 0 152 88">
    <g fill="none" fill-rule="evenodd">
        <g>
            <g>
                <g>
                    <path d="M0 0L47.504 0 47.504 47.27 0 47.27z" transform="translate(-857.000000, -349.000000) translate(858.000000, 350.000000) translate(8.910536, 8.885878)"/>
                    <path stroke="#1DE9B6" stroke-linecap="round" stroke-linejoin="round" stroke-width="1.186" d="M7.917 21.665L23.752 25.605 39.587 21.665 23.752 4.091zM11.33 29.544L23.752 43.331 36.174 29.544 23.752 32.634zM23.752 4.097L23.752 17.726" transform="translate(-857.000000, -349.000000) translate(858.000000, 350.000000) translate(8.910536, 8.885878)"/>
                    <path stroke="#1DE9B6" stroke-linecap="round" stroke-linejoin="round" stroke-width="1.186" d="M7.917 21.665L23.752 17.726 39.587 21.665" transform="translate(-857.000000, -349.000000) translate(858.000000, 350.000000) translate(8.910536, 8.885878)"/>
                </g>
                <g stroke="#1DE9B6" stroke-linecap="round" stroke-linejoin="round" stroke-width="1.186">
                    <path d="M0 17.554L8.79 8.777M8.79 26.332L0 17.554M0 17.554h11.72C21.43 17.554 29.3 9.696 29.3 0" transform="translate(-857.000000, -349.000000) translate(858.000000, 350.000000) translate(77.889697, 78.835718) scale(-1, 1) rotate(35.000000) translate(-77.889697, -78.835718) translate(63.239958, 65.669920)"/>
                </g>
                <path stroke="#FF6E40" stroke-linecap="round" stroke-linejoin="round" stroke-width="1.186" d="M150 32.183c0 17.777-14.427 32.183-32.23 32.183-17.802 0-32.229-14.406-32.229-32.183S99.968 0 117.771 0C135.573 0 150 14.406 150 32.183" transform="translate(-857.000000, -349.000000) translate(858.000000, 350.000000)"/>
                <path stroke="#1DE9B6" stroke-linecap="round" stroke-linejoin="round" stroke-width="1.186" d="M64.459 32.183c0 17.777-14.427 32.183-32.23 32.183C14.427 64.366 0 49.96 0 32.183S14.427 0 32.23 0c17.802 0 32.229 14.406 32.229 32.183" transform="translate(-857.000000, -349.000000) translate(858.000000, 350.000000)"/>
                <path fill="#FF6E40" d="M119.318 17.222c6.095 0 11.269 3.946 13.104 9.424h3.49c.328 0 .593.265.593.592 0 .328-.265.593-.592.593h-3.152c.244 1.029.374 2.103.374 3.208v1.985c0 1.162-.143 2.29-.414 3.37h3.192c.327 0 .592.265.592.592 0 .327-.265.592-.592.592h-3.546c-1.882 5.394-7.014 9.263-13.049 9.263h-10.853c-1.637 0-2.964-1.327-2.964-2.964v-6.3l-3.452.001c-.327 0-.592-.265-.592-.592 0-.327.265-.593.592-.593h3.452V27.83h-3.452c-.327 0-.592-.265-.592-.593 0-.327.265-.592.592-.592h3.452v-6.46c0-1.637 1.327-2.964 2.964-2.964h10.853zm11.62 20.356h-24.02v5.707c0 1.255.976 2.282 2.21 2.366l.162.005h10.025c5.327 0 9.87-3.36 11.623-8.078zm.414-9.747h-24.434v8.562h24.394c.236-.906.372-1.853.395-2.827l.004-.306v-2.458c0-1.024-.124-2.02-.359-2.971zm-12.037-9.425H109.29c-1.255 0-2.282.975-2.366 2.21l-.005.162-.001 5.868h24.079c-1.709-4.802-6.294-8.24-11.682-8.24z" transform="translate(-857.000000, -349.000000) translate(858.000000, 350.000000)"/>
            </g>
        </g>
    </g>
</svg>
