<svg width="90" height="107" viewBox="0 0 90 107">
  <g fill="none" fill-rule="evenodd" opacity="0.4">
    <g>
      <g>
        <path stroke="#1DE9B6" stroke-linecap="round" stroke-width="5" d="M27 112.5L72 112.5" opacity="0.5" transform="translate(-1089.000000, -221.000000) translate(1085.000000, 213.000000)"></path>
        <g>
          <path d="M0 0L100 0 100 100 0 100z" transform="translate(-1089.000000, -221.000000) translate(1085.000000, 213.000000)"></path>
          <path stroke="#1DE9B6" stroke-linecap="round" stroke-linejoin="round" stroke-width="4" d="M70.967 51.946c.075.075.075.196 0 .27-.075.076-.196.076-.271 0-.075-.074-.075-.195 0-.27.075-.075.2-.071.27 0" transform="translate(-1089.000000, -221.000000) translate(1085.000000, 213.000000)"></path>
          <path stroke="#FF6E40" stroke-linecap="round" stroke-linejoin="round" stroke-width="4" d="M61.092 31.158C61.97 29.28 62.5 27.208 62.5 25c0-8.054-6.53-14.583-14.583-14.583-8.054 0-14.584 6.529-14.584 14.583 0 2.596.734 5 1.925 7.108" transform="translate(-1089.000000, -221.000000) translate(1085.000000, 213.000000)"></path>
          <path stroke="#1DE9B6" stroke-linecap="round" stroke-linejoin="round" stroke-width="4" d="M9.533 43.75C7.58 44.888 6.25 46.983 6.25 49.408c0 3.63 2.942 6.571 6.57 6.571h3.847M77.083 27.083v10.642c2.992 2.7 5.367 6.067 6.775 9.92H87.5c2.3 0 4.167 1.868 4.167 4.168v12.77c0 2.3-1.867 4.167-4.167 4.167h-5.462c-2.188 3.783-5.346 6.933-9.121 9.13v7.537c0 2.3-1.867 4.166-4.167 4.166h-8.333c-2.3 0-4.167-1.866-4.167-4.166V81.25H41.667v3.617c0 2.3-1.867 4.166-4.167 4.166h-8.333c-2.3 0-4.167-1.866-4.167-4.166V74.846c-5.104-4.58-8.333-11.2-8.333-18.596 0-13.808 11.191-25 25-25h18.858c1.788 0 3.52-.587 4.946-1.662 2.079-1.567 4.646-2.505 7.446-2.505h4.166z" transform="translate(-1089.000000, -221.000000) translate(1085.000000, 213.000000)"></path>
        </g>
      </g>
    </g>
  </g>
</svg>
