<svg xmlns="http://www.w3.org/2000/svg" width="95" height="118" viewBox="0 0 95 118">
    <g fill="none" fill-rule="evenodd" stroke-linecap="round" stroke-linejoin="round">
        <g stroke-width="1.186">
            <g>
                <g>
                    <g>
                        <path stroke="#FF6E40" d="M18.79 10.703C8.34 11.213 0 19.824 0 30.453c0 10.965 8.842 19.853 19.75 19.853 7.883 0 14.632-4.674 17.803-11.39" transform="translate(-391.000000, -331.000000) translate(392.000000, 332.000000) translate(15.401274, 0.000000) translate(5.331210, 51.489796)"/>
                        <path stroke="#1DE9B6" d="M37.017 38.532c-10.963 0-19.85-8.625-19.85-19.266C17.167 8.626 26.054 0 37.017 0c10.968 0 19.85 8.626 19.85 19.266 0 10.64-8.882 19.266-19.85 19.266" transform="translate(-391.000000, -331.000000) translate(392.000000, 332.000000) translate(15.401274, 0.000000) translate(5.331210, 51.489796)"/>
                    </g>
                    <g stroke="#FF6E40">
                        <path d="M11.791 0L11.791 27.816M11.791 27.816L22.51 16.048M0 16.048L11.791 27.816" transform="translate(-391.000000, -331.000000) translate(392.000000, 332.000000) translate(15.401274, 0.000000) translate(44.426752, 13.908163) scale(1, -1) translate(-44.426752, -13.908163) translate(33.171975, 0.000000)"/>
                    </g>
                    <path stroke="#1DE9B6" d="M10.959 17.163L10.959 44.98M11.255 44.98L22.51 33.735M0 33.735L11.847 44.98" transform="translate(-391.000000, -331.000000) translate(392.000000, 332.000000) translate(15.401274, 0.000000)"/>
                </g>
                <path stroke="#1DE9B6" d="M0 89.334v15.994C0 111.222 4.778 116 10.672 116h71.656C88.222 116 93 111.222 93 105.328V68.653h0" transform="translate(-391.000000, -331.000000) translate(392.000000, 332.000000)"/>
            </g>
        </g>
    </g>
</svg>
