<svg xmlns="http://www.w3.org/2000/svg" width="97" height="106" viewBox="0 0 97 106">
    <g fill="none" fill-rule="evenodd">
        <g stroke-width="1.186">
            <g>
                <g stroke="#1DE9B6" stroke-linecap="round" stroke-linejoin="round">
                    <g>
                        <path stroke-dasharray="5.336 7.115" d="M17.563 10.01C7.795 10.486 0 18.538 0 28.48c0 10.252 8.265 18.564 18.46 18.564 7.367 0 13.675-4.37 16.64-10.65" opacity=".4" transform="translate(-632.000000, -337.000000) translate(632.000000, 337.000000) translate(44.488021, 20.381951) translate(25.755989, 61.095885) scale(-1, -1) translate(-25.755989, -61.095885) translate(0.000000, 37.573722)"/>
                        <path d="M33.779 35.713c-9.794 0-17.734-7.995-17.734-17.857C16.045 7.995 23.985 0 33.78 0c9.799 0 17.733 7.995 17.733 17.856 0 9.862-7.934 17.857-17.733 17.857" transform="translate(-632.000000, -337.000000) translate(632.000000, 337.000000) translate(44.488021, 20.381951) translate(25.755989, 61.095885) scale(-1, -1) translate(-25.755989, -61.095885) translate(0.000000, 37.573722)"/>
                    </g>
                    <g>
                        <path d="M.498 9.419L1.494.496M9.013 21.859L16.982 24.834M9.712 12.641L17.183 7.188" transform="translate(-632.000000, -337.000000) translate(632.000000, 337.000000) translate(44.488021, 20.381951) translate(28.909254, 0.000000)"/>
                    </g>
                </g>
                <g fill-rule="nonzero" stroke="#FF6E40">
                    <path d="M17.879 1.582c.187-.063 4.658-1.52 11.272-.78 3.873.433 7.704 1.53 11.384 3.26 3.095 1.455 6.087 3.363 8.94 5.692h0l2.401-2.419c1.032-1.039 2.387-1.558 3.742-1.558 1.356 0 2.711.52 3.743 1.558 1.096 1.104 1.651 2.498 1.675 3.88.023 1.39-.493 2.767-1.531 3.813h0l-2.397 2.413c2.31 2.87 4.204 5.881 5.648 8.996 1.718 3.707 2.808 7.565 3.239 11.466.708 6.419-.61 10.835-.762 11.315-.1.304-.283.554-.516.728-.218.163-.48.259-.754.267-.449-.074-.806-.243-1.05-.49-.236-.24-.355-.55-.351-.887-.006-.195-.113-2.981-2.165-7.686-1.619-3.71-4.77-9.304-10.83-16.117h0L9.77 65.105c-.999 1.007-2.328 1.561-3.742 1.561-1.413 0-2.742-.554-3.742-1.56C1.19 64.002.635 62.607.611 61.226c-.023-1.39.492-2.767 1.531-3.813h0l39.792-40.066c-6.91-6.23-12.573-9.42-16.32-11.038-4.644-2.004-7.28-2.042-7.305-2.042-.334 0-.643-.123-.882-.327-.24-.207-.41-.496-.464-.83-.054-.334.016-.663.18-.936.163-.27.418-.486.736-.592z" transform="translate(-632.000000, -337.000000) translate(632.000000, 337.000000)"/>
                </g>
            </g>
        </g>
    </g>
</svg>
