<svg xmlns="http://www.w3.org/2000/svg" width="164" height="109" viewBox="0 0 164 109">
    <g fill="none" fill-rule="evenodd">
        <g>
            <g>
                <g stroke="#FF6E40" stroke-linecap="round" stroke-linejoin="round" stroke-width="1.186">
                    <path d="M33.578 11.303L22.584 0 11.589 11.303" transform="translate(-1100.000000, -331.000000) translate(1096.000000, 332.000000) translate(121.981317, 89.676923) scale(1, -1) rotate(-90.000000) translate(-121.981317, -89.676923) translate(105.192171, 71.087179)"/>
                    <path d="M21.99.297V15.05c0 12.223-9.845 22.13-21.99 22.13" transform="translate(-1100.000000, -331.000000) translate(1096.000000, 332.000000) translate(121.981317, 89.676923) scale(1, -1) rotate(-90.000000) translate(-121.981317, -89.676923) translate(105.192171, 71.087179)"/>
                </g>
                <g stroke-linecap="round" stroke-linejoin="round" stroke-width="1.186">
                    <path stroke="#FF6E40" d="M21.114 13.087C9.37 13.662 0 23.362 0 35.337 0 47.69 9.935 57.703 22.192 57.703c8.857 0 16.44-5.266 20.004-12.832" transform="translate(-1100.000000, -331.000000) translate(1096.000000, 332.000000) translate(103.409253, 0.000000)"/>
                    <path stroke="#1DE9B6" d="M41.304 44.615c-12.308 0-22.286-9.987-22.286-22.307C19.018 9.988 28.996 0 41.304 0 53.62 0 63.591 9.987 63.591 22.308c0 12.32-9.972 22.307-22.287 22.307" transform="translate(-1100.000000, -331.000000) translate(1096.000000, 332.000000) translate(103.409253, 0.000000)"/>
                </g>
                <g>
                    <path d="M0 0L87.363 0 87.363 87.446 0 87.446z" transform="translate(-1100.000000, -331.000000) translate(1096.000000, 332.000000) translate(0.000000, 28.553846)"/>
                    <path stroke="#1DE9B6" stroke-linecap="round" stroke-linejoin="round" stroke-width="1.186" d="M61.999 45.425c.065.065.065.17 0 .236-.066.066-.171.066-.237 0-.066-.065-.066-.17 0-.236.066-.066.175-.062.237 0" transform="translate(-1100.000000, -331.000000) translate(1096.000000, 332.000000) translate(0.000000, 28.553846)"/>
                    <path stroke="#FF6E40" stroke-linecap="round" stroke-linejoin="round" stroke-width="1.186" d="M53.372 27.247c.768-1.643 1.23-3.454 1.23-5.385 0-7.044-5.704-12.753-12.74-12.753-7.037 0-12.741 5.71-12.741 12.753 0 2.27.64 4.372 1.682 6.216" transform="translate(-1100.000000, -331.000000) translate(1096.000000, 332.000000) translate(0.000000, 28.553846)"/>
                    <path stroke="#1DE9B6" stroke-linecap="round" stroke-linejoin="round" stroke-width="1.186" d="M8.329 38.258c-1.708.994-2.869 2.827-2.869 4.948 0 3.173 2.57 5.746 5.74 5.746h3.36" transform="translate(-1100.000000, -331.000000) translate(1096.000000, 332.000000) translate(0.000000, 28.553846)"/>
                    <path stroke="#1DE9B6" stroke-linecap="round" stroke-linejoin="round" stroke-width="1.186" d="M67.342 23.683v9.306c2.614 2.361 4.689 5.305 5.92 8.675h3.18c2.01 0 3.64 1.633 3.64 3.644v11.168c0 2.01-1.63 3.643-3.64 3.643H71.67c-1.91 3.309-4.67 6.063-7.968 7.983v6.592c0 2.01-1.63 3.643-3.64 3.643h-7.28c-2.01 0-3.64-1.632-3.64-3.643V71.05h-12.74v3.163c0 2.01-1.632 3.643-3.64 3.643H25.48c-2.01 0-3.64-1.632-3.64-3.643V65.45c-4.46-4.005-7.28-9.794-7.28-16.262 0-12.074 9.777-21.861 21.84-21.861h16.475c1.562 0 3.076-.514 4.321-1.454 1.817-1.37 4.059-2.19 6.505-2.19h3.64z" transform="translate(-1100.000000, -331.000000) translate(1096.000000, 332.000000) translate(0.000000, 28.553846)"/>
                </g>
            </g>
        </g>
    </g>
</svg>
