<svg width="105" height="106" viewBox="0 0 105 106" fill="none" xmlns="http://www.w3.org/2000/svg">
<path opacity="0.6" d="M33.5516 43.7002C37.1525 44.665 39.2894 48.3663 38.3245 51.9672C37.3597 55.5681 33.6584 57.705 30.0575 56.7402C26.4566 55.7753 24.3197 52.0741 25.2845 48.4732C26.2494 44.8723 29.9507 42.7353 33.5516 43.7002" stroke="#FF6E40" stroke-width="4" stroke-linecap="round" stroke-linejoin="round"/>
<path opacity="0.5" fill-rule="evenodd" clip-rule="evenodd" d="M36.3722 87.1314C31.5892 89.8928 25.4733 88.2541 22.7119 83.4711L5.28891 53.2936C2.53129 48.5173 4.16134 42.41 8.93229 39.6431L68.6208 5.02665C73.4049 2.25209 79.5327 3.88763 82.2979 8.67715L99.7882 38.9711C102.55 43.7541 100.911 49.87 96.1279 52.6314L36.3722 87.1314Z" stroke="#1DE9B6" stroke-width="4" stroke-linecap="round" stroke-linejoin="round"/>
<path d="M48.317 39.8205L74.2978 24.8205" stroke="#10755A" stroke-width="4" stroke-linecap="round" stroke-linejoin="round"/>
<path d="M69.9055 41.2126L54.317 50.2126" stroke="#10755A" stroke-width="4" stroke-linecap="round" stroke-linejoin="round"/>
<path opacity="0.6" d="M51.2696 62.3648C50.1565 61.4867 48.864 60.8681 47.481 60.5546V60.5546C45.1399 60.0217 42.6864 60.3921 40.6079 61.5921L37.2512 63.5301C35.1727 64.7301 33.6252 66.6697 32.9162 68.9636V68.9636C32.4961 70.3181 32.3856 71.7467 32.5895 73.1498" stroke="#FF6E40" stroke-width="4" stroke-linecap="round" stroke-linejoin="round"/>
<path opacity="0.2" d="M29.5001 103.066H81.5001" stroke="#1DE9B6" stroke-width="5" stroke-linecap="round"/>
</svg>
