<svg xmlns="http://www.w3.org/2000/svg" width="20" height="20" viewBox="0 0 24 24">
    <g fill="none" fill-rule="evenodd">
        <g>
            <g>
                <g>
                    <g stroke="current" stroke-linecap="round" stroke-linejoin="round" stroke-opacity=".95">
                        <path d="M4.5 9L2.25 11.25 0 9M2.25 9c0 .694.086 1.366.235 2.015M20.25 9c0-4.971-4.029-9-9-9s-9 4.029-9 9M11.25 18c4.971 0 9-4.029 9-9M3.879 14.155C5.506 16.478 8.198 18 11.25 18" transform="translate(-18.000000, -345.000000) translate(18.000000, 110.000000) translate(0.000000, 235.000000) translate(1.875000, 3.000000)"/>
                        <path d="M14.621 11.871L10.969 9.698 10.969 4.985" transform="translate(-18.000000, -345.000000) translate(18.000000, 110.000000) translate(0.000000, 235.000000) translate(1.875000, 3.000000)"/>
                    </g>
                </g>
            </g>
        </g>
    </g>
</svg>
