<svg xmlns="http://www.w3.org/2000/svg" width="90" height="107" viewBox="0 0 90 107">
    <g fill="none" fill-rule="evenodd">
        <g>
            <g>
                <g>
                    <path d="M13.212 38.059L105.941 13.212 130.788 105.941 38.059 130.788z" transform="translate(-563.000000, -207.000000) translate(520.000000, 164.000000) translate(88.181631, 88.181631) rotate(-15.000000) translate(-88.181631, -88.181631) translate(16.181631, 16.181631) translate(0.000000, 0.000000) translate(72.000000, 72.000000) rotate(15.000000) translate(-72.000000, -72.000000)"/>
                    <g stroke="#1DE9B6" stroke-linecap="round" stroke-linejoin="round" stroke-width="4" opacity=".2">
                        <path d="M39.871 17.528h0c-4.27 1.144-8.654-1.387-9.798-5.657h0c-1.144-4.27 1.388-8.654 5.657-9.798h0C40 .93 44.384 3.461 45.528 7.73h0c1.144 4.27-1.387 8.654-5.657 9.798z" transform="translate(-563.000000, -207.000000) translate(520.000000, 164.000000) translate(88.181631, 88.181631) rotate(-15.000000) translate(-88.181631, -88.181631) translate(16.181631, 16.181631) translate(0.000000, 0.000000) translate(62.199288, 62.199288) translate(37.800713, 9.800713) rotate(15.000000) translate(-37.800713, -9.800713)"/>
                        <path d="M17.528 35.73h0c1.144 4.27-1.387 8.654-5.657 9.798h0c-4.27 1.144-8.654-1.387-9.798-5.657h0c-1.144-4.27 1.388-8.654 5.657-9.798h0c4.27-1.144 8.654 1.388 9.798 5.657z" transform="translate(-563.000000, -207.000000) translate(520.000000, 164.000000) translate(88.181631, 88.181631) rotate(-15.000000) translate(-88.181631, -88.181631) translate(16.181631, 16.181631) translate(0.000000, 0.000000) translate(62.199288, 62.199288) translate(9.800713, 37.800713) rotate(15.000000) translate(-9.800713, -37.800713)"/>
                        <path d="M17.889 34.04L29.712 13.562" transform="translate(-563.000000, -207.000000) translate(520.000000, 164.000000) translate(88.181631, 88.181631) rotate(-15.000000) translate(-88.181631, -88.181631) translate(16.181631, 16.181631) translate(0.000000, 0.000000) translate(62.199288, 62.199288) translate(23.800713, 23.800713) rotate(15.000000) translate(-23.800713, -23.800713)"/>
                    </g>
                    <path stroke="#1DE9B6" stroke-linecap="round" stroke-linejoin="round" stroke-width="4" d="M100 108h0c-4.42 0-8-3.58-8-8h0c0-4.42 3.58-8 8-8h0c4.42 0 8 3.58 8 8h0c0 4.42-3.58 8-8 8z" opacity=".1" transform="translate(-563.000000, -207.000000) translate(520.000000, 164.000000) translate(88.181631, 88.181631) rotate(-15.000000) translate(-88.181631, -88.181631) translate(16.181631, 16.181631) translate(0.000000, 0.000000)"/>
                    <g stroke="#1DE9B6" stroke-linecap="round" stroke-linejoin="round" stroke-width="4" opacity=".4">
                        <path d="M39.871 17.528h0c-4.27 1.144-8.654-1.387-9.798-5.657h0c-1.144-4.27 1.388-8.654 5.657-9.798h0C40 .93 44.384 3.461 45.528 7.73h0c1.144 4.27-1.387 8.654-5.657 9.798z" transform="translate(-563.000000, -207.000000) translate(520.000000, 164.000000) translate(88.181631, 88.181631) rotate(-15.000000) translate(-88.181631, -88.181631) translate(16.181631, 16.181631) translate(0.000000, 0.000000) translate(34.199287, 34.199287) translate(37.800713, 9.800713) rotate(15.000000) translate(-37.800713, -9.800713)"/>
                        <path d="M17.889 34.04L29.712 13.562" transform="translate(-563.000000, -207.000000) translate(520.000000, 164.000000) translate(88.181631, 88.181631) rotate(-15.000000) translate(-88.181631, -88.181631) translate(16.181631, 16.181631) translate(0.000000, 0.000000) translate(34.199287, 34.199287) translate(23.800713, 23.800713) rotate(15.000000) translate(-23.800713, -23.800713)"/>
                        <path d="M11.871 45.528h0c-4.27 1.144-8.654-1.387-9.798-5.657h0c-1.144-4.27 1.388-8.654 5.657-9.798h0c4.27-1.144 8.654 1.388 9.798 5.657h0c1.144 4.27-1.387 8.654-5.657 9.798z" transform="translate(-563.000000, -207.000000) translate(520.000000, 164.000000) translate(88.181631, 88.181631) rotate(-15.000000) translate(-88.181631, -88.181631) translate(16.181631, 16.181631) translate(0.000000, 0.000000) translate(34.199287, 34.199287) translate(9.800713, 37.800713) rotate(15.000000) translate(-9.800713, -37.800713)"/>
                    </g>
                    <g stroke="#1DE9B6" stroke-linecap="round" stroke-linejoin="round" stroke-width="4" opacity=".3">
                        <path d="M58.073 11.871h0c-1.144-4.27 1.388-8.654 5.657-9.798h0C68 .93 72.384 3.461 73.528 7.73h0c1.144 4.27-1.387 8.654-5.657 9.798h0c-4.27 1.144-8.654-1.387-9.798-5.657z" transform="translate(-563.000000, -207.000000) translate(520.000000, 164.000000) translate(88.181631, 88.181631) rotate(-15.000000) translate(-88.181631, -88.181631) translate(16.181631, 16.181631) translate(0.000000, 0.000000) translate(34.199287, 34.199287) translate(65.800713, 9.800713) rotate(15.000000) translate(-65.800713, -9.800713)"/>
                        <path d="M17.889 62.04L29.712 41.562" transform="translate(-563.000000, -207.000000) translate(520.000000, 164.000000) translate(88.181631, 88.181631) rotate(-15.000000) translate(-88.181631, -88.181631) translate(16.181631, 16.181631) translate(0.000000, 0.000000) translate(34.199287, 34.199287) translate(23.800713, 51.800713) rotate(15.000000) translate(-23.800713, -51.800713)"/>
                        <path d="M45.889 34.04L57.712 13.562" transform="translate(-563.000000, -207.000000) translate(520.000000, 164.000000) translate(88.181631, 88.181631) rotate(-15.000000) translate(-88.181631, -88.181631) translate(16.181631, 16.181631) translate(0.000000, 0.000000) translate(34.199287, 34.199287) translate(51.800713, 23.800713) rotate(15.000000) translate(-51.800713, -23.800713)"/>
                        <path d="M30.073 39.871h0c-1.144-4.27 1.388-8.654 5.657-9.798h0c4.27-1.144 8.654 1.388 9.798 5.657h0c1.144 4.27-1.387 8.654-5.657 9.798h0c-4.27 1.144-8.654-1.387-9.798-5.657z" transform="translate(-563.000000, -207.000000) translate(520.000000, 164.000000) translate(88.181631, 88.181631) rotate(-15.000000) translate(-88.181631, -88.181631) translate(16.181631, 16.181631) translate(0.000000, 0.000000) translate(34.199287, 34.199287) translate(37.800713, 37.800713) rotate(15.000000) translate(-37.800713, -37.800713)"/>
                        <path d="M17.528 63.73h0c1.144 4.27-1.387 8.654-5.657 9.798h0c-4.27 1.144-8.654-1.387-9.798-5.657h0c-1.144-4.27 1.388-8.654 5.657-9.798h0c4.27-1.144 8.654 1.388 9.798 5.657z" transform="translate(-563.000000, -207.000000) translate(520.000000, 164.000000) translate(88.181631, 88.181631) rotate(-15.000000) translate(-88.181631, -88.181631) translate(16.181631, 16.181631) translate(0.000000, 0.000000) translate(34.199287, 34.199287) translate(9.800713, 65.800713) rotate(15.000000) translate(-9.800713, -65.800713)"/>
                    </g>
                    <path stroke="#1DE9B6" stroke-linecap="round" stroke-linejoin="round" stroke-width="4" d="M44 52h0c-4.42 0-8-3.58-8-8h0c0-4.42 3.58-8 8-8h0c4.42 0 8 3.58 8 8h0c0 4.42-3.58 8-8 8z" opacity=".6" transform="translate(-563.000000, -207.000000) translate(520.000000, 164.000000) translate(88.181631, 88.181631) rotate(-15.000000) translate(-88.181631, -88.181631) translate(16.181631, 16.181631) translate(0.000000, 0.000000)"/>
                </g>
                <path stroke="#1DE9B6" stroke-linecap="round" stroke-linejoin="round" stroke-width="4" d="M72.682 147.682L103.682 147.682" opacity=".3" transform="translate(-563.000000, -207.000000) translate(520.000000, 164.000000)"/>
            </g>
        </g>
    </g>
</svg>
