<svg xmlns="http://www.w3.org/2000/svg" width="16" height="14" viewBox="0 0 16 14">
    <g fill="none" fill-rule="evenodd">
        <g>
            <g>
                <g>
                    <g>
                        <g>
                            <g>
                                <g>
                                    <g>
                                        <g>
                                            <path d="M0 0L16 0 16 16 0 16z" transform="translate(-523 -426) translate(471 45) translate(37 364) translate(11 12) translate(4 4)"/>
                                            <path stroke="#292d2c" stroke-linecap="round" stroke-linejoin="round" d="M11.355 8.311c.012.012.012.032 0 .044-.012.012-.032.012-.044 0-.012-.012-.012-.032 0-.044.012-.012.032-.011.044 0M9.775 4.985c.14-.3.225-.632.225-.985 0-1.289-1.045-2.333-2.333-2.333C6.378 1.667 5.333 2.71 5.333 4c0 .415.118.8.308 1.137M1.525 7c-.312.182-.525.517-.525.905 0 .581.47 1.052 1.051 1.052h.616" transform="translate(-523 -426) translate(471 45) translate(37 364) translate(11 12) translate(4 4)"/>
                                            <path stroke="#292d2c" stroke-linecap="round" stroke-linejoin="round" d="M12.333 4.333v1.703c.479.432.859.97 1.084 1.587H14c.368 0 .667.299.667.667v2.043c0 .368-.299.667-.667.667h-.874c-.35.605-.855 1.11-1.46 1.46v1.207c0 .368-.298.666-.666.666H9.667c-.368 0-.667-.298-.667-.666V13H6.667v.579c0 .368-.299.666-.667.666H4.667c-.368 0-.667-.298-.667-.666v-1.604C3.183 11.243 2.667 10.183 2.667 9c0-2.21 1.79-4 4-4h3.017c.286 0 .563-.094.791-.266.333-.25.744-.4 1.192-.4h.666z" transform="translate(-523 -426) translate(471 45) translate(37 364) translate(11 12) translate(4 4)"/>
                                        </g>
                                    </g>
                                </g>
                            </g>
                        </g>
                    </g>
                </g>
            </g>
        </g>
    </g>
</svg>
