<svg width="19" height="19" viewBox="0 0 19 19" fill="none" xmlns="http://www.w3.org/2000/svg">
<path d="M9.89882 1.86937C11.058 3.02852 11.058 4.90788 9.89882 6.06703C8.73966 7.22618 6.86031 7.22618 5.70115 6.06703C4.542 4.90788 4.542 3.02852 5.70115 1.86937C6.86031 0.710212 8.73966 0.710212 9.89882 1.86937" stroke="current" stroke-linecap="round" stroke-linejoin="round"/>
<path d="M11.5085 10.1764C10.4044 9.73529 9.109 9.49219 7.8 9.49219C4.3592 9.49219 1 11.1641 1 13.7354V14.5854C1 15.0546 1.3808 15.4354 1.85 15.4354H9.85105" stroke="current" stroke-linecap="round" stroke-linejoin="round"/>
<path d="M13.75 18C11.4032 18 9.5 16.0977 9.5 13.75C9.5 11.4516 11.455 9.49745 13.7534 9.5C16.0994 9.5017 18 11.404 18 13.75C18 16.0969 16.0977 18 13.75 18" stroke="current" stroke-linecap="round" stroke-linejoin="round"/>
<path d="M13.75 12.0498V15.4498" stroke="current" stroke-linecap="round" stroke-linejoin="round"/>
<path d="M15.45 13.7502H12.05" stroke="current" stroke-linecap="round" stroke-linejoin="round"/>
</svg>
