<svg width="116" height="131" viewBox="0 0 116 131" xmlns="http://www.w3.org/2000/svg">
    <g fill="none" fill-rule="evenodd" stroke-linecap="round">
        <path d="M35 128.5h45" opacity=".2" stroke="#1DE9B6" stroke-width="5"/>
        <g opacity=".4" stroke-linejoin="round">
            <path d="M1 1h114v114H1z"/>
            <path d="M43.005 35.005c8.006-8.007 20.984-8.007 28.99 0 8.007 8.006 8.007 20.984 0 28.99-8.006 8.007-20.984 8.007-28.99 0-8.007-8.006-8.007-20.984 0-28.99" stroke="#FF6E40" stroke-width="4"/>
            <path d="m35.341 82.134 9.014 1.232 5.647 4.412L38.022 109l-3.752-9.912L24 100.721 34.57 82c.254.052.511.097.771.133zM81.434 82 92 100.72l-10.27-1.634L77.977 109l-11.98-21.225 5.654-4.419h-.01l8.996-1.218c.269-.037.534-.083.797-.138z" stroke="#1DE9B6" stroke-width="4"/>
            <path d="m18.31 56.832 5.577 7.3 1.204 9.085a11.254 11.254 0 0 0 9.67 9.68l9.11 1.217 7.296 5.572a11.253 11.253 0 0 0 13.67 0l7.299-5.576h-.01l9.092-1.204a11.254 11.254 0 0 0 9.68-9.67l1.213-9.11c0 .005 2.819-3.686 5.577-7.294a11.258 11.258 0 0 0 0-13.669l-5.568-7.299-1.204-9.086a11.254 11.254 0 0 0-9.67-9.679l-9.115-1.213-7.295-5.572a11.253 11.253 0 0 0-13.67 0l-7.299 5.572h.01l-9.092 1.208a11.254 11.254 0 0 0-9.68 9.67l-1.218 9.11c0-.005-2.819 3.686-5.577 7.294a11.258 11.258 0 0 0 0 13.664h0z" stroke="#1DE9B6" stroke-width="4"/>
        </g>
    </g>
</svg>
