<svg width="101" height="101" viewBox="0 0 101 101" fill="current" xmlns="http://www.w3.org/2000/svg">
<g clip-path="url(#clip0_960:6233)">
<path d="M100.881 7.54011C100.663 3.52812 97.4719 0.337741 93.4599 0.118777C85.3645 -0.323493 69.5233 0.106744 54.3757 7.94154C46.6537 11.9358 38.4869 18.7077 31.9695 26.521C31.8892 26.6173 31.8111 26.7141 31.7314 26.8106L16.9404 27.9532C14.5057 28.1413 12.3372 29.4175 10.9907 31.454L0.899731 46.7169C-0.121513 48.2615 -0.283863 50.1945 0.465155 51.8876C1.21437 53.5809 2.75383 54.761 4.58347 55.0444L17.0449 56.9745C17.0009 57.2167 16.9568 57.4588 16.9163 57.701C16.5015 60.1826 17.3237 62.734 19.116 64.5262L36.4738 81.8842C37.9598 83.3702 39.9678 84.1894 42.0253 84.1894C42.449 84.1894 42.8751 84.1545 43.2992 84.0837C43.5415 84.0433 43.7835 83.9991 44.0257 83.9551L45.9558 96.4168C46.2393 98.2464 47.4193 99.786 49.1122 100.535C49.8167 100.847 50.5621 101.001 51.3043 101.001C52.3464 101 53.3813 100.697 54.2832 100.101L69.546 90.0096C71.5828 88.6628 72.8587 86.4943 73.0465 84.0598L74.189 69.2691C74.2855 69.1894 74.3826 69.1112 74.4788 69.031C82.2923 62.5135 89.0644 54.3467 93.0585 46.6245C100.894 31.4763 101.323 15.6349 100.881 7.54011ZM66.2822 85.0728L51.6824 94.7256L49.8013 82.5809C55.9718 80.7667 62.0757 77.861 67.8909 73.9683L67.1467 83.6038C67.1003 84.2048 66.7851 84.7404 66.2822 85.0728ZM40.6584 77.6996L23.3004 60.3416C22.8576 59.8985 22.6528 59.2762 22.7532 58.6767C23.2693 55.5909 24.0711 52.6534 25.0638 49.8861L51.1084 75.9307C47.7848 77.1212 44.8079 77.8314 42.3233 78.2468C41.7229 78.3466 41.1013 78.1425 40.6584 77.6996ZM17.3963 33.8536L27.0315 33.1093C23.1387 38.9245 20.2329 45.0285 18.4187 51.1989L6.27423 49.318L15.9272 34.718C16.2598 34.215 16.7954 33.8999 17.3963 33.8536ZM70.6886 64.4862C65.9082 68.4735 61.2679 71.3575 56.9908 73.4444L27.5547 44.0082C30.2884 38.4248 33.6247 33.7754 36.5139 30.3119C42.5453 23.0811 50.0467 16.8434 57.0948 13.1979C70.9969 6.00696 85.6441 5.61973 93.1378 6.02767C94.1296 6.08172 94.9185 6.87059 94.9725 7.86264C95.3811 15.3564 94.9931 30.0033 87.8021 43.9056C84.1569 50.9535 77.9191 58.4548 70.6886 64.4862Z" fill="current"/>
<path d="M69.1852 46.6025C72.973 46.6021 76.7625 45.1601 79.6463 42.2763C82.4408 39.482 83.9795 35.7667 83.9795 31.8151C83.9795 27.8635 82.4406 24.1482 79.6463 21.3539C73.8779 15.5853 64.492 15.5857 58.724 21.3539C55.9295 24.1482 54.3906 27.8635 54.3906 31.8151C54.3906 35.7667 55.9297 39.482 58.724 42.2763C61.6084 45.1607 65.3959 46.6029 69.1852 46.6025ZM62.9082 25.5383C64.6386 23.8077 66.9117 22.9425 69.1848 22.9425C71.458 22.9425 73.7311 23.8077 75.4615 25.5383C77.1381 27.2149 78.0613 29.444 78.0613 31.8149C78.0613 34.1859 77.1381 36.4151 75.4615 38.0917C72.0007 41.5527 66.369 41.5525 62.908 38.0917C61.2314 36.4151 60.308 34.1861 60.308 31.8151C60.308 29.4442 61.2316 27.2149 62.9082 25.5383Z" fill="current"/>
<path d="M3.01833 83.234C3.77564 83.234 4.53294 82.9452 5.11053 82.3672L14.7712 72.7066C15.9268 71.551 15.9268 69.6775 14.7712 68.522C13.6158 67.3664 11.7422 67.3664 10.5866 68.522L0.926135 78.1826C-0.229447 79.3382 -0.229447 81.2117 0.926135 82.3672C1.50373 82.945 2.26103 83.234 3.01833 83.234Z" fill="current"/>
<path d="M23.6248 77.3752C22.4694 76.2196 20.5957 76.2196 19.4402 77.3752L0.866808 95.9488C-0.288773 97.1044 -0.288773 98.9778 0.866808 100.133C1.4446 100.711 2.2017 101 2.95901 101C3.71631 101 4.47361 100.711 5.05121 100.133L23.6246 81.5598C24.7803 80.4042 24.7803 78.5308 23.6248 77.3752Z" fill="current"/>
<path d="M28.2936 86.2287L18.6329 95.8894C17.4773 97.045 17.4773 98.9184 18.6329 100.074C19.2107 100.652 19.968 100.941 20.7251 100.941C21.4822 100.941 22.2397 100.652 22.8173 100.074L32.478 90.4133C33.6336 89.2578 33.6336 87.3843 32.478 86.2287C31.3226 85.0732 29.449 85.0732 28.2936 86.2287Z" fill="current"/>
</g>
<defs>
<clipPath id="clip0_960:6233">
<rect width="101" height="101" fill="current"/>
</clipPath>
</defs>
</svg>
