<svg xmlns="http://www.w3.org/2000/svg" width="24" height="24" viewBox="0 0 24 24">
    <g fill="none" fill-rule="evenodd">
        <g>
            <g>
                <g>
                    <g>
                        <path stroke="current" stroke-linecap="round" stroke-linejoin="round" stroke-opacity=".95" d="M14.121 9.879c1.172 1.171 1.172 3.07 0 4.242-1.171 1.172-3.07 1.172-4.242 0-1.172-1.171-1.172-3.07 0-4.242 1.171-1.172 3.07-1.172 4.242 0" transform="translate(-18.000000, -530.000000) translate(18.000000, 110.000000) translate(0.000000, 420.000000) translate(0.000000, -0.000000)"/>
                        <path stroke="current" stroke-linecap="round" stroke-linejoin="round" stroke-opacity=".95" d="M16.18 18.725h0c.503.503 1.32.503 1.823 0l.722-.722c.503-.503.503-1.32 0-1.823h0c-.382-.382-.494-.955-.284-1.453l.065-.16c.183-.466.637-.766 1.137-.766h.067c.712 0 1.289-.577 1.289-1.289v-1.021c0-.712-.577-1.289-1.289-1.289h-.067c-.5 0-.954-.301-1.137-.766l-.065-.16c-.21-.498-.098-1.071.284-1.453h0c.503-.503.503-1.32 0-1.823l-.722-.722c-.503-.503-1.32-.503-1.823 0h0c-.382.382-.955.494-1.453.284l-.16-.065c-.466-.186-.767-.641-.767-1.141v-.067C13.8 3.577 13.223 3 12.511 3H11.49c-.713 0-1.29.577-1.29 1.289v.067c0 .5-.301.954-.766 1.137-.054.022-.107.043-.16.066-.498.21-1.071.098-1.453-.284h0c-.503-.503-1.32-.503-1.823 0l-.723.722c-.503.503-.503 1.32 0 1.823h0c.382.382.494.955.284 1.453-.023.054-.044.107-.065.161-.183.465-.638.766-1.138.766h-.067C3.577 10.2 3 10.777 3 11.489v1.021c0 .713.577 1.29 1.289 1.29h.067c.5 0 .954.301 1.137.766l.065.16c.21.498.098 1.071-.284 1.453h0c-.503.503-.503 1.32 0 1.823l.722.722c.503.503 1.32.503 1.823 0h0c.382-.382.955-.494 1.453-.284l.16.065c.466.183.766.637.766 1.137v.067c0 .712.577 1.289 1.289 1.289h1.021c.712 0 1.289-.577 1.289-1.289v-.067c0-.5.301-.954.766-1.137l.16-.065c.501-.209 1.074-.097 1.457.285h0z" transform="translate(-18.000000, -530.000000) translate(18.000000, 110.000000) translate(0.000000, 420.000000) translate(0.000000, -0.000000)"/>
                    </g>
                </g>
            </g>
        </g>
    </g>
</svg>
