<svg xmlns="http://www.w3.org/2000/svg" width="15" height="12" viewBox="0 0 15 12">
    <g fill="none" fill-rule="evenodd">
        <g>
            <g>
                <g>
                    <g stroke="#fff" stroke-linecap="round" stroke-linejoin="round">
                        <path d="M7.333 9.333h-2C3.493 9.333 2 7.841 2 6V0M6 0h2c1.84 0 3.333 1.493 3.333 3.333v6" transform="translate(-772 -343) translate(608 158) translate(163 183) translate(1.333 3.333)"/>
                        <path d="M3.667 1.667L2 0 .333 1.667M9.333 7.333L11.333 9.333 13.333 7.333" transform="translate(-772 -343) translate(608 158) translate(163 183) translate(1.333 3.333)"/>
                    </g>
                    <path d="M0 0L16 0 16 16 0 16z" transform="translate(-772 -343) translate(608 158) translate(163 183)"/>
                </g>
            </g>
        </g>
    </g>
</svg>
