<svg xmlns="http://www.w3.org/2000/svg" width="24" height="24" viewBox="0 0 24 24">
    <g fill="none" fill-rule="evenodd">
        <g>
            <g>
                <g>
                    <path stroke="current" stroke-linecap="round" stroke-linejoin="round" stroke-opacity="1" d="M18.364 5.636c3.515 3.515 3.515 9.213 0 12.728-3.515 3.515-9.213 3.515-12.728 0-3.515-3.515-3.515-9.213 0-12.728 3.515-3.515 9.213-3.515 12.728 0M7.05 12.707L12.707 7.05" transform="translate(-18.000000, -157.000000) translate(18.000000, 110.000000) translate(0.000000, 47.000000)"/>
                    <path stroke="current" stroke-linecap="round" stroke-linejoin="round" stroke-opacity="1" d="M11.293 14.121L11.293 16.949 14.121 16.949M16.95 11.293L11.293 16.95M9.879 7.05L12.707 7.05 12.707 9.878" transform="translate(-18.000000, -157.000000) translate(18.000000, 110.000000) translate(0.000000, 47.000000)"/>
                </g>
            </g>
        </g>
    </g>
</svg>
