<svg xmlns="http://www.w3.org/2000/svg" width="24" height="24" viewBox="0 0 24 24">
    <g fill="none" fill-rule="evenodd">
        <g>
            <g>
                <g>
                    <path d="M0 0L24 0 24 24 0 24z" transform="translate(-587 -630) translate(571 611) translate(16 19)"/>
                    <g fill="#1de9b6" fill-rule="nonzero">
                        <path d="M12.488.02c.324 0 .586.262.586.585 0 .324-.262.586-.586.586h-.91l1.804 5.899h1.382V5.176c0-.711.578-1.29 1.29-1.29h.274c.324 0 .586.263.586.587 0 .323-.262.586-.586.586h-.275c-.063 0-.117.053-.117.117V7.09h.16c1.616 0 2.93 1.314 2.93 2.93v2.75c.597.526.974 1.296.974 2.152 0 1.583-1.288 2.871-2.871 2.871s-2.871-1.288-2.871-2.871c0-.248.032-.49.091-.72h-3.218c-.865 2.105-2.937 3.591-5.35 3.591C2.593 17.793 0 15.199 0 12.012c0-2.234 1.273-4.176 3.132-5.138V.605c0-.323.263-.585.586-.585zM5.781 7.402c-2.541 0-4.61 2.068-4.61 4.61 0 2.541 2.069 4.61 4.61 4.61 2.542 0 4.61-2.069 4.61-4.61 0-2.542-2.068-4.61-4.61-4.61zm11.348 5.82c-.937 0-1.7.763-1.7 1.7 0 .937.763 1.7 1.7 1.7.937 0 1.7-.763 1.7-1.7 0-.937-.763-1.7-1.7-1.7zM5.78 10.06c1.077 0 1.953.876 1.953 1.953s-.876 1.953-1.953 1.953-1.953-.876-1.953-1.953.876-1.953 1.953-1.953zm9.532-1.797h-5.136c.864 1.01 1.386 2.32 1.386 3.75 0 .347-.031.688-.09 1.019h3.498c.527-.6 1.299-.98 2.158-.98.25 0 .493.032.725.093v-1.265h-.784c-.969 0-1.758-.789-1.758-1.758v-.86zM5.78 11.23c-.43 0-.781.35-.781.782 0 .43.35.781.781.781.431 0 .782-.35.782-.781 0-.431-.351-.782-.782-.782zm10.703-2.925v.816c0 .323.263.586.586.586h.756c-.125-.694-.658-1.247-1.342-1.402zm-6.13-7.114H8.046v5.485l-.002.016c.266.114.522.247.766.398h3.345L10.353 1.19zm-3.479 0h-2.57v5.231c.47-.125.966-.191 1.476-.191.374 0 .74.036 1.094.104V1.19z" transform="translate(-587 -630) translate(571 611) translate(16 19) translate(2 3)"/>
                    </g>
                </g>
            </g>
        </g>
    </g>
</svg>
