<svg xmlns="http://www.w3.org/2000/svg" width="104" height="118" viewBox="0 0 104 118">
    <g fill="none" fill-rule="evenodd">
        <g>
            <g>
                <g>
                    <g opacity=".4">
                        <path d="M0 0L118 0 118 118 0 118z" transform="translate(-630.000000, -218.000000) translate(490.000000, 62.000000) translate(133.000000, 149.000000)"/>
                        <g stroke-linecap="round" stroke-linejoin="round" stroke-width="4">
                            <path stroke="#FF6E40" d="M66.03 76.484l-1.646-6.131c-.63-2.336.762-4.735 3.097-5.355l21.943-5.846c2.326-.62 4.72.763 5.345 3.088l3.412 12.665c.63 2.33-.757 4.735-3.088 5.36l-4.626 1.234" transform="translate(-630.000000, -218.000000) translate(490.000000, 62.000000) translate(133.000000, 149.000000) translate(9.833333, 9.833333)"/>
                            <path stroke="#1DE9B6" d="M83.583 41.792H64.212c-7.252 0-13.133-5.88-13.133-13.133h0c0-3.48 1.382-6.824 3.845-9.287L66.321 7.975M12.577 71.685l8.25-12.375c1.495-2.242 4.007-3.59 6.701-3.59h0c3.054 0 5.837-1.72 7.203-4.454l.62-1.234c1.13-2.267 1.13-4.936 0-7.203L30.09 32.312c-1.367-2.728-4.155-4.45-7.208-4.45H2.414" transform="translate(-630.000000, -218.000000) translate(490.000000, 62.000000) translate(133.000000, 149.000000) translate(9.833333, 9.833333)"/>
                            <path stroke="#1DE9B6" d="M41.792 0C18.659 0 0 18.659 0 41.792c0 23.133 18.659 41.791 41.792 41.791M83.583 41.792C83.583 18.659 64.925 0 41.792 0" transform="translate(-630.000000, -218.000000) translate(490.000000, 62.000000) translate(133.000000, 149.000000) translate(9.833333, 9.833333)"/>
                            <path stroke="#FF6E40" d="M63.37 98.333h22.726c2.414 0 4.37-1.956 4.37-4.37V80.85c0-2.414-1.956-4.371-4.37-4.371H63.37c-2.414 0-4.371 1.957-4.371 4.37v13.113c0 2.415 1.957 4.371 4.37 4.371h0z" transform="translate(-630.000000, -218.000000) translate(490.000000, 62.000000) translate(133.000000, 149.000000) translate(9.833333, 9.833333)"/>
                        </g>
                    </g>
                    <path stroke="#1DE9B6" stroke-linecap="round" stroke-width="5" d="M36.5 122.5L67.5 122.5" opacity=".2" transform="translate(-630.000000, -218.000000) translate(490.000000, 62.000000) translate(133.000000, 149.000000)"/>
                </g>
            </g>
        </g>
    </g>
</svg>
